g FX_MESH_CH0187_Hud_19
v -0.22154471 -0.21058999 1.193234E-08
v -0.22154471 -0.22154471 0
v -0.21058999 -0.22154471 0
v -0.2105875 -0.2105875 1.1898892E-08
v -0 -0.22154471 0
v -0.22154471 0 0
v -0 -0.2105875 1.1898892E-08
v -0.2105875 0 0
v 0.2105875 -0.2105875 1.1898892E-08
v -0.2105875 0.2105875 -1.1898892E-08
v 0.21058999 -0.22154471 0
v -0.22154471 0.21058999 -1.193234E-08
v 0.22154471 -0.21058999 1.18701395E-08
v 0.22154471 -0.22154471 0
v 0.22154471 0 0
v 0.2105875 0 0
v 0.2105875 0.2105875 -1.1898892E-08
v 0.22154471 0.21058999 -1.18701395E-08
v -0.21058999 0.22154471 0
v -0.22154471 0.22154471 0
v -0 0.22154471 0
v -0 0.2105875 -1.1898892E-08
v 0.21058999 0.22154471 0
v 0.22154471 0.22154471 0
vt 0 0.25
vt 0 0
vt 0.25 0
vt 0.25 0.25
vt 0.5 0
vt 0 0.5
vt 0.5 0.25
vt 0.25 0.5
vt 0.75 0.25
vt 0.25 0.75
vt 0.75 0
vt 0 0.75
vt 1 0.25
vt 1 0
vt 1 0.5
vt 0.75 0.5
vt 0.75 0.75
vt 1 0.75
vt 0.25 1
vt 0 1
vt 0.5 1
vt 0.5 0.75
vt 0.75 1
vt 1 1
vn -0 5.155874E-07 -1
vn -0 1.087591E-06 -1
vn -0 1.086766E-06 -1
vn -0 7.055943E-07 -1
vn -0 1.0859405E-06 -1
vn -0 0 -1
vn -0 1.0859405E-06 -1
vn -0 0 -1
vn -0 7.046975E-07 -1
vn -0 7.055943E-07 -1
vn -0 1.0853463E-06 -1
vn -0 5.155874E-07 -1
vn -0 5.1424155E-07 -1
vn -0 1.0847522E-06 -1
vn -0 0 -1
vn -0 0 -1
vn -0 7.046975E-07 -1
vn -0 5.1424155E-07 -1
vn -0 1.086766E-06 -1
vn -0 1.087591E-06 -1
vn -0 1.0859407E-06 -1
vn -0 1.0859407E-06 -1
vn -0 1.0853463E-06 -1
vn -0 1.0847522E-06 -1
g FX_MESH_CH0187_Hud_19_0
f 3/3/3 2/2/2 1/1/1
f 1/1/1 4/4/4 3/3/3
f 5/5/5 3/3/3 4/4/4
f 4/4/4 1/1/1 6/6/6
f 4/4/4 7/7/7 5/5/5
f 6/6/6 8/8/8 4/4/4
f 5/5/5 7/7/7 9/9/9
f 10/10/10 8/8/8 6/6/6
f 9/9/9 11/11/11 5/5/5
f 6/6/6 12/12/12 10/10/10
f 11/11/11 9/9/9 13/13/13
f 13/13/13 14/14/14 11/11/11
f 15/15/15 13/13/13 9/9/9
f 9/9/9 16/16/16 15/15/15
f 15/15/15 16/16/16 17/17/17
f 17/17/17 18/18/18 15/15/15
f 19/19/19 10/10/10 12/12/12
f 12/12/12 20/20/20 19/19/19
f 10/10/10 19/19/19 21/21/21
f 21/21/21 22/22/22 10/10/10
f 17/17/17 22/22/22 21/21/21
f 21/21/21 23/23/23 17/17/17
f 18/18/18 17/17/17 23/23/23
f 23/23/23 24/24/24 18/18/18
