g FX_MESH_CH0187_Hud_Radar_02
v 0.6786656 -0.8182587 3.2206626E-07
v 0.6472113 -0.8034098 3.1454098E-07
v 0.80606306 -0.63842165 3.299042E-07
v 0.84065217 -0.6490027 3.3724984E-07
v 0.9020642 -0.47736168 3.4268075E-07
v 0.9580142 -0.48247516 3.499954E-07
v 0.93866545 -0.38337746 3.480014E-07
v 0.9927862 -0.38239604 3.5510675E-07
v 1.0422376 -0.23241334 3.604877E-07
v 0.8274183 -0.24998853 3.5371306E-07
v 0.9617912 -0.19161959 3.6246564E-07
v 0.8342372 -0.20618638 3.5593845E-07
v 0.8481373 -0.10401903 3.5705116E-07
v 0.9621817 -0.096647225 3.6345466E-07
v 0.8517451 -0.001851735 3.5816385E-07
v 0.96257156 -0.0016748704 3.6444365E-07
v 0.96091187 0.09827162 3.632109E-07
v 0.8481373 0.104969986 3.5677775E-07
v 0.9592517 0.19821814 3.619781E-07
v 0.8342372 0.21179168 3.5539162E-07
v 0.8274183 0.26552427 3.5261942E-07
v 1.0371575 0.24839258 3.5951248E-07
v 0.9358519 0.3889524 3.469433E-07
v 0.98894894 0.39087704 3.541111E-07
v 0.95882004 0.47888383 3.4945677E-07
v 0.90453064 0.47004542 3.4217285E-07
v 0.8525329 0.6670796 3.3482257E-07
v 0.8007268 0.64377797 3.2783842E-07
v 0.6974147 0.8362002 3.196708E-07
v 0.6583475 0.81540877 3.119336E-07
v -0.80606306 0.6384216 3.299042E-07
v -0.6786656 0.8182586 3.2206626E-07
v -0.6472113 0.80340964 3.1454098E-07
v -0.84065217 0.6490025 3.3724984E-07
v -0.9020642 0.4773616 3.4268075E-07
v -0.9580142 0.48247507 3.499954E-07
v -0.93866545 0.38337737 3.480014E-07
v -0.9927862 0.38239595 3.5510675E-07
v -1.0422376 0.2324133 3.604877E-07
v -0.8274183 0.2499885 3.5371306E-07
v -0.9617912 0.19161955 3.6246564E-07
v -0.8342372 0.20618635 3.5593845E-07
v -0.8481373 0.10401899 3.5705116E-07
v -0.9621817 0.09664718 3.6345466E-07
v -0.8517451 0.0018517078 3.5816385E-07
v -0.96257156 0.0016748395 3.6444365E-07
v -0.96091187 -0.098271646 3.632109E-07
v -0.8481373 -0.10497001 3.5677775E-07
v -0.9592517 -0.19821814 3.619781E-07
v -0.8342372 -0.21179168 3.5539162E-07
v -0.8274183 -0.26552427 3.5261942E-07
v -1.0371575 -0.24839258 3.5951248E-07
v -0.9358519 -0.3889524 3.469433E-07
v -0.98894894 -0.39087704 3.541111E-07
v -0.95882004 -0.47888383 3.4945677E-07
v -0.90453064 -0.47004542 3.4217285E-07
v -0.8525329 -0.6670796 3.3482257E-07
v -0.8007268 -0.64377797 3.2783842E-07
v -0.6974147 -0.8362002 3.196708E-07
v -0.6583475 -0.81540877 3.119336E-07
vt 0 0
vt 1 0
vt 1 0.1
vt 0 0.1
vt 1 0.2
vt 0 0.2
vt 1 0.3
vt 0 0.3
vt 0 0.4
vt 1 0.4
vt 0 0.45
vt 1 0.45
vt 1 0.475
vt 0 0.475
vt 1 0.5
vt 0 0.5
vt 0 0.525
vt 1 0.525
vt 0 0.55
vt 1 0.55
vt 1 0.6
vt 0 0.6
vt 1 0.70000005
vt 0 0.70000005
vt 0 0.8000001
vt 1 0.8000001
vt 0 0.9000001
vt 1 0.9000001
vt 0 1.0000001
vt 1 1.0000001
vt 1 0.1
vt 0 0
vt 1 0
vt 0 0.1
vt 1 0.2
vt 0 0.2
vt 1 0.3
vt 0 0.3
vt 0 0.4
vt 1 0.4
vt 0 0.45
vt 1 0.45
vt 1 0.475
vt 0 0.475
vt 1 0.5
vt 0 0.5
vt 0 0.525
vt 1 0.525
vt 0 0.55
vt 1 0.55
vt 1 0.6
vt 0 0.6
vt 1 0.70000005
vt 0 0.70000005
vt 0 0.8000001
vt 1 0.8000001
vt 0 0.9000001
vt 1 0.9000001
vt 0 1.0000001
vt 1 1.0000001
vn -1.9009734E-07 0 1
vn -1.9009734E-07 0 1
vn -1.7728449E-07 0 1
vn -1.6961208E-07 0 1
vn -1.4732298E-07 0 1
vn -1.4088612E-07 0 1
vn -0 0 1
vn -0 0 1
vn -0 0 1
vn -0 0 1
vn -0 0 1
vn -0 0 1
vn -0 0 1
vn -0 0 1
vn -0 0 1
vn -0 0 1
vn -0 0 1
vn -0 0 1
vn -0 0 1
vn -0 0 1
vn -0 0 1
vn -0 0 1
vn -0 0 1
vn -0 0 1
vn -1.3513633E-07 0 1
vn -1.350931E-07 0 1
vn -1.3922869E-07 0 1
vn -1.405018E-07 0 1
vn -1.448568E-07 0 1
vn -1.448568E-07 0 1
vn 1.7728458E-07 0 1
vn 1.9009745E-07 0 1
vn 1.9009747E-07 0 1
vn 1.6961208E-07 0 1
vn 1.4732296E-07 0 1
vn 1.4088612E-07 0 1
vn -0 0 1
vn -0 0 1
vn -0 0 1
vn -0 0 1
vn -0 0 1
vn -0 0 1
vn -0 0 1
vn -0 0 1
vn -0 0 1
vn -0 0 1
vn -0 0 1
vn -0 0 1
vn -0 0 1
vn -0 0 1
vn -0 0 1
vn -0 0 1
vn -0 0 1
vn -0 0 1
vn 1.3513633E-07 0 1
vn 1.3509312E-07 0 1
vn 1.3922869E-07 0 1
vn 1.4050181E-07 0 1
vn 1.4485681E-07 0 1
vn 1.4485681E-07 0 1
g FX_MESH_CH0187_Hud_Radar_02_0
f 3/3/3 2/2/2 1/1/1
f 4/4/4 3/3/3 1/1/1
f 3/3/3 4/4/4 5/5/5
f 6/6/6 5/5/5 4/4/4
f 5/5/5 6/6/6 7/7/7
f 8/8/8 7/7/7 6/6/6
f 7/7/7 8/8/8 9/9/9
f 9/9/9 10/10/10 7/7/7
f 9/9/9 11/11/11 10/10/10
f 12/12/12 10/10/10 11/11/11
f 12/12/12 11/11/11 13/13/13
f 13/13/13 11/11/11 14/14/14
f 13/13/13 14/14/14 15/15/15
f 15/15/15 14/14/14 16/16/16
f 15/15/15 16/16/16 17/17/17
f 18/18/18 15/15/15 17/17/17
f 18/18/18 17/17/17 19/19/19
f 20/20/20 18/18/18 19/19/19
f 19/19/19 21/21/21 20/20/20
f 21/21/21 19/19/19 22/22/22
f 21/21/21 22/22/22 23/23/23
f 22/22/22 24/24/24 23/23/23
f 23/23/23 24/24/24 25/25/25
f 25/25/25 26/26/26 23/23/23
f 26/26/26 25/25/25 27/27/27
f 27/27/27 28/28/28 26/26/26
f 28/28/28 27/27/27 29/29/29
f 29/29/29 30/30/30 28/28/28
f 33/33/33 32/32/32 31/31/31
f 34/34/34 31/31/31 32/32/32
f 31/31/31 34/34/34 35/35/35
f 34/34/34 36/36/36 35/35/35
f 37/37/37 35/35/35 36/36/36
f 36/36/36 38/38/38 37/37/37
f 37/37/37 38/38/38 39/39/39
f 39/39/39 40/40/40 37/37/37
f 40/40/40 39/39/39 41/41/41
f 41/41/41 42/42/42 40/40/40
f 43/43/43 42/42/42 41/41/41
f 41/41/41 44/44/44 43/43/43
f 45/45/45 43/43/43 44/44/44
f 44/44/44 46/46/46 45/45/45
f 47/47/47 45/45/45 46/46/46
f 47/47/47 48/48/48 45/45/45
f 49/49/49 48/48/48 47/47/47
f 49/49/49 50/50/50 48/48/48
f 51/51/51 50/50/50 49/49/49
f 51/51/51 49/49/49 52/52/52
f 52/52/52 53/53/53 51/51/51
f 52/52/52 54/54/54 53/53/53
f 53/53/53 54/54/54 55/55/55
f 55/55/55 56/56/56 53/53/53
f 56/56/56 55/55/55 57/57/57
f 57/57/57 58/58/58 56/56/56
f 58/58/58 57/57/57 59/59/59
f 59/59/59 60/60/60 58/58/58
