g FX_MESH_CH0187_Hud_01
v -0.32664052 -0.32664093 0.1913417
v -0.3840887 -0.25664017 0.1913417
v -0.39722064 -0.2654147 3.774895E-08
v -0.33780834 -0.33780873 3.774895E-08
v -0.2654142 -0.397221 3.774895E-08
v -0.2566397 -0.38408905 0.1913417
v -0.18282032 -0.44136825 3.774895E-08
v -0.17677633 -0.4267768 0.1913417
v -0.09320075 -0.46855396 3.774895E-08
v -0.09011957 -0.45306376 0.1913417
v 4.6123074E-07 -0.47773337 3.774895E-08
v 4.460486E-07 -0.46193972 0.1913417
v 0.3840892 -0.25663945 0.1913417
v 0.39722118 -0.26541394 3.774895E-08
v 0.4413684 -0.18282 3.774895E-08
v 0.42677692 -0.17677607 0.1913417
v 0.46855402 -0.093200445 3.774895E-08
v 0.45306382 -0.09011927 0.1913417
v 0.4777334 7.763559E-07 3.774895E-08
v 0.46193972 7.4157816E-07 0.1913417
v 0.45306355 0.09012073 0.1913417
v 0.46855375 0.09320197 3.774895E-08
v 0.25663918 0.38408935 0.1913417
v 0.26541367 0.39722142 3.774895E-08
v 0.18281974 0.44136855 3.774895E-08
v 0.1767758 0.42677703 0.1913417
v 0.09320015 0.46855417 3.774895E-08
v 0.09011899 0.45306388 0.1913417
v -2.0950685E-08 0.47773346 3.774895E-08
v -2.0192026E-08 0.46193972 0.1913417
v -0.09011997 0.4530637 0.1913417
v -2.0192026E-08 0.46193972 0.1913417
v -0 0.5187795 3.7748954E-08
v -0.10113199 0.50883347 3.7748954E-08
v -0.17677668 0.42677668 0.1913417
v -0.19881813 0.47937766 3.7748954E-08
v -0.25663993 0.38408884 0.1913417
v -0.2884775 0.4315439 3.7748954E-08
v -0.3266407 0.3266407 0.1913417
v -0.36697814 0.36717048 3.7748954E-08
v -0.43206468 0.28873116 3.7748954E-08
v -0.38408884 0.25663993 0.1913417
v -0.48116624 0.1992404 3.7748954E-08
v -0.42677668 0.17677662 0.1913417
v -0.5133895 0.1021373 3.7748954E-08
v -0.4530637 0.09011985 0.1913417
v -0.5217433 -0.00010607302 3.7748954E-08
v -0.46193972 -1.5051907E-07 0.1913417
v -0.45306364 -0.09012016 0.1913417
v -0.50906754 -0.10482296 -0.022503853
v -0.42677656 -0.17677689 0.1913417
v -0.48219004 -0.20026176 -0.015058775
v -0.3840887 -0.25664017 0.1913417
v -0.43270764 -0.2882505 -0.012577083
v 0.09012045 -0.45306358 0.1913417
v 4.460486E-07 -0.46193972 0.1913417
v -0 -0.5164722 3.7748954E-08
v 0.10078987 -0.5065261 3.7748954E-08
v 0.17677715 -0.42677647 0.1913417
v 0.19771388 -0.47707006 3.7748954E-08
v 0.25664043 -0.38408855 0.1913417
v 0.28655636 -0.4292362 3.7748954E-08
v 0.3266411 -0.3266403 0.1913417
v 0.3646378 -0.36486265 3.7748954E-08
v 0.42901614 -0.28642333 3.7748954E-08
v 0.3840892 -0.25663945 0.1913417
v 0.42677635 0.17677744 0.1913417
v 0.45306355 0.09012073 0.1913417
v 0.5155612 0.102138266 3.7748954E-08
v 0.4861051 0.19924133 3.7748954E-08
v 0.38408837 0.25664067 0.1913417
v 0.43827116 0.28873196 3.7748954E-08
v 0.32664007 0.32664135 0.1913417
v 0.37389755 0.36717117 3.7748954E-08
v 0.29054564 0.43516698 0.007943019
v 0.2566642 0.38406974 0.1992847
vt 0.375 0.625
vt 0.34374997 0.625
vt 0.34374997 0.5
vt 0.375 0.5
vt 0.40625 0.5
vt 0.40625 0.625
vt 0.4375 0.5
vt 0.4375 0.625
vt 0.46875003 0.5
vt 0.46875003 0.625
vt 0.50000006 0.5
vt 0.50000006 0.625
vt 0.6562501 0.625
vt 0.6562501 0.5
vt 0.6875001 0.5
vt 0.6875001 0.625
vt 0.7187501 0.5
vt 0.7187501 0.625
vt 0.7500001 0.5
vt 0.7500001 0.625
vt 0.7812501 0.625
vt 0.7812501 0.5
vt 0.9062502 0.625
vt 0.9062502 0.5
vt 0.9375002 0.5
vt 0.9375002 0.625
vt 0.96875024 0.5
vt 0.96875024 0.625
vt 1.0000002 0.5
vt 1.0000002 0.625
vt 0.03125 0.625
vt 0 0.625
vt 0 0.5
vt 0.03125 0.5
vt 0.0625 0.625
vt 0.0625 0.5
vt 0.09375 0.625
vt 0.09375 0.5
vt 0.125 0.625
vt 0.125 0.5
vt 0.15625 0.5
vt 0.15625 0.625
vt 0.1875 0.5
vt 0.1875 0.625
vt 0.21874999 0.5
vt 0.21874999 0.625
vt 0.24999999 0.5
vt 0.24999999 0.625
vt 0.28124997 0.625
vt 0.28124997 0.5
vt 0.31249997 0.625
vt 0.31249997 0.5
vt 0.34374997 0.625
vt 0.34374997 0.5
vt 0.53125006 0.625
vt 0.50000006 0.625
vt 0.50000006 0.5
vt 0.53125006 0.5
vt 0.56250006 0.625
vt 0.56250006 0.5
vt 0.59375006 0.625
vt 0.59375006 0.5
vt 0.62500006 0.625
vt 0.62500006 0.5
vt 0.6562501 0.5
vt 0.6562501 0.625
vt 0.8125002 0.625
vt 0.7812501 0.625
vt 0.7812501 0.5
vt 0.8125002 0.5
vt 0.8437502 0.625
vt 0.8437502 0.5
vt 0.8750002 0.625
vt 0.8750002 0.5
vt 0.9062502 0.5
vt 0.9062502 0.625
vn 0.7047098 0.70471066 -0.08226199
vn 0.7704152 0.6322642 -0.08186855
vn 0.7704152 0.6322642 -0.08186855
vn 0.70470977 0.70471054 -0.08226197
vn 0.5536867 0.8286519 -0.08226196
vn 0.5536866 0.82865196 -0.08226196
vn 0.38138565 0.9207486 -0.082261935
vn 0.38138568 0.9207486 -0.08226195
vn 0.1944282 0.9774613 -0.082261905
vn 0.1944282 0.9774613 -0.082261905
vn 0.09768713 0.9918441 -0.081868425
vn 0.09768713 0.9918441 -0.081868425
vn -0.8789614 0.46981308 -0.08186861
vn -0.8789614 0.46981308 -0.08186861
vn -0.9207489 0.38138497 -0.08226208
vn -0.9207489 0.38138497 -0.082262084
vn -0.9774614 0.19442758 -0.08226206
vn -0.9774614 0.19442758 -0.08226207
vn -0.9966107 -1.4611247E-06 -0.08226208
vn -0.9966107 -1.4509426E-06 -0.08226208
vn -0.9918439 -0.097689606 -0.08186864
vn -0.9918439 -0.097689606 -0.08186863
vn -0.4698125 -0.8789617 -0.081868865
vn -0.4698125 -0.8789617 -0.08186886
vn -0.38138458 -0.920749 -0.082262345
vn -0.38138458 -0.920749 -0.08226234
vn -0.19442748 -0.9774614 -0.08226236
vn -0.1944275 -0.9774614 -0.08226237
vn -0.097686775 -0.9918441 -0.08186892
vn -0.097686775 -0.9918441 -0.08186891
vn 0.1865708 -0.94020694 -0.2849599
vn 0.09392273 -0.9543518 -0.2835332
vn 0.09392272 -0.9543518 -0.2835332
vn 0.18653938 -0.94021326 -0.2849599
vn 0.36610347 -0.88568157 -0.28554592
vn 0.36625308 -0.88561946 -0.28554657
vn 0.5320672 -0.79689306 -0.2861222
vn 0.5321292 -0.79685163 -0.28612238
vn 0.6763582 -0.67840487 -0.28689075
vn 0.67633665 -0.6784266 -0.2868905
vn 0.7936169 -0.5351741 -0.2894152
vn 0.79354787 -0.53527766 -0.28941265
vn 0.8790626 -0.37399545 -0.29559475
vn 0.87893045 -0.37431926 -0.295578
vn 0.9347299 -0.1882513 -0.3013992
vn 0.93471354 -0.188334 -0.3013984
vn 0.95648307 0.032692615 -0.2899505
vn 0.95646834 0.02617679 -0.2906599
vn 0.9411581 0.19823688 -0.27372178
vn 0.94035584 0.20234537 -0.27347246
vn 0.8910927 0.36160764 -0.2742148
vn 0.89225173 0.35880658 -0.27412513
vn 0.8442708 0.45952576 -0.27575883
vn 0.8442708 0.45952576 -0.27575883
vn -0.18779281 0.94322336 -0.273977
vn -0.09439476 0.9574228 -0.27282092
vn -0.09439476 0.9574228 -0.27282092
vn -0.18780738 0.9432205 -0.273977
vn -0.36890033 0.88830334 -0.2735504
vn -0.3689269 0.8882923 -0.2735503
vn -0.5357353 0.7992287 -0.27243558
vn -0.5355943 0.79932284 -0.27243686
vn -0.6810084 0.6801352 -0.27137372
vn -0.68092763 0.6802159 -0.27137417
vn -0.74432313 0.61087376 -0.269845
vn -0.74432313 0.61087376 -0.26984504
vn -0.8767534 -0.36380377 -0.3145638
vn -0.908522 -0.275599 -0.31405872
vn -0.908522 -0.275599 -0.31405872
vn -0.87718916 -0.36274254 -0.31457427
vn -0.7893367 -0.528666 -0.3121853
vn -0.7904471 -0.5269852 -0.31221783
vn -0.6784666 -0.66699123 -0.30790535
vn -0.68295443 -0.66230786 -0.30809337
vn -0.6217821 -0.7215331 -0.3045931
vn -0.6217821 -0.72153324 -0.30459306
g FX_MESH_CH0187_Hud_01_0
f 3/3/3 2/2/2 1/1/1
f 1/1/1 4/4/4 3/3/3
f 5/5/5 4/4/4 1/1/1
f 5/5/5 1/1/1 6/6/6
f 7/7/7 5/5/5 6/6/6
f 7/7/7 6/6/6 8/8/8
f 9/9/9 7/7/7 8/8/8
f 9/9/9 8/8/8 10/10/10
f 11/11/11 9/9/9 10/10/10
f 11/11/11 10/10/10 12/12/12
f 15/15/15 14/14/14 13/13/13
f 15/15/15 13/13/13 16/16/16
f 17/17/17 15/15/15 16/16/16
f 17/17/17 16/16/16 18/18/18
f 19/19/19 17/17/17 18/18/18
f 19/19/19 18/18/18 20/20/20
f 19/19/19 20/20/20 21/21/21
f 21/21/21 22/22/22 19/19/19
f 25/25/25 24/24/24 23/23/23
f 25/25/25 23/23/23 26/26/26
f 27/27/27 25/25/25 26/26/26
f 27/27/27 26/26/26 28/28/28
f 29/29/29 27/27/27 28/28/28
f 29/29/29 28/28/28 30/30/30
f 33/33/33 32/32/32 31/31/31
f 31/31/31 34/34/34 33/33/33
f 34/34/34 31/31/31 35/35/35
f 35/35/35 36/36/36 34/34/34
f 36/36/36 35/35/35 37/37/37
f 37/37/37 38/38/38 36/36/36
f 38/38/38 37/37/37 39/39/39
f 39/39/39 40/40/40 38/38/38
f 41/41/41 40/40/40 39/39/39
f 41/41/41 39/39/39 42/42/42
f 43/43/43 41/41/41 42/42/42
f 43/43/43 42/42/42 44/44/44
f 45/45/45 43/43/43 44/44/44
f 45/45/45 44/44/44 46/46/46
f 47/47/47 45/45/45 46/46/46
f 47/47/47 46/46/46 48/48/48
f 47/47/47 48/48/48 49/49/49
f 49/49/49 50/50/50 47/47/47
f 50/50/50 49/49/49 51/51/51
f 51/51/51 52/52/52 50/50/50
f 52/52/52 51/51/51 53/53/53
f 53/53/53 54/54/54 52/52/52
f 57/57/57 56/56/56 55/55/55
f 55/55/55 58/58/58 57/57/57
f 58/58/58 55/55/55 59/59/59
f 59/59/59 60/60/60 58/58/58
f 60/60/60 59/59/59 61/61/61
f 61/61/61 62/62/62 60/60/60
f 62/62/62 61/61/61 63/63/63
f 63/63/63 64/64/64 62/62/62
f 65/65/65 64/64/64 63/63/63
f 65/65/65 63/63/63 66/66/66
f 69/69/69 68/68/68 67/67/67
f 67/67/67 70/70/70 69/69/69
f 70/70/70 67/67/67 71/71/71
f 71/71/71 72/72/72 70/70/70
f 72/72/72 71/71/71 73/73/73
f 73/73/73 74/74/74 72/72/72
f 75/75/75 74/74/74 73/73/73
f 75/75/75 73/73/73 76/76/76
