g FX_MESH_CH0187_Circle_Ring_01
v -0.27778512 -9.0513886E-08 0.41573477
v -0.19134171 -6.234705E-08 0.46193972
v -0.18766513 -0.037328996 0.46193972
v -0.27244756 -0.0541933 0.41573477
v -0.25663993 -0.10630389 0.41573477
v -0.17677665 -0.07322339 0.46193972
v -0.15909477 -0.10630386 0.46193972
v -0.34675992 -0.06897499 0.35355338
v -0.35355338 -1.1520232E-07 0.35355338
v -0.32664067 -0.13529918 0.35355338
v -0.42352635 -0.08424481 0.2777851
v -0.43182376 -1.466112E-07 0.2777851
v -0.5 -1.6292067E-07 3.774895E-08
v -0.4903926 -0.09754536 3.774895E-08
v -0.39895305 -0.16525197 0.2777851
v -0.46193966 -0.19134194 3.774895E-08
v -0.2309698 -0.15432927 0.41573477
v -0.2939688 -0.1964239 0.35355338
v -0.3590482 -0.23990864 0.2777851
v -0.41573462 -0.27778536 3.774895E-08
v -0.19642362 -0.19642387 0.41573477
v -0.13529895 -0.13529912 0.46193972
v -0.24999984 -0.25000018 0.35355338
v -0.30534533 -0.3053457 0.2777851
v -0.35355315 -0.35355362 3.774895E-08
v -0.27778482 -0.415735 3.774895E-08
v -0.23990817 -0.3590485 0.2777851
v -0.19134134 -0.4619399 3.774895E-08
v -0.15432899 -0.23097 0.41573477
v -0.106303655 -0.1590949 0.46193972
v -0.073223166 -0.17677677 0.46193972
v -0.19642353 -0.29396904 0.35355338
v -0.16525146 -0.3989533 0.2777851
v -0.09754472 -0.4903927 3.774895E-08
v -0.10630356 -0.25664008 0.41573477
v -0.13529876 -0.32664084 0.35355338
v -0.08424426 -0.42352644 0.2777851
v 4.827996E-07 -0.5 3.774895E-08
v -0.054192953 -0.2724476 0.41573477
v -0.037328754 -0.18766518 0.46193972
v 1.847594E-07 -0.19134171 0.46193972
v -0.06897454 -0.34676 0.35355338
v 2.682291E-07 -0.27778512 0.41573477
v 3.4139083E-07 -0.35355338 0.35355338
v 4.146614E-07 -0.43182376 0.2777851
v 0.08424508 -0.4235263 0.2777851
v 0.09754567 -0.49039254 3.774895E-08
v 0.054193478 -0.2724475 0.41573477
v 0.037329115 -0.18766509 0.46193972
v 0.0732235 -0.17677662 0.46193972
v 0.06897521 -0.34675986 0.35355338
v 0.16525224 -0.39895293 0.2777851
v 0.19134223 -0.46193954 3.774895E-08
v 0.10630405 -0.25663987 0.41573477
v 0.13529938 -0.32664058 0.35355338
v 0.15432943 -0.23096971 0.41573477
v 0.10630396 -0.15909469 0.46193972
v 0.23990886 -0.35904804 0.2777851
v 0.27778563 -0.41573447 3.774895E-08
v 0.3053459 -0.30534512 0.2777851
v 0.35355383 -0.35355294 3.774895E-08
v 0.41573516 -0.27778456 3.774895E-08
v 0.1964241 -0.29396865 0.35355338
v 0.19642398 -0.19642349 0.41573477
v 0.13529919 -0.13529885 0.46193972
v 0.15909497 -0.10630354 0.46193972
v 0.2500003 -0.24999967 0.35355338
v 0.35904863 -0.23990795 0.2777851
v 0.46194002 -0.19134103 3.774895E-08
v 0.23097008 -0.15432884 0.41573477
v 0.29396915 -0.19642334 0.35355338
v 0.39895335 -0.16525121 0.2777851
v 0.49039274 -0.09754441 3.774895E-08
v 0.25664014 -0.106303394 0.41573477
v 0.17677681 -0.07322305 0.46193972
v 0.32664093 -0.13529855 0.35355338
v 0.4235265 -0.08424399 0.2777851
v 0.5 8.026785E-07 3.774895E-08
v 0.27244765 -0.05419277 0.41573477
v 0.1876652 -0.03732863 0.46193972
v 0.19134171 3.0717177E-07 0.46193972
v 0.34676006 -0.06897431 0.35355338
v 0.27778512 4.459443E-07 0.41573477
v 0.35355338 5.6757943E-07 0.35355338
v 0.43182376 6.873262E-07 0.2777851
v 0.42352626 0.08424534 0.2777851
v 0.49039248 0.09754598 3.774895E-08
v 0.27244747 0.05419365 0.41573477
v 0.18766508 0.037329234 0.46193972
v 0.17677657 0.07322362 0.46193972
v 0.34675983 0.068975426 0.35355338
v 0.3989528 0.16525249 0.2777851
v 0.46193942 0.19134252 3.774895E-08
v 0.2566398 0.10630421 0.41573477
v 0.32664052 0.13529961 0.35355338
v 0.3590479 0.2399091 0.2777851
v 0.4157343 0.2777859 3.774895E-08
v 0.3053449 0.30534607 0.2777851
v 0.3535527 0.35355407 3.774895E-08
v 0.2777843 0.41573536 3.774895E-08
v 0.29396853 0.19642429 0.35355338
v 0.2309696 0.15432958 0.41573477
v 0.15909463 0.106304064 0.46193972
v 0.2499995 0.25000048 0.35355338
v 0.19642335 0.19642411 0.41573477
v 0.13529876 0.1352993 0.46193972
v 0.10630345 0.15909503 0.46193972
v 0.15432869 0.2309702 0.41573477
v 0.07322294 0.17677684 0.46193972
v 0.19642314 0.29396927 0.35355338
v 0.10630323 0.25664023 0.41573477
v 0.037328508 0.18766522 0.46193972
v 0.2399077 0.35904884 0.2777851
v 0.19134074 0.46194014 3.774895E-08
v 0.13529834 0.32664102 0.35355338
v 0.16525097 0.39895347 0.2777851
v 0.0975441 0.49039286 3.774895E-08
v 0.084243715 0.42352656 0.2777851
v -2.1855694E-08 0.5 3.774895E-08
v -2.1182858E-08 0.43182376 0.2777851
v -1.5454308E-08 0.35355338 0.35355338
v 0.06897409 0.3467601 0.35355338
v -1.2142373E-08 0.27778512 0.41573477
v -8.363812E-09 0.19134171 0.46193972
v 0.0541926 0.27244768 0.41573477
vt 0.2508425 1.0004399
vt 0.0012601018 1.0004399
vt 0.0012601018 0.95880866
vt 0.2508425 0.95880866
vt 0.2508425 0.91717744
vt 0.0012601018 0.9171774
vt 0.0012601018 0.87554616
vt 0.5004249 0.95880866
vt 0.5004249 1.0004399
vt 0.5004249 0.91717744
vt 0.7500074 0.95880866
vt 0.7500074 1.0004399
vt 0.9995898 1.0004399
vt 0.9995898 0.95880866
vt 0.7500074 0.91717744
vt 0.9995898 0.91717744
vt 0.2508425 0.8755462
vt 0.5004249 0.8755462
vt 0.7500074 0.8755462
vt 0.9995898 0.8755462
vt 0.2508425 0.83391494
vt 0.0012601018 0.83391494
vt 0.5004249 0.83391494
vt 0.7500074 0.83391494
vt 0.9995898 0.833915
vt 0.9995898 0.7922837
vt 0.7500074 0.7922837
vt 0.9995898 0.7506525
vt 0.2508425 0.79228365
vt 0.0012601018 0.79228365
vt 0.0012601018 0.75065243
vt 0.5004249 0.7922837
vt 0.7500074 0.7506525
vt 0.9995898 0.7090212
vt 0.2508425 0.75065243
vt 0.5004249 0.75065243
vt 0.7500074 0.7090212
vt 0.9995898 0.6673899
vt 0.2508425 0.7090212
vt 0.0012601018 0.7090212
vt 0.0012601018 0.66738987
vt 0.5004249 0.7090212
vt 0.2508425 0.66738987
vt 0.5004249 0.66738987
vt 0.7500074 0.6673899
vt 0.7500074 0.6257586
vt 0.9995898 0.6257586
vt 0.2508425 0.6257585
vt 0.0012601018 0.6257585
vt 0.0012601018 0.5841273
vt 0.5004249 0.6257585
vt 0.7500074 0.58412737
vt 0.9995898 0.58412737
vt 0.2508425 0.5841273
vt 0.5004249 0.5841273
vt 0.2508425 0.5424961
vt 0.0012601018 0.5424961
vt 0.7500074 0.5424961
vt 0.9995898 0.5424961
vt 0.7500074 0.50086486
vt 0.9995898 0.50086486
vt 0.9995898 0.45923358
vt 0.5004249 0.5424961
vt 0.2508425 0.5008648
vt 0.0012601018 0.5008648
vt 0.0012601018 0.45923352
vt 0.5004249 0.50086486
vt 0.7500074 0.45923358
vt 0.9995898 0.41760236
vt 0.2508425 0.45923352
vt 0.5004249 0.45923358
vt 0.7500074 0.41760236
vt 0.9995898 0.37597114
vt 0.2508425 0.4176023
vt 0.0012601018 0.4176023
vt 0.5004249 0.41760236
vt 0.7500074 0.37597114
vt 0.9995898 0.33433986
vt 0.2508425 0.37597108
vt 0.0012601018 0.37597108
vt 0.0012601018 0.3343398
vt 0.5004249 0.37597114
vt 0.2508425 0.3343398
vt 0.5004249 0.33433986
vt 0.7500074 0.33433986
vt 0.7500074 0.29270864
vt 0.9995898 0.29270864
vt 0.25084257 0.29270858
vt 0.0012601018 0.29270858
vt 0.0012601018 0.25107735
vt 0.500425 0.29270864
vt 0.7500074 0.2510774
vt 0.9995898 0.2510774
vt 0.25084257 0.25107735
vt 0.500425 0.2510774
vt 0.7500074 0.20944619
vt 0.9995898 0.20944619
vt 0.7500074 0.16781485
vt 0.9995898 0.16781485
vt 0.9995898 0.12618363
vt 0.500425 0.20944619
vt 0.25084257 0.20944613
vt 0.0012601018 0.20944613
vt 0.500425 0.16781485
vt 0.25084257 0.16781479
vt 0.0012601018 0.16781479
vt 0.0012601018 0.12618357
vt 0.25084257 0.12618357
vt 0.0012601018 0.08455235
vt 0.500425 0.12618363
vt 0.25084257 0.08455235
vt 0.0012601018 0.042921126
vt 0.7500074 0.12618363
vt 0.9995898 0.08455241
vt 0.500425 0.08455241
vt 0.7500074 0.08455241
vt 0.9995898 0.042921185
vt 0.7500074 0.042921185
vt 0.9995898 0.0012899637
vt 0.7500074 0.0012899637
vt 0.500425 0.0012899637
vt 0.500425 0.042921185
vt 0.25084257 0.0012899637
vt 0.0012601018 0.0012899637
vt 0.25084257 0.042921126
vn -0.55892617 -0.055049643 0.82738805
vn -0.47088945 -0.046378676 0.88097227
vn -0.46233886 -0.091965154 0.8819213
vn -0.5490191 -0.10920696 0.82864463
vn -0.5171646 -0.21421684 0.82864463
vn -0.43551356 -0.1803959 0.8819213
vn -0.39195192 -0.2618941 0.8819213
vn -0.65412474 -0.13011383 0.7451115
vn -0.66550565 -0.06554696 0.7435091
vn -0.6161721 -0.2552271 0.7451115
vn -0.854661 -0.1700031 0.49056447
vn -0.8682131 -0.085511975 0.48876756
vn -0.96676564 -0.09521851 0.2372714
vn -0.9525173 -0.18946795 0.2383544
vn -0.805073 -0.3334726 0.4905644
vn -0.8972515 -0.3716543 0.23835436
vn -0.46543574 -0.31099454 0.8286447
vn -0.55454004 -0.37053216 0.7451115
vn -0.72454655 -0.48412699 0.49056435
vn -0.8075049 -0.53955805 0.23835433
vn -0.39582044 -0.395821 0.8286447
vn -0.3333275 -0.33332795 0.8819213
vn -0.47159728 -0.471598 0.7451116
vn -0.6161759 -0.6161767 0.4905644
vn -0.68672633 -0.68672717 0.23835436
vn -0.5395573 -0.8075056 0.2383544
vn -0.4841261 -0.724547 0.49056447
vn -0.37165302 -0.89725196 0.23835434
vn -0.310994 -0.46543613 0.8286447
vn -0.2618937 -0.39195216 0.8819213
vn -0.18039529 -0.43551382 0.8819213
vn -0.37053153 -0.5545405 0.7451116
vn -0.33347154 -0.8050735 0.49056447
vn -0.18946661 -0.95251745 0.23835436
vn -0.2142162 -0.5171648 0.82864463
vn -0.2552263 -0.61617225 0.7451115
vn -0.1700019 -0.8546613 0.49056447
vn 9.093151E-07 -0.9711783 0.23835438
vn -0.109206155 -0.5490192 0.8286447
vn -0.09196444 -0.4623389 0.8819213
vn 4.4328212E-07 -0.4713966 0.8819213
vn -0.1301129 -0.6541249 0.7451116
vn 5.4483144E-07 -0.559775 0.82864463
vn 6.588335E-07 -0.66693985 0.7451115
vn 8.322226E-07 -0.8714049 0.49056447
vn 0.1700036 -0.8546609 0.49056447
vn 0.18946853 -0.95251715 0.23835434
vn 0.10920727 -0.549019 0.82864463
vn 0.0919654 -0.46233875 0.8819214
vn 0.18039615 -0.43551347 0.8819214
vn 0.13011421 -0.6541246 0.7451115
vn 0.33347312 -0.8050728 0.4905644
vn 0.3716548 -0.8972513 0.23835438
vn 0.2142172 -0.5171644 0.8286447
vn 0.25522754 -0.6161719 0.74511147
vn 0.31099498 -0.46543545 0.82864463
vn 0.26189443 -0.39195156 0.8819213
vn 0.4841275 -0.72454613 0.4905644
vn 0.53955877 -0.80750453 0.23835441
vn 0.61617714 -0.61617553 0.49056447
vn 0.6867277 -0.6867258 0.2383544
vn 0.8075059 -0.53955656 0.23835437
vn 0.3705327 -0.5545398 0.7451115
vn 0.39582127 -0.39582017 0.8286447
vn 0.3333282 -0.33332726 0.8819213
vn 0.39195228 -0.26189345 0.8819213
vn 0.4715983 -0.47159708 0.7451116
vn 0.7245474 -0.4841256 0.49056444
vn 0.89725226 -0.37165245 0.23835437
vn 0.46543634 -0.31099373 0.82864463
vn 0.5545407 -0.3705312 0.7451115
vn 0.8050737 -0.33347097 0.4905644
vn 0.95251757 -0.1894661 0.23835436
vn 0.517165 -0.21421587 0.8286447
vn 0.43551394 -0.18039502 0.8819213
vn 0.61617255 -0.25522593 0.74511147
vn 0.85466135 -0.17000145 0.4905644
vn 0.9711783 1.3397886E-06 0.23835438
vn 0.5490193 -0.10920585 0.82864463
vn 0.462339 -0.091964215 0.8819213
vn 0.4713966 7.358032E-07 0.8819213
vn 0.6541249 -0.13011256 0.7451116
vn 0.55977505 8.944815E-07 0.82864463
vn 0.66694 1.0329271E-06 0.74511147
vn 0.871405 1.2370199E-06 0.49056447
vn 0.8546608 0.17000416 0.49056447
vn 0.9525169 0.18946914 0.2383544
vn 0.549019 0.10920761 0.82864463
vn 0.46233875 0.09196569 0.8819213
vn 0.4355134 0.18039645 0.8819213
vn 0.65412456 0.13011464 0.7451116
vn 0.80507255 0.33347365 0.4905644
vn 0.897251 0.37165552 0.23835438
vn 0.5171643 0.21421748 0.82864463
vn 0.61617166 0.25522786 0.7451115
vn 0.7245458 0.48412797 0.49056438
vn 0.8075043 0.53955925 0.23835441
vn 0.6161751 0.61617744 0.49056447
vn 0.6867253 0.686728 0.23835438
vn 0.5395561 0.8075063 0.23835434
vn 0.5545395 0.37053302 0.7451115
vn 0.46543533 0.31099522 0.8286447
vn 0.39195144 0.26189467 0.8819213
vn 0.47159675 0.47159857 0.7451116
vn 0.39582 0.39582148 0.82864463
vn 0.3333271 0.3333283 0.8819213
vn 0.26189318 0.3919524 0.8819213
vn 0.31099352 0.4654365 0.82864463
vn 0.18039474 0.435514 0.8819213
vn 0.3705309 0.55454093 0.7451116
vn 0.21421553 0.5171651 0.8286447
vn 0.09196418 0.462339 0.8819213
vn 0.4841252 0.7245476 0.49056444
vn 0.3716519 0.89725244 0.23835434
vn 0.25522548 0.6161726 0.7451115
vn 0.3334705 0.80507386 0.49056438
vn 0.18946597 0.9525177 0.23835441
vn 0.17000128 0.85466135 0.4905645
vn 0.09521694 0.96676576 0.23727141
vn 0.08551055 0.8682132 0.4887677
vn 0.0655459 0.66550565 0.74350923
vn 0.13011242 0.65412503 0.7451116
vn 0.055048812 0.55892617 0.82738817
vn 0.046378016 0.47088948 0.8809723
vn 0.10920576 0.5490193 0.8286447
g FX_MESH_CH0187_Circle_Ring_01_0
f 3/3/3 2/2/2 1/1/1
f 1/1/1 4/4/4 3/3/3
f 3/3/3 4/4/4 5/5/5
f 5/5/5 6/6/6 3/3/3
f 7/7/7 6/6/6 5/5/5
f 8/8/8 4/4/4 1/1/1
f 8/8/8 1/1/1 9/9/9
f 10/10/10 5/5/5 4/4/4
f 4/4/4 8/8/8 10/10/10
f 11/11/11 8/8/8 9/9/9
f 10/10/10 8/8/8 11/11/11
f 11/11/11 9/9/9 12/12/12
f 11/11/11 12/12/12 13/13/13
f 13/13/13 14/14/14 11/11/11
f 15/15/15 11/11/11 14/14/14
f 11/11/11 15/15/15 10/10/10
f 14/14/14 16/16/16 15/15/15
f 5/5/5 17/17/17 7/7/7
f 17/17/17 5/5/5 10/10/10
f 18/18/18 10/10/10 15/15/15
f 10/10/10 18/18/18 17/17/17
f 19/19/19 15/15/15 16/16/16
f 15/15/15 19/19/19 18/18/18
f 16/16/16 20/20/20 19/19/19
f 7/7/7 17/17/17 21/21/21
f 21/21/21 17/17/17 18/18/18
f 21/21/21 22/22/22 7/7/7
f 23/23/23 18/18/18 19/19/19
f 18/18/18 23/23/23 21/21/21
f 24/24/24 19/19/19 20/20/20
f 19/19/19 24/24/24 23/23/23
f 20/20/20 25/25/25 24/24/24
f 25/25/25 26/26/26 24/24/24
f 27/27/27 24/24/24 26/26/26
f 23/23/23 24/24/24 27/27/27
f 26/26/26 28/28/28 27/27/27
f 22/22/22 21/21/21 29/29/29
f 30/30/30 22/22/22 29/29/29
f 31/31/31 30/30/30 29/29/29
f 21/21/21 23/23/23 32/32/32
f 32/32/32 29/29/29 21/21/21
f 27/27/27 32/32/32 23/23/23
f 33/33/33 27/27/27 28/28/28
f 28/28/28 34/34/34 33/33/33
f 29/29/29 35/35/35 31/31/31
f 35/35/35 29/29/29 32/32/32
f 36/36/36 32/32/32 27/27/27
f 27/27/27 33/33/33 36/36/36
f 32/32/32 36/36/36 35/35/35
f 37/37/37 33/33/33 34/34/34
f 33/33/33 37/37/37 36/36/36
f 34/34/34 38/38/38 37/37/37
f 35/35/35 39/39/39 31/31/31
f 40/40/40 31/31/31 39/39/39
f 41/41/41 40/40/40 39/39/39
f 36/36/36 42/42/42 35/35/35
f 39/39/39 35/35/35 42/42/42
f 42/42/42 36/36/36 37/37/37
f 39/39/39 43/43/43 41/41/41
f 43/43/43 39/39/39 42/42/42
f 44/44/44 42/42/42 37/37/37
f 42/42/42 44/44/44 43/43/43
f 45/45/45 37/37/37 38/38/38
f 37/37/37 45/45/45 44/44/44
f 46/46/46 45/45/45 38/38/38
f 45/45/45 46/46/46 44/44/44
f 38/38/38 47/47/47 46/46/46
f 43/43/43 48/48/48 41/41/41
f 48/48/48 49/49/49 41/41/41
f 50/50/50 49/49/49 48/48/48
f 44/44/44 51/51/51 43/43/43
f 51/51/51 48/48/48 43/43/43
f 46/46/46 51/51/51 44/44/44
f 52/52/52 46/46/46 47/47/47
f 47/47/47 53/53/53 52/52/52
f 48/48/48 54/54/54 50/50/50
f 54/54/54 48/48/48 51/51/51
f 55/55/55 51/51/51 46/46/46
f 51/51/51 55/55/55 54/54/54
f 46/46/46 52/52/52 55/55/55
f 54/54/54 56/56/56 50/50/50
f 56/56/56 54/54/54 55/55/55
f 56/56/56 57/57/57 50/50/50
f 58/58/58 52/52/52 53/53/53
f 53/53/53 59/59/59 58/58/58
f 60/60/60 58/58/58 59/59/59
f 59/59/59 61/61/61 60/60/60
f 61/61/61 62/62/62 60/60/60
f 63/63/63 55/55/55 52/52/52
f 52/52/52 58/58/58 63/63/63
f 55/55/55 63/63/63 56/56/56
f 63/63/63 58/58/58 60/60/60
f 57/57/57 56/56/56 64/64/64
f 64/64/64 65/65/65 57/57/57
f 66/66/66 65/65/65 64/64/64
f 56/56/56 63/63/63 67/67/67
f 67/67/67 64/64/64 56/56/56
f 60/60/60 67/67/67 63/63/63
f 68/68/68 60/60/60 62/62/62
f 62/62/62 69/69/69 68/68/68
f 64/64/64 70/70/70 66/66/66
f 70/70/70 64/64/64 67/67/67
f 71/71/71 67/67/67 60/60/60
f 60/60/60 68/68/68 71/71/71
f 67/67/67 71/71/71 70/70/70
f 72/72/72 68/68/68 69/69/69
f 71/71/71 68/68/68 72/72/72
f 69/69/69 73/73/73 72/72/72
f 66/66/66 70/70/70 74/74/74
f 74/74/74 70/70/70 71/71/71
f 74/74/74 75/75/75 66/66/66
f 72/72/72 76/76/76 71/71/71
f 71/71/71 76/76/76 74/74/74
f 77/77/77 72/72/72 73/73/73
f 76/76/76 72/72/72 77/77/77
f 73/73/73 78/78/78 77/77/77
f 75/75/75 74/74/74 79/79/79
f 79/79/79 80/80/80 75/75/75
f 81/81/81 80/80/80 79/79/79
f 74/74/74 76/76/76 82/82/82
f 82/82/82 79/79/79 74/74/74
f 77/77/77 82/82/82 76/76/76
f 79/79/79 83/83/83 81/81/81
f 83/83/83 79/79/79 82/82/82
f 84/84/84 82/82/82 77/77/77
f 82/82/82 84/84/84 83/83/83
f 85/85/85 77/77/77 78/78/78
f 77/77/77 85/85/85 84/84/84
f 86/86/86 85/85/85 78/78/78
f 84/84/84 85/85/85 86/86/86
f 78/78/78 87/87/87 86/86/86
f 81/81/81 83/83/83 88/88/88
f 89/89/89 81/81/81 88/88/88
f 90/90/90 89/89/89 88/88/88
f 83/83/83 84/84/84 91/91/91
f 91/91/91 84/84/84 86/86/86
f 88/88/88 83/83/83 91/91/91
f 92/92/92 86/86/86 87/87/87
f 86/86/86 92/92/92 91/91/91
f 87/87/87 93/93/93 92/92/92
f 88/88/88 94/94/94 90/90/90
f 94/94/94 88/88/88 91/91/91
f 91/91/91 92/92/92 95/95/95
f 91/91/91 95/95/95 94/94/94
f 96/96/96 92/92/92 93/93/93
f 93/93/93 97/97/97 96/96/96
f 98/98/98 96/96/96 97/97/97
f 97/97/97 99/99/99 98/98/98
f 99/99/99 100/100/100 98/98/98
f 101/101/101 95/95/95 92/92/92
f 92/92/92 96/96/96 101/101/101
f 95/95/95 101/101/101 94/94/94
f 96/96/96 98/98/98 101/101/101
f 94/94/94 102/102/102 90/90/90
f 94/94/94 101/101/101 102/102/102
f 103/103/103 90/90/90 102/102/102
f 101/101/101 104/104/104 102/102/102
f 98/98/98 104/104/104 101/101/101
f 102/102/102 105/105/105 103/103/103
f 104/104/104 105/105/105 102/102/102
f 105/105/105 106/106/106 103/103/103
f 107/107/107 106/106/106 105/105/105
f 105/105/105 108/108/108 107/107/107
f 108/108/108 105/105/105 104/104/104
f 109/109/109 107/107/107 108/108/108
f 110/110/110 104/104/104 98/98/98
f 104/104/104 110/110/110 108/108/108
f 108/108/108 111/111/111 109/109/109
f 111/111/111 108/108/108 110/110/110
f 112/112/112 109/109/109 111/111/111
f 98/98/98 113/113/113 110/110/110
f 113/113/113 98/98/98 100/100/100
f 100/100/100 114/114/114 113/113/113
f 115/115/115 110/110/110 113/113/113
f 110/110/110 115/115/115 111/111/111
f 116/116/116 113/113/113 114/114/114
f 113/113/113 116/116/116 115/115/115
f 114/114/114 117/117/117 116/116/116
f 118/118/118 116/116/116 117/117/117
f 115/115/115 116/116/116 118/118/118
f 117/117/117 119/119/119 118/118/118
f 120/120/120 118/118/118 119/119/119
f 118/118/118 120/120/120 121/121/121
f 118/118/118 122/122/122 115/115/115
f 121/121/121 122/122/122 118/118/118
f 111/111/111 115/115/115 122/122/122
f 122/122/122 121/121/121 123/123/123
f 123/123/123 124/124/124 112/112/112
f 111/111/111 125/125/125 112/112/112
f 122/122/122 125/125/125 111/111/111
f 112/112/112 125/125/125 123/123/123
f 123/123/123 125/125/125 122/122/122
