g FX_MESH_CH0187_Hud_02
v -0.09011997 0.4530637 0.1913417
v -2.0192026E-08 0.46193972 0.1913417
v -2.5700116E-08 0.5056953 3.7748954E-08
v -0.09865626 0.49597844 3.7748954E-08
v -0.17677668 0.42677668 0.1913417
v -0.19352122 0.46720156 3.7748954E-08
v -0.25663993 0.38408884 0.1913417
v -0.28094923 0.42047036 3.7748954E-08
v -0.3266407 0.3266407 0.1913417
v -0.35758057 0.35758057 3.7748954E-08
v -0.42047027 0.28094918 3.7748954E-08
v -0.38408884 0.25663993 0.1913417
v -0.46720156 0.19352111 3.7748954E-08
v -0.42677668 0.17677662 0.1913417
v -0.49597844 0.09865614 3.7748954E-08
v -0.4530637 0.09011985 0.1913417
v -0.5056953 -1.6568221E-07 3.7748954E-08
v -0.46193972 -1.5051907E-07 0.1913417
v -0.45306364 -0.09012016 0.1913417
v -0.49597844 -0.09865646 3.7748954E-08
v -0.42677656 -0.17677689 0.1913417
v -0.46720132 -0.19352143 3.7748954E-08
v -0.3840887 -0.25664017 0.1913417
v -0.4204701 -0.2809495 3.7748954E-08
v -0.32664052 -0.32664093 0.1913417
v -0.35758033 -0.35758078 3.7748954E-08
v -0.28094897 -0.42047042 3.7748954E-08
v -0.2566397 -0.38408905 0.1913417
v -0.19352084 -0.4672016 3.7748954E-08
v -0.17677633 -0.4267768 0.1913417
v -0.09865581 -0.49597856 3.7748954E-08
v -0.09011957 -0.45306376 0.1913417
v 4.8470355E-07 -0.5056953 3.7748954E-08
v 4.460486E-07 -0.46193972 0.1913417
v 0.09012045 -0.45306358 0.1913417
v 0.09865676 -0.4959784 3.7748954E-08
v 0.17677715 -0.42677647 0.1913417
v 0.19352174 -0.46720123 3.7748954E-08
v 0.25664043 -0.38408855 0.1913417
v 0.28094974 -0.42046985 3.7748954E-08
v 0.3266411 -0.3266403 0.1913417
v 0.357581 -0.35758007 3.7748954E-08
v 0.4204706 -0.28094867 3.7748954E-08
v 0.3840892 -0.25663945 0.1913417
v 0.46720183 -0.1935205 3.7748954E-08
v 0.42677692 -0.17677607 0.1913417
v 0.49597856 -0.09865551 3.7748954E-08
v 0.45306382 -0.09011927 0.1913417
v 0.5056953 8.109159E-07 3.7748954E-08
v 0.46193972 7.4157816E-07 0.1913417
v 0.45306355 0.09012073 0.1913417
v 0.49597836 0.098657094 3.7748954E-08
v 0.42677635 0.17677744 0.1913417
v 0.46720117 0.193522 3.7748954E-08
v 0.38408837 0.25664067 0.1913417
v 0.4204697 0.28095 3.7748954E-08
v 0.32664007 0.32664135 0.1913417
v 0.35757983 0.3575813 3.7748954E-08
v 0.2809484 0.42047086 3.7748954E-08
v 0.25663918 0.38408935 0.1913417
v 0.19352022 0.46720195 3.7748954E-08
v 0.1767758 0.42677703 0.1913417
v 0.098655164 0.4959787 3.7748954E-08
v 0.09011899 0.45306388 0.1913417
v -2.5700116E-08 0.5056953 3.7748954E-08
v -2.0192026E-08 0.46193972 0.1913417
vt 0.03125 0.625
vt 0 0.625
vt 0 0.5
vt 0.03125 0.5
vt 0.0625 0.625
vt 0.0625 0.5
vt 0.09375 0.625
vt 0.09375 0.5
vt 0.125 0.625
vt 0.125 0.5
vt 0.15625 0.5
vt 0.15625 0.625
vt 0.1875 0.5
vt 0.1875 0.625
vt 0.21874999 0.5
vt 0.21874999 0.625
vt 0.24999999 0.5
vt 0.24999999 0.625
vt 0.28124997 0.625
vt 0.28124997 0.5
vt 0.31249997 0.625
vt 0.31249997 0.5
vt 0.34374997 0.625
vt 0.34374997 0.5
vt 0.375 0.625
vt 0.375 0.5
vt 0.40625 0.5
vt 0.40625 0.625
vt 0.4375 0.5
vt 0.4375 0.625
vt 0.46875003 0.5
vt 0.46875003 0.625
vt 0.50000006 0.5
vt 0.50000006 0.625
vt 0.53125006 0.625
vt 0.53125006 0.5
vt 0.56250006 0.625
vt 0.56250006 0.5
vt 0.59375006 0.625
vt 0.59375006 0.5
vt 0.62500006 0.625
vt 0.62500006 0.5
vt 0.6562501 0.5
vt 0.6562501 0.625
vt 0.6875001 0.5
vt 0.6875001 0.625
vt 0.7187501 0.5
vt 0.7187501 0.625
vt 0.7500001 0.5
vt 0.7500001 0.625
vt 0.7812501 0.625
vt 0.7812501 0.5
vt 0.8125002 0.625
vt 0.8125002 0.5
vt 0.8437502 0.625
vt 0.8437502 0.5
vt 0.8750002 0.625
vt 0.8750002 0.5
vt 0.9062502 0.5
vt 0.9062502 0.625
vt 0.9375002 0.5
vt 0.9375002 0.625
vt 0.96875024 0.5
vt 0.96875024 0.625
vt 1.0000002 0.5
vt 1.0000002 0.625
vn 0.19018096 -0.9561049 -0.22292316
vn 6.9554386E-07 -0.974836 -0.22292322
vn 6.765111E-07 -0.974836 -0.22292319
vn 0.19018099 -0.9561049 -0.22292316
vn 0.37305337 -0.900631 -0.22292326
vn 0.3730534 -0.900631 -0.2229233
vn 0.5415901 -0.81054634 -0.22292337
vn 0.54159003 -0.8105464 -0.22292338
vn 0.6893133 -0.689313 -0.22292328
vn 0.6893133 -0.68931305 -0.22292332
vn 0.81054646 -0.5415899 -0.22292317
vn 0.81054646 -0.5415899 -0.22292316
vn 0.9006311 -0.37305337 -0.22292316
vn 0.9006311 -0.37305337 -0.22292313
vn 0.9561049 -0.19018076 -0.22292306
vn 0.9561049 -0.19018075 -0.22292306
vn 0.974836 1.01476665E-07 -0.22292309
vn 0.974836 0 -0.22292309
vn 0.95610476 0.19018166 -0.2229231
vn 0.95610476 0.19018166 -0.22292307
vn 0.90063095 0.37305415 -0.22292298
vn 0.90063083 0.37305415 -0.22292295
vn 0.8105464 0.5415902 -0.22292307
vn 0.8105464 0.54159015 -0.22292309
vn 0.68931264 0.68931365 -0.22292313
vn 0.68931264 0.68931365 -0.22292313
vn 0.54158926 0.810547 -0.22292301
vn 0.5415892 0.810547 -0.22292301
vn 0.37305298 0.9006314 -0.22292298
vn 0.37305295 0.9006314 -0.22292298
vn 0.19018033 0.956105 -0.22292309
vn 0.19018035 0.956105 -0.22292309
vn -9.906054E-07 0.974836 -0.2229231
vn -9.869202E-07 0.974836 -0.22292311
vn -0.19018224 0.95610464 -0.2229231
vn -0.1901822 0.95610464 -0.2229231
vn -0.37305468 0.90063065 -0.22292294
vn -0.3730547 0.90063065 -0.22292294
vn -0.54159087 0.8105459 -0.22292285
vn -0.5415908 0.810546 -0.22292283
vn -0.689314 0.6893124 -0.2229229
vn -0.689314 0.6893124 -0.2229229
vn -0.8105472 0.54158896 -0.22292304
vn -0.8105472 0.541589 -0.22292309
vn -0.9006317 0.37305215 -0.22292314
vn -0.9006316 0.37305218 -0.22292311
vn -0.9561051 0.19017953 -0.22292307
vn -0.9561051 0.19017948 -0.22292306
vn -0.974836 -1.2757066E-06 -0.22292304
vn -0.974836 -1.2735973E-06 -0.22292306
vn -0.9561046 -0.19018263 -0.22292319
vn -0.9561046 -0.19018263 -0.22292319
vn -0.90063035 -0.37305537 -0.22292316
vn -0.90063024 -0.37305537 -0.22292313
vn -0.8105455 -0.54159135 -0.22292304
vn -0.8105455 -0.5415914 -0.22292304
vn -0.6893119 -0.68931437 -0.22292317
vn -0.6893119 -0.6893144 -0.22292317
vn -0.54158825 -0.81054765 -0.22292331
vn -0.5415882 -0.8105476 -0.22292332
vn -0.37305164 -0.9006318 -0.2229233
vn -0.37305164 -0.9006318 -0.2229233
vn -0.19017947 -0.9561051 -0.22292323
vn -0.1901795 -0.9561051 -0.22292326
vn 6.765111E-07 -0.974836 -0.22292319
vn 6.9554386E-07 -0.974836 -0.22292322
g FX_MESH_CH0187_Hud_02_0
f 3/3/3 2/2/2 1/1/1
f 1/1/1 4/4/4 3/3/3
f 4/4/4 1/1/1 5/5/5
f 5/5/5 6/6/6 4/4/4
f 6/6/6 5/5/5 7/7/7
f 7/7/7 8/8/8 6/6/6
f 8/8/8 7/7/7 9/9/9
f 9/9/9 10/10/10 8/8/8
f 11/11/11 10/10/10 9/9/9
f 11/11/11 9/9/9 12/12/12
f 13/13/13 11/11/11 12/12/12
f 13/13/13 12/12/12 14/14/14
f 15/15/15 13/13/13 14/14/14
f 15/15/15 14/14/14 16/16/16
f 17/17/17 15/15/15 16/16/16
f 17/17/17 16/16/16 18/18/18
f 17/17/17 18/18/18 19/19/19
f 19/19/19 20/20/20 17/17/17
f 20/20/20 19/19/19 21/21/21
f 21/21/21 22/22/22 20/20/20
f 22/22/22 21/21/21 23/23/23
f 23/23/23 24/24/24 22/22/22
f 24/24/24 23/23/23 25/25/25
f 25/25/25 26/26/26 24/24/24
f 27/27/27 26/26/26 25/25/25
f 27/27/27 25/25/25 28/28/28
f 29/29/29 27/27/27 28/28/28
f 29/29/29 28/28/28 30/30/30
f 31/31/31 29/29/29 30/30/30
f 31/31/31 30/30/30 32/32/32
f 33/33/33 31/31/31 32/32/32
f 33/33/33 32/32/32 34/34/34
f 33/33/33 34/34/34 35/35/35
f 35/35/35 36/36/36 33/33/33
f 36/36/36 35/35/35 37/37/37
f 37/37/37 38/38/38 36/36/36
f 38/38/38 37/37/37 39/39/39
f 39/39/39 40/40/40 38/38/38
f 40/40/40 39/39/39 41/41/41
f 41/41/41 42/42/42 40/40/40
f 43/43/43 42/42/42 41/41/41
f 43/43/43 41/41/41 44/44/44
f 45/45/45 43/43/43 44/44/44
f 45/45/45 44/44/44 46/46/46
f 47/47/47 45/45/45 46/46/46
f 47/47/47 46/46/46 48/48/48
f 49/49/49 47/47/47 48/48/48
f 49/49/49 48/48/48 50/50/50
f 49/49/49 50/50/50 51/51/51
f 51/51/51 52/52/52 49/49/49
f 52/52/52 51/51/51 53/53/53
f 53/53/53 54/54/54 52/52/52
f 54/54/54 53/53/53 55/55/55
f 55/55/55 56/56/56 54/54/54
f 56/56/56 55/55/55 57/57/57
f 57/57/57 58/58/58 56/56/56
f 59/59/59 58/58/58 57/57/57
f 59/59/59 57/57/57 60/60/60
f 61/61/61 59/59/59 60/60/60
f 61/61/61 60/60/60 62/62/62
f 63/63/63 61/61/61 62/62/62
f 63/63/63 62/62/62 64/64/64
f 65/65/65 63/63/63 64/64/64
f 65/65/65 64/64/64 66/66/66
