g FX_MESH_CH0187_Hud_Radar_11
v 0.15894318 0.30876043 1.3151109E-08
v 0.15283775 0.29352844 1.2645936E-08
v 0.5522991 0.29352844 0
v 0.5522991 0.30876 0
v 0.56458503 0.29990476 0
v 0.56458503 0.29352844 0
v 0.87682617 0.29352844 0
v 0.88388264 0.29990476 0
v -0.5522991 0.29352844 4.8283518E-08
v -0.15283775 0.29352844 1.3361497E-08
v -0.15894318 0.30876043 1.3895253E-08
v -0.5522991 0.30876 4.8283518E-08
v -0.56458503 0.29990476 4.935759E-08
v -0.56458503 0.29352844 4.935759E-08
v -0.87682605 0.29352844 7.665458E-08
v -0.88388264 0.29990476 7.727148E-08
v 0.9774099 -0.3308867 -1.15033005E-08
v 0.27399927 -0.3308867 2.7714725E-08
v 0.27850553 -0.3461187 2.9691334E-08
v 0.9774099 -0.34611824 -1.01717115E-08
v 0.98969585 -0.337263 -1.0945859E-08
v 0.9985423 -0.3308867 -1.2276682E-08
v -0.27850547 -0.3461187 3.4519402E-08
v -0.27399933 -0.3308867 3.5457074E-08
v -0.9774099 -0.3308867 9.695119E-08
v -0.9774099 -0.34611824 9.56196E-08
v -0.9896958 -0.337263 9.746782E-08
v -0.99854225 -0.3308867 9.957202E-08
vt 0 1
vt 0 0
vt 0.25 0
vt 0.25 1
vt 0.5 1
vt 0.5 0
vt 1 0
vt 1 1
vt 0.25 0
vt 0 0
vt 0 1
vt 0.25 1
vt 0.5 1
vt 0.5 0
vt 1 0
vt 1 1
vt 0.25 0
vt 0 0
vt 0 1
vt 0.25 1
vt 0.5 1
vt 0.5 0
vt 0 1
vt 0 0
vt 0.25 0
vt 0.25 1
vt 0.5 1
vt 0.5 0
vn -0 0 -1
vn -0 0 -1
vn -0 0 -1
vn -0 0 -1
vn -0 0 -1
vn -0 0 -1
vn -0 0 -1
vn -0 0 -1
vn -0 0 -1
vn -0 0 -1
vn -0 0 -1
vn -0 0 -1
vn -0 0 -1
vn -0 0 -1
vn -0 0 -1
vn -0 0 -1
vn -0 -1.1693997E-07 -1
vn -0 -1.16937144E-07 -1
vn -0 -1.16937144E-07 -1
vn -0 -1.1693926E-07 -1
vn -0 -1.169428E-07 -1
vn -0 -1.169428E-07 -1
vn -0 0 -1
vn -0 0 -1
vn -0 1.02182774E-07 -1
vn -0 0 -1
vn -1.02743115E-07 1.16943E-07 -1
vn -1.02743115E-07 1.1694299E-07 -1
g FX_MESH_CH0187_Hud_Radar_11_0
f 3/3/3 2/2/2 1/1/1
f 1/1/1 4/4/4 3/3/3
f 3/3/3 4/4/4 5/5/5
f 5/5/5 6/6/6 3/3/3
f 6/6/6 5/5/5 7/7/7
f 8/8/8 7/7/7 5/5/5
f 11/11/11 10/10/10 9/9/9
f 9/9/9 12/12/12 11/11/11
f 13/13/13 12/12/12 9/9/9
f 9/9/9 14/14/14 13/13/13
f 15/15/15 13/13/13 14/14/14
f 13/13/13 15/15/15 16/16/16
f 19/19/19 18/18/18 17/17/17
f 17/17/17 20/20/20 19/19/19
f 20/20/20 17/17/17 21/21/21
f 22/22/22 21/21/21 17/17/17
f 25/25/25 24/24/24 23/23/23
f 23/23/23 26/26/26 25/25/25
f 27/27/27 25/25/25 26/26/26
f 25/25/25 27/27/27 28/28/28
