g FX_MESH_CH0187_Hud_07
v -0.22950323 0.22950329 0.19134168
v -0.27621147 0.2726667 3.7749153E-08
v -0.3248666 0.21338014 3.7749192E-08
v -0.26986727 0.18031959 0.19134168
v -0.3610207 0.14574058 3.7749217E-08
v -0.29986048 0.12420627 0.19134168
v -0.38328424 0.07234744 3.7749235E-08
v -0.31833014 0.06331978 0.19134168
v -0.39080173 -0.0039789034 3.7749235E-08
v -0.3245666 -5.0985655E-08 0.19134168
v -0.18031934 -0.26986736 0.19134168
v -0.2169247 -0.32927948 3.774911E-08
v -0.14928514 -0.36543348 3.774906E-08
v -0.124206014 -0.2998605 0.19134168
v -0.07589195 -0.38769707 3.7749007E-08
v -0.06331951 -0.31833014 0.19134168
v 0.00043439804 -0.39521447 3.774895E-08
v 3.2252464E-07 -0.32456657 0.19134168
v 0.06332015 -0.31833002 0.19134168
v 0.07676073 -0.3876969 3.7748894E-08
v 0.12420659 -0.29986027 0.19134168
v 0.15015388 -0.36543328 3.7748844E-08
v 0.18031988 -0.269867 0.19134168
v 0.21779335 -0.3292791 3.7748794E-08
v 0.22950353 -0.2295029 0.19134168
v 0.2770798 -0.28062385 3.774875E-08
v 0.29986066 -0.12420579 0.19134168
v 0.36188895 -0.15369768 3.7748688E-08
v 0.38415235 -0.0803045 3.774867E-08
v 0.31833023 -0.06331926 0.19134168
v 0.39166975 -0.0039781476 3.7748666E-08
v 0.3245666 5.7581684E-07 0.19134168
v 0.31833005 0.0633204 0.19134168
v 0.38415217 0.07234817 3.774867E-08
v 0.29986024 0.12420683 0.19134168
v 0.36188847 0.14574128 3.7748688E-08
v 0.26986694 0.1803201 0.19134168
v 0.32573426 0.21338078 3.7748713E-08
v 0.22950281 0.22950374 0.19134168
v 0.2770789 0.27266723 3.774875E-08
v 0.21779232 0.32132238 3.7748794E-08
v 0.18031903 0.2698677 0.19134168
v 0.15015271 0.3574763 3.7748844E-08
v 0.12420564 0.29986078 0.19134168
vt 0.125 0.625
vt 0.125 0.5
vt 0.15625 0.5
vt 0.15625 0.625
vt 0.1875 0.5
vt 0.1875 0.625
vt 0.21874999 0.5
vt 0.21874999 0.625
vt 0.24999999 0.5
vt 0.24999999 0.625
vt 0.40625 0.625
vt 0.40625 0.5
vt 0.4375 0.5
vt 0.4375 0.625
vt 0.46875003 0.5
vt 0.46875003 0.625
vt 0.50000006 0.5
vt 0.50000006 0.625
vt 0.53125006 0.625
vt 0.53125006 0.5
vt 0.56250006 0.625
vt 0.56250006 0.5
vt 0.59375006 0.625
vt 0.59375006 0.5
vt 0.62500006 0.625
vt 0.62500006 0.5
vt 0.6875001 0.625
vt 0.6875001 0.5
vt 0.7187501 0.5
vt 0.7187501 0.625
vt 0.7500001 0.5
vt 0.7500001 0.625
vt 0.7812501 0.625
vt 0.7812501 0.5
vt 0.8125002 0.625
vt 0.8125002 0.5
vt 0.8437502 0.625
vt 0.8437502 0.5
vt 0.8750002 0.625
vt 0.8750002 0.5
vt 0.9062502 0.5
vt 0.9062502 0.625
vt 0.9375002 0.5
vt 0.9375002 0.625
vn 0.73367757 -0.60211325 -0.31492364
vn 0.7336776 -0.6021132 -0.31492367
vn 0.78889006 -0.52606845 -0.31765464
vn 0.78789717 -0.52757 -0.3176287
vn 0.8755123 -0.36156908 -0.32054022
vn 0.8747362 -0.36347267 -0.3205064
vn 0.9281757 -0.1835217 -0.32374337
vn 0.9277537 -0.18571235 -0.32370347
vn 0.94150656 -0.09273016 -0.32398516
vn 0.94150656 -0.09273016 -0.32398516
vn 0.4429601 0.82872164 -0.34206256
vn 0.44296017 0.82872164 -0.34206256
vn 0.3587835 0.86758244 -0.34434724
vn 0.3598076 0.8671621 -0.34433743
vn 0.18273501 0.92038953 -0.34567472
vn 0.18341297 0.9202561 -0.34567097
vn -0.00012167697 0.9380985 -0.34636864
vn 0.00012769918 0.93809867 -0.34636816
vn -0.1831142 0.92003995 -0.34640372
vn -0.18291663 0.92007923 -0.34640405
vn -0.3593865 0.8667641 -0.34577638
vn -0.35879037 0.86700976 -0.34577975
vn -0.52201724 0.7802638 -0.34450892
vn -0.52113044 0.7808524 -0.344518
vn -0.5960792 0.7263226 -0.34226477
vn -0.59607923 0.72632253 -0.34226477
vn -0.9018135 0.27356017 -0.33451045
vn -0.9018135 0.27356017 -0.33451045
vn -0.9241403 0.18491524 -0.33432198
vn -0.9245856 0.18274683 -0.3342827
vn -0.94364494 0.0011200556 -0.3309578
vn -0.9436598 -0.0011927496 -0.3309149
vn -0.92647433 -0.18550877 -0.32746255
vn -0.92691296 -0.18322705 -0.32750586
vn -0.8735808 -0.36310154 -0.32405835
vn -0.8744271 -0.36102268 -0.32409874
vn -0.78691834 -0.52709085 -0.32083434
vn -0.7880634 -0.5253563 -0.320869
vn -0.6697534 -0.67108804 -0.317917
vn -0.6710417 -0.66978705 -0.31794384
vn -0.5278146 -0.7886125 -0.3154397
vn -0.5265613 -0.78945714 -0.31542137
vn -0.44771895 -0.8376276 -0.3129343
vn -0.4477189 -0.8376276 -0.3129343
g FX_MESH_CH0187_Hud_07_0
f 3/3/3 2/2/2 1/1/1
f 3/3/3 1/1/1 4/4/4
f 5/5/5 3/3/3 4/4/4
f 5/5/5 4/4/4 6/6/6
f 7/7/7 5/5/5 6/6/6
f 7/7/7 6/6/6 8/8/8
f 9/9/9 7/7/7 8/8/8
f 9/9/9 8/8/8 10/10/10
f 13/13/13 12/12/12 11/11/11
f 13/13/13 11/11/11 14/14/14
f 15/15/15 13/13/13 14/14/14
f 15/15/15 14/14/14 16/16/16
f 17/17/17 15/15/15 16/16/16
f 17/17/17 16/16/16 18/18/18
f 17/17/17 18/18/18 19/19/19
f 19/19/19 20/20/20 17/17/17
f 20/20/20 19/19/19 21/21/21
f 21/21/21 22/22/22 20/20/20
f 22/22/22 21/21/21 23/23/23
f 23/23/23 24/24/24 22/22/22
f 24/24/24 23/23/23 25/25/25
f 25/25/25 26/26/26 24/24/24
f 29/29/29 28/28/28 27/27/27
f 29/29/29 27/27/27 30/30/30
f 31/31/31 29/29/29 30/30/30
f 31/31/31 30/30/30 32/32/32
f 31/31/31 32/32/32 33/33/33
f 33/33/33 34/34/34 31/31/31
f 34/34/34 33/33/33 35/35/35
f 35/35/35 36/36/36 34/34/34
f 36/36/36 35/35/35 37/37/37
f 37/37/37 38/38/38 36/36/36
f 38/38/38 37/37/37 39/39/39
f 39/39/39 40/40/40 38/38/38
f 41/41/41 40/40/40 39/39/39
f 41/41/41 39/39/39 42/42/42
f 43/43/43 41/41/41 42/42/42
f 43/43/43 42/42/42 44/44/44
