g FX_MESH_CH0187_Hud_Radar_05
v 0.44710842 -0.48369735 0
v 0.35426605 -0.4969593 0
v 0.35426605 -0.48369735 0
v 0.44740322 -0.4969593 0
v 0.5053126 -0.48369735 0
v 0.5052995 -0.4969593 0
v 0.45834655 -0.513279 0
v 0.53341997 -0.513279 0
v 0.54439074 -0.4969593 0
v 0.55343574 -0.48369735 0
v 0.563035 -0.39471558 0
v 0.598159 -0.41587612 0
v 0.63730264 -0.3578741 -4.608431E-09
v 0.61253935 -0.31993395 -6.4761324E-10
v 0.6451988 -0.34570795 -4.0950607E-09
v 0.62380624 -0.31293216 -6.733846E-10
v 0.6548237 -0.3305963 -3.4486662E-09
v 0.61379075 -0.26772898 3.1144582E-09
v 0.59414303 -0.2674848 4.071155E-09
v 0.5828762 -0.27448657 4.0969272E-09
v 0.54323673 -0.18949066 1.2213464E-08
v 0.5321311 -0.19673933 1.2213464E-08
v -0.35426605 -0.48369735 -3.0970916E-08
v -0.35426605 -0.4969593 -3.0970916E-08
v -0.4471084 -0.48369735 -3.9087457E-08
v -0.44740316 -0.4969593 -3.9113228E-08
v -0.5053126 -0.48369735 -4.4175835E-08
v -0.5052995 -0.4969593 -4.4174683E-08
v -0.45834655 -0.513279 -4.0069924E-08
v -0.53341997 -0.513279 -4.6633048E-08
v -0.5443908 -0.4969593 -4.7592145E-08
v -0.55343574 -0.48369735 -4.8382887E-08
v -0.563035 -0.39471558 -4.9222084E-08
v -0.598159 -0.41587612 -5.2292716E-08
v -0.63730264 -0.3578741 -5.1106333E-08
v -0.61253935 -0.31993395 -5.2902276E-08
v -0.6451988 -0.34570795 -5.2310003E-08
v -0.62380624 -0.31293216 -5.3861484E-08
v -0.65482384 -0.3305963 -5.3797848E-08
v -0.61379075 -0.26772898 -5.6773747E-08
v -0.59414303 -0.2674848 -5.6012784E-08
v -0.5828762 -0.27448657 -5.5053583E-08
v -0.54323673 -0.18949066 -5.970473E-08
v -0.53213114 -0.19673933 -5.873384E-08
v 0.22408222 0.2985865 0
v 0.2131324 0.29066628 0
v 0.13775703 0.4083651 0
v 0.14621867 0.4170336 0
v 0.11963783 0.43665823 0
v 0.14563042 0.4519783 0
v 0.10151863 0.464822 -2.9656475E-09
v 0.105044246 0.50817853 -3.0683878E-09
v -0 0.50817853 -3.0683878E-09
v -0 0.464822 -2.9656473E-09
v -0.0973265 0.464822 -2.9656473E-09
v -0.10353477 0.50817853 -3.0683878E-09
v -0.14143829 0.4519783 -1.2731416E-08
v -0.1154457 0.43665823 -1.0459073E-08
v -0.14202651 0.4170336 -1.2782844E-08
v -0.13356487 0.4083651 -1.2043103E-08
v -0.21989006 0.2985865 -1.9589892E-08
v -0.20894027 0.29066628 -1.8632626E-08
vt 0.5 1
vt 0 0
vt 0 1
vt 0.5 0
vt 0.75 1
vt 0.75 0
vt 0.5 0
vt 1 0
vt 1 0
vt 1 1
vt 0.75 1
vt 1 1
vt 1 1
vt 0.75 1
vt 1 0
vt 0.75 0
vt 1 0
vt 0.5 0
vt 0.5 0
vt 0.5 1
vt 0 0
vt 0 1
vt 0 1
vt 0 0
vt 0.5 1
vt 0.5 0
vt 0.75 1
vt 0.75 0
vt 0.5 0
vt 1 0
vt 1 0
vt 1 1
vt 0.75 1
vt 1 1
vt 1 1
vt 0.75 1
vt 1 0
vt 0.75 0
vt 1 0
vt 0.5 0
vt 0.5 0
vt 0.5 1
vt 0 0
vt 0 1
vt 1 1
vt 1 0
vt 1 0
vt 1 1
vt 1 0
vt 1 1
vt 1 0
vt 1 1
vt 0 1
vt 0 0
vt 1 0
vt 1 1
vt 1 1
vt 1 0
vt 1 1
vt 1 0
vt 1 1
vt 1 0
vn -0 0 1
vn -0 0 1
vn -0 0 1
vn -0 0 1
vn -0 0 1
vn -0 0 1
vn -0 0 1
vn -0 0 1
vn -0 0 1
vn -0 0 1
vn -0 0 1
vn -0 0 1
vn -0 0 1
vn -0 0 1
vn -0 0 1
vn -0 0 1
vn -0 0 1
vn -0 0 1
vn -0 0 1
vn -0 0 1
vn -0 0 1
vn -0 0 1
vn -0 0 1
vn -0 0 1
vn -0 0 1
vn -0 0 1
vn -0 0 1
vn -0 0 1
vn -0 0 1
vn -0 0 1
vn -0 0 1
vn -0 0 1
vn -0 0 1
vn -0 0 1
vn -0 0 1
vn -0 0 1
vn -0 0 1
vn -0 0 1
vn -0 0 1
vn -0 0 1
vn -0 0 1
vn -0 0 1
vn -0 0 1
vn -0 0 1
vn -0 0 1
vn -0 0 1
vn -0 0 1
vn -0 0 1
vn -0 0 1
vn -0 0 1
vn -0 0 1
vn -0 0 1
vn -0 0 1
vn -0 0 1
vn -0 0 1
vn -0 0 1
vn -2.0104778E-07 0 1
vn -2.0104778E-07 0 1
vn -0 0 1
vn -0 0 1
vn -0 0 1
vn -0 0 1
g FX_MESH_CH0187_Hud_Radar_05_0
f 3/3/3 2/2/2 1/1/1
f 2/2/2 4/4/4 1/1/1
f 1/1/1 4/4/4 5/5/5
f 4/4/4 6/6/6 5/5/5
f 4/4/4 7/7/7 6/6/6
f 6/6/6 7/7/7 8/8/8
f 8/8/8 9/9/9 6/6/6
f 5/5/5 6/6/6 9/9/9
f 9/9/9 10/10/10 5/5/5
f 11/11/11 5/5/5 10/10/10
f 12/12/12 11/11/11 10/10/10
f 11/11/11 12/12/12 13/13/13
f 13/13/13 14/14/14 11/11/11
f 14/14/14 13/13/13 15/15/15
f 15/15/15 16/16/16 14/14/14
f 16/16/16 15/15/15 17/17/17
f 17/17/17 18/18/18 16/16/16
f 16/16/16 18/18/18 19/19/19
f 14/14/14 16/16/16 19/19/19
f 19/19/19 20/20/20 14/14/14
f 21/21/21 20/20/20 19/19/19
f 20/20/20 21/21/21 22/22/22
f 25/25/25 24/24/24 23/23/23
f 24/24/24 25/25/25 26/26/26
f 26/26/26 25/25/25 27/27/27
f 27/27/27 28/28/28 26/26/26
f 28/28/28 29/29/29 26/26/26
f 30/30/30 29/29/29 28/28/28
f 28/28/28 31/31/31 30/30/30
f 31/31/31 28/28/28 27/27/27
f 27/27/27 32/32/32 31/31/31
f 32/32/32 27/27/27 33/33/33
f 33/33/33 34/34/34 32/32/32
f 35/35/35 34/34/34 33/33/33
f 33/33/33 36/36/36 35/35/35
f 37/37/37 35/35/35 36/36/36
f 36/36/36 38/38/38 37/37/37
f 39/39/39 37/37/37 38/38/38
f 38/38/38 40/40/40 39/39/39
f 41/41/41 40/40/40 38/38/38
f 41/41/41 38/38/38 36/36/36
f 42/42/42 41/41/41 36/36/36
f 43/43/43 41/41/41 42/42/42
f 44/44/44 43/43/43 42/42/42
f 47/47/47 46/46/46 45/45/45
f 45/45/45 48/48/48 47/47/47
f 47/47/47 48/48/48 49/49/49
f 49/49/49 48/48/48 50/50/50
f 50/50/50 51/51/51 49/49/49
f 52/52/52 51/51/51 50/50/50
f 51/51/51 52/52/52 53/53/53
f 53/53/53 54/54/54 51/51/51
f 55/55/55 54/54/54 53/53/53
f 53/53/53 56/56/56 55/55/55
f 55/55/55 56/56/56 57/57/57
f 57/57/57 58/58/58 55/55/55
f 59/59/59 58/58/58 57/57/57
f 58/58/58 59/59/59 60/60/60
f 61/61/61 60/60/60 59/59/59
f 60/60/60 61/61/61 62/62/62
