g FX_MESH_CH0187_Hud_08
v 0.81028473 -0.034779206 -0.16781545
v 0.80527115 -0.034779206 -0.16370092
v 0.81028473 -0.029016495 -0.16781545
v 0.80527115 -0.029016495 -0.16370092
v 0.63663656 -0.034779206 -0.025306148
v 0.80527115 -0.012640533 -0.16370092
v 0.81028473 -0.012640533 -0.16781545
v 0.63663656 -0.029016495 -0.025306148
v 0.43852288 -0.029016495 0.08058783
v 0.43852288 -0.034779206 0.08058783
v 0.22355703 -0.029016495 0.14579701
v 0.22355703 -0.034779206 0.14579701
v -2.3476076E-08 -0.029016495 0.16781545
v -2.3476076E-08 -0.034779206 0.16781545
v -0.22355707 -0.029016495 0.14579701
v -0.22355707 -0.034779206 0.14579701
v -0.43852293 -0.029016495 0.08058783
v -0.43852293 -0.034779206 0.08058783
v -0.6366366 -0.029016495 -0.025306148
v -0.6366366 -0.034779206 -0.025306148
v -0.8065676 -0.034779206 -0.16476496
v -0.8065676 -0.029016495 -0.16476496
v -0.8102846 -0.034779206 -0.16781545
v -0.8102846 -0.029016495 -0.16781545
v -0.8102846 -0.012643127 -0.16781545
v -0.8065676 -0.012643127 -0.16476496
vt 0 0.875
vt 0.024999999 0.875
vt 0 1
vt 0.024999999 1
vt 0.125 0.875
vt 0.024999999 1
vt 0 1
vt 0.125 1
vt 0.25 1
vt 0.25 0.875
vt 0.375 1
vt 0.375 0.875
vt 0.5 1
vt 0.5 0.875
vt 0.625 1
vt 0.625 0.875
vt 0.75 1
vt 0.75 0.875
vt 0.875 1
vt 0.875 0.875
vt 0.975 0.875
vt 0.975 1
vt 1 0.875
vt 1 1
vt 1 1
vt 0.975 1
vn 0.6343926 0 0.7730109
vn 0.634393 0 0.77301073
vn 0.6343926 0 0.7730109
vn 0.634393 0 0.77301073
vn 0.5555702 0 0.8314696
vn 0.6343927 0 0.77301085
vn 0.6343927 0 0.77301085
vn 0.5555702 0 0.8314696
vn 0.38268343 0 0.9238795
vn 0.38268343 0 0.9238795
vn 0.19509032 0 0.98078525
vn 0.19509032 0 0.98078525
vn -0 0 1
vn -0 0 1
vn -0.19509032 0 0.98078525
vn -0.19509032 0 0.98078525
vn -0.38268352 0 0.9238795
vn -0.38268352 0 0.9238795
vn -0.55557024 0 0.83146954
vn -0.55557024 0 0.83146954
vn -0.63439345 0 0.7730103
vn -0.63439345 0 0.7730103
vn -0.6343935 0 0.7730102
vn -0.6343935 0 0.7730102
vn -0.6343935 0 0.7730102
vn -0.6343935 0 0.7730102
g FX_MESH_CH0187_Hud_08_0
f 3/3/3 2/2/2 1/1/1
f 3/3/3 4/4/4 2/2/2
f 5/5/5 2/2/2 4/4/4
f 4/4/4 3/3/3 6/6/6
f 7/7/7 6/6/6 3/3/3
f 4/4/4 8/8/8 5/5/5
f 5/5/5 8/8/8 9/9/9
f 9/9/9 10/10/10 5/5/5
f 10/10/10 9/9/9 11/11/11
f 11/11/11 12/12/12 10/10/10
f 12/12/12 11/11/11 13/13/13
f 13/13/13 14/14/14 12/12/12
f 14/14/14 13/13/13 15/15/15
f 15/15/15 16/16/16 14/14/14
f 16/16/16 15/15/15 17/17/17
f 17/17/17 18/18/18 16/16/16
f 18/18/18 17/17/17 19/19/19
f 19/19/19 20/20/20 18/18/18
f 20/20/20 19/19/19 21/21/21
f 19/19/19 22/22/22 21/21/21
f 21/21/21 22/22/22 23/23/23
f 22/22/22 24/24/24 23/23/23
f 24/24/24 22/22/22 25/25/25
f 26/26/26 25/25/25 22/22/22
