g FX_MESH_CH0187_Hud_06
v -0.11079956 0.09021309 -4.959106E-07
v -0.09938293 0.07300697 -4.6253203E-07
v 0.09938019 0.07300651 -4.339218E-07
v -0.113662414 0.04758888 -4.816055E-07
v 0.11079864 0.09021309 -4.6253203E-07
v -0.13689636 0.04501198 -4.959106E-07
v -0.026097106 -0.14689773 -4.4822693E-07
v -0.011748047 -0.13019127 -4.4345856E-07
v 0.113663025 0.047587354 -4.5776366E-07
v 0.13689575 0.04501198 -4.529953E-07
v 0.026096497 -0.14689773 -4.3869017E-07
v 0.011851196 -0.13019127 -4.339218E-07
vt 0.90468407 1
vt 0.8629856 0.92743397
vt 0.13702202 0.92743206
vt 0.91514015 0.8202348
vt 0.09531784 1
vt 1 0.8093667
vt 0.59531593 -4.7683716E-07
vt 0.5429077 0.070457935
vt 0.08485603 0.8202286
vt 0 0.8093667
vt 0.40468407 -4.7683716E-07
vt 0.45671272 0.070457935
vn 7.052133E-07 -1.0676393E-06 -1
vn 6.5980703E-07 -1.1273701E-06 -1
vn -2.2748127E-07 -9.996835E-07 -1
vn 8.6031775E-07 -1.9677435E-07 -1
vn -2.607545E-07 -9.2854293E-07 -1
vn 8.0430505E-07 -1.606284E-07 -1
vn 3.883459E-07 1.442403E-07 -1
vn 3.5750796E-07 1.759143E-07 -1
vn -3.468821E-07 -1.1857117E-07 -1
vn -3.01364E-07 -1.1277647E-07 -1
vn -0 0 -1
vn 1.1795578E-07 1.1820711E-07 -1
g FX_MESH_CH0187_Hud_06_0
f 3/3/3 2/2/2 1/1/1
f 1/1/1 2/2/2 4/4/4
f 1/1/1 5/5/5 3/3/3
f 1/1/1 4/4/4 6/6/6
f 7/7/7 6/6/6 4/4/4
f 4/4/4 8/8/8 7/7/7
f 9/9/9 3/3/3 5/5/5
f 5/5/5 10/10/10 9/9/9
f 11/11/11 7/7/7 8/8/8
f 9/9/9 10/10/10 11/11/11
f 8/8/8 12/12/12 11/11/11
f 11/11/11 12/12/12 9/9/9
