g FX_MESH_CH0187_Hud_09
v -0.52068305 -0.41689864 -0.049581815
v -0.6355994 -0.42455292 -0.07421678
v -0.6355994 -0.41689864 -0.07421678
v -0.52068305 -0.42455292 -0.049581815
v -0.3478962 -0.41689864 -0.022024048
v -0.3478962 -0.42455292 -0.022024048
v -0.17370997 -0.41689864 -0.0054748375
v -0.17370997 -0.42455292 -0.0054748375
v 0.0011750028 -0.41689864 -7.502238E-07
v 0.0011750028 -0.42455292 -7.502238E-07
v 0.17605525 -0.41689864 -0.0056238067
v 0.17605525 -0.42455292 -0.0056238067
v 0.3502273 -0.41689864 -0.022321388
v 0.3502273 -0.42455292 -0.022321388
v 0.39844942 -0.41689864 -0.02892595
v 0.39844942 -0.42455292 -0.02892595
v 0.595758 -0.41689864 -0.06509508
v 0.597984 -0.42455292 -0.065588355
v 0.597984 -0.42434487 -0.065588355
v 0.68676794 0.30941784 -0.08684879
v 0.5808208 0.3764408 -0.06183485
v 0.58349305 0.38208717 -0.062411733
v 0.6936502 0.31358883 -0.08862718
v 0.6936502 0.14648294 -0.08862718
v 0.68676794 0.1464829 -0.08684879
v 0.68677115 0.02149595 -0.08684961
v 0.6936502 0.01505341 -0.08862718
v 0.60576713 -0.027312102 -0.0673283
v 0.598825 -0.020975515 -0.06577522
v 0.59882176 -0.17226818 -0.065774515
v 0.6057586 -0.16843683 -0.06732638
v 0.6434018 -0.23367664 -0.07607606
v 0.65031195 -0.2277083 -0.07774275
v 0.65031976 -0.36764893 -0.07774464
v 0.64340955 -0.36225578 -0.07607792
v 0.595758 -0.41689864 -0.06509508
v 0.597984 -0.42434487 -0.065588355
v -0.08714193 0.41890654 -0.0013771188
v -0.08714193 0.42455292 -0.0013771188
v 0.20529917 0.41890654 -0.007649908
v 0.20759115 0.42455292 -0.007821903
v -0.490233 0.37255654 -0.043906692
v -0.45443597 0.42455292 -0.03768588
v -0.45154265 0.41890654 -0.03720426
v -0.48765245 0.36691016 -0.043441992
v -0.6256112 0.3669085 -0.07187158
v -0.62764585 0.37255743 -0.07234613
v -0.6936502 0.2807892 -0.0886272
v -0.68841267 0.2788519 -0.08727207
v -0.69361424 0.1558571 -0.08861785
v -0.6884131 0.15064599 -0.08727218
v -0.69357824 0.10896053 -0.0886085
v -0.6884135 0.104400836 -0.0872723
v -0.688414 -0.0021947098 -0.08727241
v -0.6935423 -0.010307619 -0.08859917
v -0.63545895 -0.05677643 -0.07418353
v -0.6271338 -0.051326387 -0.072226554
v -0.6271342 -0.17560709 -0.07222666
v -0.6354227 -0.17300153 -0.074174955
v -0.6353866 -0.29793358 -0.07416642
v -0.6271347 -0.29988784 -0.07222676
v -0.6353504 -0.32627586 -0.07415784
v -0.62713516 -0.32757866 -0.072226875
v -0.63531435 -0.366724 -0.0741493
v -0.62713563 -0.3673754 -0.07222697
v -0.6352781 -0.41770706 -0.07414073
v -0.62713605 -0.41770706 -0.072227076
v -0.45154265 0.41890654 -0.03720426
v -0.45443597 0.42455292 -0.03768588
v -0.08714193 0.42455292 -0.0013771188
v -0.08714193 0.41890654 -0.0013771188
v 0.58349305 0.38208717 -0.062411733
v 0.5808208 0.3764408 -0.06183485
v 0.3719702 0.38208717 -0.025192033
v 0.3719702 0.3764408 -0.025192033
v 0.230037 0.38208717 -0.009607841
v 0.3719702 0.38208717 -0.025192033
v 0.3719702 0.3764408 -0.025192033
v 0.22754839 0.3764408 -0.009400742
v 0.20529917 0.41890654 -0.007649908
v 0.20759115 0.42455292 -0.007821903
v -0.5798673 -0.3890467 -0.061629687
v -0.5798673 -0.42087713 -0.061629687
v -0.63331646 -0.42087713 -0.0736773
v -0.63331646 -0.3890467 -0.0736773
v -0.60625416 -0.35642692 -0.067437954
v -0.63331646 -0.35642692 -0.0736773
v -0.60625416 -0.29379386 -0.067437954
v -0.63331646 -0.29379386 -0.0736773
v -0.60625416 -0.25357473 -0.067437954
v -0.63331646 -0.25357473 -0.0736773
v -0.60625416 -0.21335557 -0.067437954
v -0.63331646 -0.21335557 -0.0736773
v -0.60625416 -0.08679245 -0.067437954
v -0.63331646 -0.08679244 -0.0736773
v -0.63331646 -0.05631022 -0.0736773
v -0.60625416 -0.046534844 -0.067437954
v -0.65789723 -0.0039327336 -0.08338555
v -0.6888886 -0.011546869 -0.091197394
v -0.68974113 0.022132158 -0.087614745
v -0.65870804 0.022132158 -0.07979323
v -0.65789723 -0.0039327336 -0.08338555
v -0.6888886 -0.011546869 -0.091197394
v -0.65870804 0.022132158 -0.07979323
v -0.68974113 0.022132158 -0.087614745
v -0.68974113 0.048224077 -0.087614745
v -0.65870804 0.059721444 -0.07979323
v -0.68961227 0.08788634 -0.08758148
v -0.728044 0.08788634 -0.0977992
v -0.6897096 0.09608519 -0.08760662
v -0.728001 0.09608519 -0.09778743
v -0.6897096 0.18646795 -0.08760662
v -0.728001 0.18646795 -0.09778743
v -0.69218224 0.22998622 -0.08824628
v -0.6897096 0.22998622 -0.08760662
v 0.600667 -0.41850296 -0.06618548
v 0.54711926 -0.41850296 -0.054796595
v 0.6009138 -0.36712837 -0.06624055
v 0.6488214 -0.36712837 -0.07738164
v 0.6488214 -0.3100846 -0.07738164
v 0.6009138 -0.3100846 -0.06624055
v 0.6488214 -0.27394515 -0.07738164
v 0.6009138 -0.27394515 -0.06624055
v 0.6488214 -0.22813153 -0.07738164
v 0.6009138 -0.22813153 -0.06624055
v 0.6036153 -0.1710611 -0.06684489
v 0.5601863 -0.1710611 -0.057473443
v 0.6036153 -0.106034696 -0.06684489
v 0.5601863 -0.106034696 -0.057473443
v 0.5601863 -0.083450146 -0.057473443
v 0.6036153 -0.05627554 -0.06684489
v 0.19257288 -0.43436256 -0.0067298203
v 0.12571104 -0.44277573 -0.0028661513
v 0.12038732 -0.43436256 -0.0026284638
v 0.19788854 -0.44277573 -0.0071069375
v 0.1285269 -0.44743925 -0.002996038
v 0.19788854 -0.44743925 -0.0071069375
v 0.2699301 -0.44277573 -0.01323772
v 0.2699301 -0.44743925 -0.01323772
v 0.3417863 -0.44277573 -0.021254288
v 0.3417863 -0.44743925 -0.021254288
v 0.41340774 -0.44277573 -0.031151142
v 0.41340774 -0.44743925 -0.031151142
v 0.51187074 -0.44743925 -0.047903035
v 0.51187074 -0.44277573 -0.047903035
v 0.5467424 -0.44277573 -0.05472036
v 0.5467424 -0.44743925 -0.05472036
v 0.576945 -0.44743925 -0.06100307
v 0.581073 -0.44277573 -0.06188917
v 0.540161 -0.43111068 -0.053397994
v 0.587388 -0.43575004 -0.06325754
v 0.59260094 -0.43022382 -0.06439879
v 0.540161 -0.43111068 -0.053397994
v 0.49831665 -0.43022382 -0.045378808
v 0.587388 -0.43575004 -0.06325754
v 0.5989117 -0.42319846 -0.06579452
v 0.49831665 -0.43022382 -0.045378808
v 0.48746213 -0.42319846 -0.043407813
v 0.59260094 -0.43022382 -0.06439879
vt 0.125 0.125
vt 0 0
vt 0 0.125
vt 0.125 0
vt 0.25 0.125
vt 0.25 0
vt 0.375 0.125
vt 0.375 0
vt 0.5 0.125
vt 0.5 0
vt 0.625 0.125
vt 0.625 0
vt 0.75 0.125
vt 0.75 0
vt 0.875 0.125
vt 0.875 0
vt 0.9375 0.125
vt 1 0
vt 1 0.125
vt 0.9375 0.125
vt 0.9375 0.125
vt 0.9375 0.125
vt 1 0.125
vt 1 0.125
vt 0.9375 0.125
vt 0.9375 0.125
vt 1 0.125
vt 1 0.125
vt 0.9375 0.125
vt 0.9375 0.125
vt 1 0.125
vt 0.9375 0.125
vt 1 0.125
vt 1 0.125
vt 0.9375 0.125
vt 0.9375 0.125
vt 1 0.125
vt 0.9375 0.125
vt 0.9375 0.125
vt 0.9375 0.125
vt 0.9375 0.125
vt 0.9375 0.125
vt 0.9375 0.125
vt 0.9375 0.125
vt 0.9375 0.125
vt 0.9375 0.125
vt 0.9375 0.125
vt 0.9375 0.125
vt 0.9375 0.125
vt 0.9375 0.125
vt 0.9375 0.125
vt 0.9375 0.125
vt 0.9375 0.125
vt 0.9375 0.125
vt 0.9375 0.125
vt 0.9375 0.125
vt 0.9375 0.125
vt 0.9375 0.125
vt 0.9375 0.125
vt 0.9375 0.125
vt 0.9375 0.125
vt 0.9375 0.125
vt 0.9375 0.125
vt 0.9375 0.125
vt 0.9375 0.125
vt 0.9375 0.125
vt 0.9375 0.125
vt 0.9375 0.125
vt 0.9375 0.125
vt 0.9375 0.125
vt 0.9375 0.125
vt 0.9375 0.125
vt 0.9375 0.125
vt 0.9375 0.125
vt 0.9375 0.125
vt 0.9375 0.125
vt 0.9375 0.125
vt 0.9375 0.125
vt 0.9375 0.125
vt 0.9375 0.125
vt 0.9375 0.125
vt 1 0.125
vt 1 0
vt 0 0
vt 0 0.125
vt 1 0.25
vt 0 0.25
vt 1 0.375
vt 0 0.375
vt 1 0.5
vt 0 0.5
vt 1 0.625
vt 0 0.625
vt 1 0.75
vt 0 0.75
vt 0 0.875
vt 1 0.875
vt 1 1
vt 0 1
vt 0 1
vt 1 1
vt 1 1
vt 0 1
vt 1 1
vt 0 1
vt 0 1
vt 1 1
vt 1 1
vt 0 1
vt 1 1
vt 0 1
vt 1 1
vt 0 1
vt 0 1
vt 1 1
vt 1 0
vt 0 0
vt 0 0.25
vt 1 0.25
vt 1 0.375
vt 0 0.375
vt 1 0.5
vt 0 0.5
vt 1 0.625
vt 0 0.625
vt 1 0.75
vt 0 0.75
vt 1 0.875
vt 0 0.875
vt 0 1
vt 1 1
vt 0.125 1
vt 0 1
vt 0 1
vt 0.125 1
vt 0 0
vt 0.125 0
vt 0.25 1
vt 0.25 0
vt 0.375 1
vt 0.375 0
vt 0.5 1
vt 0.5 0
vt 0.875 0
vt 0.875 1
vt 0.9375 1
vt 0.9375 0
vt 1 0
vt 1 1
vt 0.9375 1
vt 1 1
vt 1 1
vt 0.9375 1
vt 0.9375 1
vt 1 1
vt 1 1
vt 0.9375 1
vt 0.9375 1
vt 1 1
vn -0.18361959 0 0.9829974
vn -0.20961076 0 0.977785
vn -0.20961076 0 0.977785
vn -0.18361959 0 0.9829974
vn -0.1261045 0 0.99201703
vn -0.1261045 0 0.99201703
vn -0.062965944 0 0.99801564
vn -0.062965944 0 0.99801564
vn 0.00042591404 0 0.9999999
vn 0.00042591404 0 0.9999999
vn 0.063816056 0 0.99796164
vn 0.063816056 0 0.99796164
vn 0.11558636 0 0.9932974
vn 0.11558636 0 0.9932974
vn 0.15814619 -0.0027226612 0.987412
vn 0.15814619 -0.0027226612 0.987412
vn 0.18051527 -0.0054439 0.9835571
vn 0.18051527 -0.0054439 0.9835571
vn 0.18051529 -0.0054439004 0.9835571
vn 0.23395804 0.0055528446 0.97223085
vn 0.23395804 0.0055528446 0.97223085
vn 0.23395802 0.0055528437 0.97223085
vn 0.23395804 0.0055528446 0.97223085
vn 0.25018516 0 0.968198
vn 0.2501852 0 0.968198
vn 0.23428066 7.076538E-06 0.972169
vn 0.23428068 7.076539E-06 0.972169
vn 0.23428063 7.076538E-06 0.972169
vn 0.23428066 7.076538E-06 0.972169
vn 0.22640178 0 0.974034
vn 0.22640176 0 0.974034
vn 0.2344718 0 0.9721229
vn 0.2344718 0 0.9721229
vn 0.22750449 -0.0019333502 0.9737751
vn 0.2275045 -0.0019333505 0.9737751
vn 0.22750449 -0.0019333502 0.9737751
vn 0.22750449 -0.00193335 0.9737751
vn 0.021652594 0.010831506 0.9997068
vn 0.021652594 0.010831506 0.9997068
vn 0.021652592 0.010831505 0.9997068
vn 0.021652596 0.010831506 0.9997068
vn -0.20224941 -0.0012020427 0.97933334
vn -0.17056654 -0.00010657172 0.9853462
vn -0.17056656 -0.00010657173 0.9853462
vn -0.20224941 -0.0012020427 0.97933334
vn -0.2022494 -0.0012020426 0.97933334
vn -0.2022494 -0.0012020426 0.97933334
vn -0.24179476 0.0022420646 0.97032475
vn -0.24179476 0.0022420648 0.97032475
vn -0.25048056 1.2626128E-07 0.9681216
vn -0.2504806 1.2626128E-07 0.9681216
vn -0.2504725 3.4527704E-07 0.96812373
vn -0.25047246 3.45277E-07 0.96812373
vn -0.2504675 1.8738923E-07 0.96812505
vn -0.2504675 1.8738923E-07 0.96812505
vn -0.22882783 1.9676176E-07 0.9734668
vn -0.22882783 1.9676177E-07 0.9734668
vn -0.22882783 1.9676176E-07 0.9734668
vn -0.22882783 1.9676177E-07 0.97346693
vn -0.22881459 1.1650691E-06 0.97347
vn -0.22881462 1.1650691E-06 0.97347
vn -0.22880845 7.950604E-07 0.97347146
vn -0.22880846 7.950604E-07 0.97347146
vn -0.22880216 4.76362E-07 0.97347295
vn -0.22880216 4.7636195E-07 0.97347295
vn -0.22880216 4.7636195E-07 0.97347295
vn -0.22880217 4.76362E-07 0.97347295
vn -0.098097086 0.017302854 0.9950264
vn -0.098097086 0.017302854 0.9950264
vn -0.098097086 0.017302854 0.9950264
vn -0.098097086 0.017302854 0.9950264
vn 0.17304826 0.009361967 0.9848689
vn 0.17304826 0.009361969 0.9848689
vn 0.17304826 0.009361969 0.9848689
vn 0.17304826 0.009361969 0.9848689
vn 0.10891484 -0.005772113 0.99403435
vn 0.10891484 -0.0057721133 0.99403435
vn 0.10891484 -0.0057721133 0.99403435
vn 0.10891484 -0.005772113 0.99403435
vn 0.07895849 3.9151226E-05 0.9968779
vn 0.0789585 3.9151233E-05 0.9968779
vn -0.220463 -0.0009927617 0.9753948
vn -0.21988659 0 0.9755255
vn -0.21988659 0 0.9755255
vn -0.22068971 -0.0013833718 0.9753431
vn -0.22279122 -0.0016329997 0.9748648
vn -0.22307716 -0.0013833732 0.9747999
vn -0.22466098 0 0.97443706
vn -0.22466098 0 0.97443706
vn -0.22466098 0 0.97443706
vn -0.22466098 0 0.97443706
vn -0.22466095 0 0.97443706
vn -0.22466095 0 0.97443706
vn -0.22466098 0 0.97443706
vn -0.22466098 0 0.97443706
vn -0.2392445 0.032171432 0.97042626
vn -0.23708187 0.027360847 0.9711043
vn -0.25196892 0.06076834 0.9658255
vn -0.25196892 0.060768347 0.9658255
vn -0.22842216 -0.122352704 0.9658432
vn -0.22842218 -0.122352704 0.9658432
vn -0.22842216 -0.122352704 0.9658432
vn -0.22842218 -0.122352704 0.9658432
vn -0.24439506 0 0.96967566
vn -0.24439506 0 0.96967566
vn -0.24439506 0 0.9696758
vn -0.24439506 0 0.9696758
vn -0.2513525 4.870006E-06 0.9678956
vn -0.2513525 4.8700053E-06 0.9678956
vn -0.25695044 0 0.9664246
vn -0.25695044 0 0.9664246
vn -0.25695044 0 0.9664246
vn -0.25695044 0 0.9664246
vn -0.25655726 -0.00037037747 0.96652895
vn -0.25655726 -0.00037037747 0.96652895
vn 0.216787 4.961661E-06 0.9762189
vn 0.216787 4.961662E-06 0.9762189
vn 0.22064534 2.9939997E-06 0.9753541
vn 0.2232187 1.6806403E-06 0.97476834
vn 0.22650942 0 0.97400904
vn 0.22650942 0 0.97400904
vn 0.22650938 0 0.97400904
vn 0.22650938 0 0.97400904
vn 0.22384362 -1.4618811E-05 0.9746251
vn 0.22220096 -2.3622391E-05 0.97500086
vn 0.21576135 -2.3852723E-05 0.97644615
vn 0.21400172 -1.5157024E-05 0.97683334
vn 0.21093291 0 0.9775006
vn 0.21093291 0 0.9775006
vn 0.21093288 0 0.9775006
vn 0.21093288 0 0.9775006
vn 0.05768962 0 0.9983346
vn 0.05890328 0.0038815073 0.99825615
vn 0.05768962 0 0.9983346
vn 0.07185491 0.0019409208 0.9974132
vn 0.058903288 0.003881508 0.99825615
vn 0.07185491 0.0019409208 0.9974132
vn 0.09784356 0 0.9952018
vn 0.09784356 0 0.9952018
vn 0.12388978 0 0.9922959
vn 0.12388978 0 0.9922959
vn 0.15232153 0 0.988331
vn 0.15232153 0 0.988331
vn 0.17980818 0 0.9837017
vn 0.17980818 0 0.9837017
vn 0.19796507 0.0013464694 0.9802082
vn 0.19796507 0.0013464694 0.9802082
vn 0.20405662 0.002692884 0.9789554
vn 0.20405664 0.0026928843 0.9789554
vn 0.2046694 0.0053257006 0.97881657
vn 0.20466943 0.0053257016 0.97881657
vn 0.20221971 0.11158882 0.972962
vn 0.20221972 0.11158881 0.972962
vn 0.20221972 0.11158881 0.972962
vn 0.20221972 0.11158881 0.972962
vn 0.19725162 0.023661535 0.9800673
vn 0.19725159 0.023661535 0.9800673
vn 0.19725159 0.023661535 0.9800673
vn 0.19725162 0.023661537 0.9800673
g FX_MESH_CH0187_Hud_09_0
f 3/3/3 2/2/2 1/1/1
f 2/2/2 4/4/4 1/1/1
f 1/1/1 4/4/4 5/5/5
f 4/4/4 6/6/6 5/5/5
f 5/5/5 6/6/6 7/7/7
f 6/6/6 8/8/8 7/7/7
f 7/7/7 8/8/8 9/9/9
f 8/8/8 10/10/10 9/9/9
f 9/9/9 10/10/10 11/11/11
f 10/10/10 12/12/12 11/11/11
f 11/11/11 12/12/12 13/13/13
f 12/12/12 14/14/14 13/13/13
f 13/13/13 14/14/14 15/15/15
f 14/14/14 16/16/16 15/15/15
f 15/15/15 16/16/16 17/17/17
f 17/17/17 16/16/16 18/18/18
f 18/18/18 19/19/19 17/17/17
f 22/22/22 21/21/21 20/20/20
f 20/20/20 23/23/23 22/22/22
f 24/24/24 23/23/23 20/20/20
f 20/20/20 25/25/25 24/24/24
f 24/24/24 25/25/25 26/26/26
f 24/24/24 26/26/26 27/27/27
f 28/28/28 27/27/27 26/26/26
f 26/26/26 29/29/29 28/28/28
f 30/30/30 28/28/28 29/29/29
f 30/30/30 31/31/31 28/28/28
f 32/32/32 31/31/31 30/30/30
f 31/31/31 32/32/32 33/33/33
f 34/34/34 33/33/33 32/32/32
f 32/32/32 35/35/35 34/34/34
f 34/34/34 35/35/35 36/36/36
f 34/34/34 36/36/36 37/37/37
f 40/40/40 39/39/39 38/38/38
f 39/39/39 40/40/40 41/41/41
f 44/44/44 43/43/43 42/42/42
f 44/44/44 42/42/42 45/45/45
f 46/46/46 45/45/45 42/42/42
f 47/47/47 46/46/46 42/42/42
f 48/48/48 46/46/46 47/47/47
f 46/46/46 48/48/48 49/49/49
f 50/50/50 49/49/49 48/48/48
f 49/49/49 50/50/50 51/51/51
f 52/52/52 51/51/51 50/50/50
f 51/51/51 52/52/52 53/53/53
f 54/54/54 53/53/53 52/52/52
f 52/52/52 55/55/55 54/54/54
f 54/54/54 55/55/55 56/56/56
f 54/54/54 56/56/56 57/57/57
f 58/58/58 57/57/57 56/56/56
f 56/56/56 59/59/59 58/58/58
f 60/60/60 58/58/58 59/59/59
f 60/60/60 61/61/61 58/58/58
f 62/62/62 61/61/61 60/60/60
f 62/62/62 63/63/63 61/61/61
f 64/64/64 63/63/63 62/62/62
f 64/64/64 65/65/65 63/63/63
f 66/66/66 65/65/65 64/64/64
f 66/66/66 67/67/67 65/65/65
f 70/70/70 69/69/69 68/68/68
f 68/68/68 71/71/71 70/70/70
f 74/74/74 73/73/73 72/72/72
f 74/74/74 75/75/75 73/73/73
f 78/78/78 77/77/77 76/76/76
f 76/76/76 79/79/79 78/78/78
f 80/80/80 79/79/79 76/76/76
f 76/76/76 81/81/81 80/80/80
f 84/84/84 83/83/83 82/82/82
f 85/85/85 84/84/84 82/82/82
f 82/82/82 86/86/86 85/85/85
f 87/87/87 85/85/85 86/86/86
f 87/87/87 86/86/86 88/88/88
f 87/87/87 88/88/88 89/89/89
f 89/89/89 88/88/88 90/90/90
f 91/91/91 89/89/89 90/90/90
f 91/91/91 90/90/90 92/92/92
f 93/93/93 91/91/91 92/92/92
f 93/93/93 92/92/92 94/94/94
f 93/93/93 94/94/94 95/95/95
f 96/96/96 95/95/95 94/94/94
f 94/94/94 97/97/97 96/96/96
f 98/98/98 96/96/96 97/97/97
f 96/96/96 98/98/98 99/99/99
f 102/102/102 101/101/101 100/100/100
f 100/100/100 103/103/103 102/102/102
f 106/106/106 105/105/105 104/104/104
f 104/104/104 107/107/107 106/106/106
f 107/107/107 108/108/108 106/106/106
f 106/106/106 108/108/108 109/109/109
f 109/109/109 108/108/108 110/110/110
f 111/111/111 109/109/109 110/110/110
f 111/111/111 110/110/110 112/112/112
f 111/111/111 112/112/112 113/113/113
f 114/114/114 113/113/113 112/112/112
f 112/112/112 115/115/115 114/114/114
f 118/118/118 117/117/117 116/116/116
f 116/116/116 119/119/119 118/118/118
f 118/118/118 119/119/119 120/120/120
f 121/121/121 118/118/118 120/120/120
f 121/121/121 120/120/120 122/122/122
f 123/123/123 121/121/121 122/122/122
f 123/123/123 122/122/122 124/124/124
f 125/125/125 123/123/123 124/124/124
f 124/124/124 126/126/126 125/125/125
f 125/125/125 126/126/126 127/127/127
f 127/127/127 126/126/126 128/128/128
f 129/129/129 127/127/127 128/128/128
f 130/130/130 129/129/129 128/128/128
f 128/128/128 131/131/131 130/130/130
f 134/134/134 133/133/133 132/132/132
f 135/135/135 132/132/132 133/133/133
f 133/133/133 136/136/136 135/135/135
f 136/136/136 137/137/137 135/135/135
f 135/135/135 137/137/137 138/138/138
f 137/137/137 139/139/139 138/138/138
f 138/138/138 139/139/139 140/140/140
f 139/139/139 141/141/141 140/140/140
f 140/140/140 141/141/141 142/142/142
f 141/141/141 143/143/143 142/142/142
f 144/144/144 142/142/142 143/143/143
f 142/142/142 144/144/144 145/145/145
f 145/145/145 144/144/144 146/146/146
f 144/144/144 147/147/147 146/146/146
f 146/146/146 147/147/147 148/148/148
f 146/146/146 148/148/148 149/149/149
f 150/150/150 146/146/146 149/149/149
f 150/150/150 149/149/149 151/151/151
f 154/154/154 153/153/153 152/152/152
f 153/153/153 155/155/155 152/152/152
f 158/158/158 157/157/157 156/156/156
f 157/157/157 159/159/159 156/156/156
