g FX_MESH_CH0187_Hud_Radar_03
v -0.70621806 -0.24586114 3.5951248E-07
v -0.6147491 -0.37045193 3.469433E-07
v -0.65506095 -0.42713675 3.541111E-07
v -0.520445 -0.24006261 3.5261942E-07
v -0.6809075 -0.21110393 3.608765E-07
v -0.5234117 -0.20584776 3.5415687E-07
v -0.6516286 -0.17634667 3.622405E-07
v -0.52739984 -0.1716329 3.5569428E-07
v -0.5329203 -0.097481675 3.5677775E-07
v -0.65593666 -0.09984633 3.632109E-07
v -0.5350924 -0.0026181524 3.5816385E-07
v -0.6599076 -0.0026334922 3.6444365E-07
v -0.65623814 0.08974118 3.6345466E-07
v -0.5329204 0.088111974 3.5705116E-07
v -0.6496491 0.18211599 3.6246564E-07
v -0.5245507 0.1788422 3.5593845E-07
v -0.6461056 0.22179393 3.604877E-07
v -0.52044517 0.2177409 3.5371306E-07
v -0.5179788 0.23882611 3.53166E-07
v -0.68212414 0.2885082 3.6005633E-07
v -0.6575803 0.43374962 3.5510675E-07
v -0.6566462 0.4378849 3.480014E-07
v 0.61474895 0.37045193 3.469433E-07
v 0.6550607 0.42713675 3.541111E-07
v 0.70621794 0.24586119 3.5951248E-07
v 0.5204448 0.24006264 3.5261942E-07
v 0.6809074 0.21110398 3.608765E-07
v 0.5234116 0.20584777 3.5415687E-07
v 0.65162855 0.17634672 3.622405E-07
v 0.5273997 0.17163292 3.5569428E-07
v 0.53292024 0.09748171 3.5677775E-07
v 0.6559366 0.09984638 3.632109E-07
v 0.5350923 0.002618199 3.5816385E-07
v 0.6599075 0.0026335497 3.6444365E-07
v 0.6562381 -0.08974111 3.6345466E-07
v 0.53292036 -0.088111915 3.5705116E-07
v 0.649649 -0.18211591 3.6246564E-07
v 0.5245506 -0.17884214 3.5593845E-07
v 0.64610547 -0.22179386 3.604877E-07
v 0.5204451 -0.21774083 3.5371306E-07
v 0.51797867 -0.23882607 3.53166E-07
v 0.68212414 -0.28850815 3.6005633E-07
v 0.65758026 -0.43374953 3.5510675E-07
v 0.65664613 -0.4378848 3.480014E-07
vt 0 0.6
vt 1 0.70000005
vt 0 0.70000005
vt 1 0.6
vt 0 0.57500005
vt 1 0.57500005
vt 0 0.55
vt 1 0.55
vt 1 0.525
vt 0 0.525
vt 1 0.5
vt 0 0.5
vt 0 0.475
vt 1 0.475
vt 0 0.45
vt 1 0.45
vt 0 0.4
vt 1 0.4
vt 1 0.35000002
vt 0 0.35000002
vt 0 0.3
vt 1 0.3
vt 1 0.70000005
vt 0 0.70000005
vt 0 0.6
vt 1 0.6
vt 0 0.57500005
vt 1 0.57500005
vt 0 0.55
vt 1 0.55
vt 1 0.525
vt 0 0.525
vt 1 0.5
vt 0 0.5
vt 0 0.475
vt 1 0.475
vt 0 0.45
vt 1 0.45
vt 0 0.4
vt 1 0.4
vt 1 0.35000002
vt 0 0.35000002
vt 0 0.3
vt 1 0.3
vn -0 0 1
vn -0 0 1
vn -0 0 1
vn -0 0 1
vn -0 0 1
vn -0 0 1
vn -0 0 1
vn -0 0 1
vn -0 0 1
vn -0 0 1
vn -0 0 1
vn -0 0 1
vn -0 0 1
vn -0 0 1
vn -0 0 1
vn -0 0 1
vn -0 0 1
vn -0 0 1
vn -0 0 1
vn -0 0 1
vn 1.0223634E-07 0 1
vn 1.0223634E-07 0 1
vn -0 0 1
vn -0 0 1
vn -0 0 1
vn -0 0 1
vn -0 0 1
vn -0 0 1
vn -0 0 1
vn -0 0 1
vn -0 0 1
vn -0 0 1
vn -0 0 1
vn -0 0 1
vn -0 0 1
vn -0 0 1
vn -0 0 1
vn -0 0 1
vn -0 0 1
vn -0 0 1
vn -0 0 1
vn -0 0 1
vn -1.0223628E-07 0 1
vn -1.0223628E-07 0 1
g FX_MESH_CH0187_Hud_Radar_03_0
f 3/3/3 2/2/2 1/1/1
f 1/1/1 2/2/2 4/4/4
f 5/5/5 1/1/1 4/4/4
f 4/4/4 6/6/6 5/5/5
f 7/7/7 5/5/5 6/6/6
f 6/6/6 8/8/8 7/7/7
f 7/7/7 8/8/8 9/9/9
f 9/9/9 10/10/10 7/7/7
f 10/10/10 9/9/9 11/11/11
f 10/10/10 11/11/11 12/12/12
f 13/13/13 12/12/12 11/11/11
f 11/11/11 14/14/14 13/13/13
f 15/15/15 13/13/13 14/14/14
f 14/14/14 16/16/16 15/15/15
f 17/17/17 15/15/15 16/16/16
f 16/16/16 18/18/18 17/17/17
f 17/17/17 18/18/18 19/19/19
f 20/20/20 17/17/17 19/19/19
f 20/20/20 19/19/19 21/21/21
f 22/22/22 21/21/21 19/19/19
f 25/25/25 24/24/24 23/23/23
f 26/26/26 25/25/25 23/23/23
f 26/26/26 27/27/27 25/25/25
f 27/27/27 26/26/26 28/28/28
f 28/28/28 29/29/29 27/27/27
f 29/29/29 28/28/28 30/30/30
f 30/30/30 31/31/31 29/29/29
f 31/31/31 32/32/32 29/29/29
f 31/31/31 33/33/33 32/32/32
f 33/33/33 34/34/34 32/32/32
f 33/33/33 35/35/35 34/34/34
f 36/36/36 35/35/35 33/33/33
f 36/36/36 37/37/37 35/35/35
f 38/38/38 37/37/37 36/36/36
f 39/39/39 37/37/37 38/38/38
f 38/38/38 40/40/40 39/39/39
f 40/40/40 41/41/41 39/39/39
f 41/41/41 42/42/42 39/39/39
f 43/43/43 42/42/42 41/41/41
f 44/44/44 43/43/43 41/41/41
