g FX_MESH_CH0187_Hud_15
v 0.85257536 -4.4703483E-10 -0.17118837
v 0.85257536 -0.099999994 -0.17118837
v 0.7080724 -0.099999994 -0.1165773
v 0.7080724 -4.4703483E-10 -0.1165773
v 0.85257536 0.099999994 -0.17118837
v 0.5644305 -0.099999994 -0.073339015
v 0.7080724 0.099999994 -0.1165773
v 0.5644305 -4.4703483E-10 -0.073339015
v 0.42191702 -0.099999994 -0.0406738
v 0.5644305 0.099999994 -0.073339015
v 0.42191702 -4.4703483E-10 -0.0406738
v 0.28052002 -0.099999994 -0.01788682
v 0.42191702 0.099999994 -0.0406738
v 0.28052002 -4.4703483E-10 -0.01788682
v 0.14000869 -0.099999994 -0.004442118
v 0.28052002 0.099999994 -0.01788682
v 0.14000869 -4.4703483E-10 -0.004442118
v -0 -0.099999994 0
v 0.14000869 0.099999994 -0.004442118
v -0 -4.4703483E-10 0
v -0.13997072 -0.099999994 -0.0044397046
v -0 0.099999994 0
v -0.13997072 -4.4703483E-10 -0.0044397046
v -0.28037867 -0.099999994 -0.017868718
v -0.13997072 0.099999994 -0.0044397046
v -0.28037867 -4.4703483E-10 -0.017868718
v -0.28037867 0.099999994 -0.017868718
vt 1 0.5
vt 1 0
vt 0.875 0
vt 0.875 0.5
vt 1 1
vt 0.75 0
vt 0.875 1
vt 0.75 0.5
vt 0.625 0
vt 0.75 1
vt 0.625 0.5
vt 0.5 0
vt 0.625 1
vt 0.5 0.5
vt 0.375 0
vt 0.5 1
vt 0.375 0.5
vt 0.25 0
vt 0.375 1
vt 0.25 0.5
vt 0.125 0
vt 0.25 1
vt 0.125 0.5
vt 0 0
vt 0.125 1
vt 0 0.5
vt 0 1
vn 0.41426268 0 0.9101573
vn 0.41426268 0 0.9101573
vn 0.35935614 0 0.9332005
vn 0.35935614 0 0.9332005
vn 0.41426268 0 0.9101573
vn 0.27542648 0 0.9613222
vn 0.35935614 0 0.9332005
vn 0.27542648 0 0.9613222
vn 0.19760144 0 0.9802824
vn 0.27542648 0 0.9613222
vn 0.19760144 0 0.9802824
vn 0.12741001 0 0.99185014
vn 0.19760144 0 0.9802824
vn 0.12741001 0 0.99185014
vn 0.059986133 0 0.9981993
vn 0.12741001 0 0.99185014
vn 0.059986133 0 0.9981993
vn -0.0043868907 0 0.99999046
vn 0.059986133 0 0.9981993
vn -0.0043868907 0 0.99999046
vn -0.06866483 0 0.9976398
vn -0.0043868907 0 0.99999046
vn -0.06866483 0 0.9976398
vn -0.10147467 0 0.99483806
vn -0.06866483 0 0.9976398
vn -0.10147467 0 0.99483806
vn -0.10147467 0 0.99483806
g FX_MESH_CH0187_Hud_15_0
f 3/3/3 2/2/2 1/1/1
f 4/4/4 3/3/3 1/1/1
f 4/4/4 1/1/1 5/5/5
f 6/6/6 3/3/3 4/4/4
f 7/7/7 4/4/4 5/5/5
f 8/8/8 6/6/6 4/4/4
f 8/8/8 4/4/4 7/7/7
f 9/9/9 6/6/6 8/8/8
f 10/10/10 8/8/8 7/7/7
f 11/11/11 9/9/9 8/8/8
f 11/11/11 8/8/8 10/10/10
f 12/12/12 9/9/9 11/11/11
f 13/13/13 11/11/11 10/10/10
f 14/14/14 12/12/12 11/11/11
f 14/14/14 11/11/11 13/13/13
f 15/15/15 12/12/12 14/14/14
f 16/16/16 14/14/14 13/13/13
f 17/17/17 15/15/15 14/14/14
f 17/17/17 14/14/14 16/16/16
f 18/18/18 15/15/15 17/17/17
f 19/19/19 17/17/17 16/16/16
f 20/20/20 18/18/18 17/17/17
f 20/20/20 17/17/17 19/19/19
f 21/21/21 18/18/18 20/20/20
f 22/22/22 20/20/20 19/19/19
f 23/23/23 21/21/21 20/20/20
f 23/23/23 20/20/20 22/22/22
f 24/24/24 21/21/21 23/23/23
f 25/25/25 23/23/23 22/22/22
f 26/26/26 24/24/24 23/23/23
f 26/26/26 23/23/23 25/25/25
f 27/27/27 26/26/26 25/25/25
