g FX_MESH_CH0187_Hud_04
v -0.18185417 -0.031833734 0
v -0.19999999 -0.049999997 0
v -0.19999999 0.049999997 0
v -0.18184999 -0.049999997 0
v -0 -0.049999997 0
v 1.9321054E-05 -0.031833734 0
v 0.18188998 -0.049999997 0
v 0.18189281 -0.031833734 0
v 0.19999999 -0.049999997 0
v 0.19999999 -0.031830005 0
v 0.18189281 0.33144608 0
v 0.19999999 0.33145 0
v 0.19999999 0.14987157 0
v 0.18189281 0.14980616 0
v 0.18188998 0.3496147 0
v 0.19999999 0.3496147 0
v 0.19999999 0.33145 0
v 0.18189281 0.33144608 0
v 0.18189281 0.14980616 0
v 0.19999999 0.14987157 0
v 0.19999999 -0.031830005 0
v 0.18189281 -0.031833734 0
v -0.20009437 0.33145 0
v -0.20009437 0.3496147 0
v -0.18197 0.3496147 0
v -0.18196861 0.33144608 0
v -3.791681E-05 0.33144608 0
v -3.145218E-05 0.3496147 0
v 0.18189281 0.33144608 0
v 0.18188998 0.3496147 0
v -0.18196861 0.15038708 0
v -0.20009437 0.33145 0
v -0.18196861 0.33144608 0
v -0.20009437 0.15019096 0
v -0.20009437 0.15019096 0
v -0.18196861 0.15038708 0
v -0.20009437 0.05063881 0
v -0.18196861 -0.03067189 0
vt 0.09001077 0.24992742
vt 0.008007305 0.00019581674
vt 0.008007305 0.24992742
vt 0.09001077 0.00019581674
vt 0.17200974 0.00019581674
vt 0.17200974 0.24992742
vt 0.25397664 0.00019581674
vt 0.25397664 0.24992742
vt 0.3359143 0.00019581674
vt 0.3359143 0.24992742
vt 0.4179988 0.24985875
vt 0.49999523 0.24985875
vt 0.49999523 0.00041650797
vt 0.4179988 0.00041650797
vt 0.49999523 0.2498002
vt 0.58198714 0.2498002
vt 0.58198714 0.00016687883
vt 0.49999523 0.00016687883
vt 0.33600736 0.24992737
vt 0.4179988 0.24992737
vt 0.4179988 0.00055187923
vt 0.33600736 0.00055187923
vt 0.5824362 -0.00057184696
vt 0.5824362 0.24918634
vt 0.66442174 0.24918634
vt 0.66442174 -0.00057184696
vt 0.74642295 -0.00057184696
vt 0.74642295 0.24918634
vt 0.82842344 -0.00057184696
vt 0.82842344 0.24918634
vt 0.99233353 -0.00032270388
vt 0.91036904 0.24918634
vt 0.99233353 0.24918634
vt 0.91036904 -0.00032270388
vt 0.8284447 0.24918628
vt 0.91044956 0.24918628
vt 0.8284447 -0.0001892053
vt 0.91044956 -0.0001892053
vn -0 0 1
vn -0 0 1
vn -0 0 1
vn -0 0 1
vn -0 0 1
vn -0 0 1
vn -0 0 1
vn -0 0 1
vn -0 0 1
vn -0 0 1
vn -0 0 1
vn -0 0 1
vn -0 0 1
vn -0 0 1
vn -0 0 1
vn -0 0 1
vn -0 0 1
vn -0 0 1
vn -0 0 1
vn -0 0 1
vn -0 0 1
vn -0 0 1
vn -0 0 1
vn -0 0 1
vn -0 0 1
vn -0 0 1
vn -0 0 1
vn -0 0 1
vn -0 0 1
vn -0 0 1
vn -0 0 1
vn -0 0 1
vn -0 0 1
vn -0 0 1
vn -0 0 1
vn -0 0 1
vn -0 0 1
vn -0 0 1
g FX_MESH_CH0187_Hud_04_0
f 3/3/3 2/2/2 1/1/1
f 2/2/2 4/4/4 1/1/1
f 1/1/1 4/4/4 5/5/5
f 5/5/5 6/6/6 1/1/1
f 6/6/6 5/5/5 7/7/7
f 7/7/7 8/8/8 6/6/6
f 7/7/7 9/9/9 8/8/8
f 8/8/8 9/9/9 10/10/10
f 13/13/13 12/12/12 11/11/11
f 11/11/11 14/14/14 13/13/13
f 17/17/17 16/16/16 15/15/15
f 15/15/15 18/18/18 17/17/17
f 21/21/21 20/20/20 19/19/19
f 19/19/19 22/22/22 21/21/21
f 25/25/25 24/24/24 23/23/23
f 23/23/23 26/26/26 25/25/25
f 27/27/27 25/25/25 26/26/26
f 25/25/25 27/27/27 28/28/28
f 28/28/28 27/27/27 29/29/29
f 29/29/29 30/30/30 28/28/28
f 33/33/33 32/32/32 31/31/31
f 34/34/34 31/31/31 32/32/32
f 37/37/37 36/36/36 35/35/35
f 36/36/36 37/37/37 38/38/38
