g FX_MESH_CH0187_Hud_22a
v 0.04755889 -0.14122945 2.3191403E-08
v -0.04755967 -0.14122836 2.8062008E-08
v -7.8122575E-08 -0.22360401 5.3662363E-09
v 0.098291576 0.11174092 -1.4284845E-07
v 0.14584994 0.029365322 -7.185612E-08
v 0.19340953 0.11174094 -2.051897E-07
v -0.14627364 0.029366503 -1.0604651E-07
v -0.09871341 0.111741066 -1.4569108E-07
v -0.19383264 0.11174104 -2.3450804E-07
vt 0.16666666 0.5
vt 0.6666666 1
vt 0.3333333 0.375
vt 0.16666666 0.5
vt 0.6666666 1
vt 0.3333333 0.375
vt 0.16666666 0.5
vt 0.6666666 1
vt 0.3333333 0.375
vn -0 0 -1
vn -0 0 -1
vn -0 0 -1
vn -0 0 -1
vn -0 0 -1
vn -0 0 -1
vn -0 0 -1
vn -0 0 -1
vn -0 0 -1
g FX_MESH_CH0187_Hud_22a_0
f 3/3/3 2/2/2 1/1/1
f 6/6/6 5/5/5 4/4/4
f 9/9/9 8/8/8 7/7/7
