g FX_MESH_CH0187_Hud_11
v -0.441368 -0.18282087 3.774895E-08
v -0.4265152 -0.18472248 0.19134167
v -0.43003973 -0.17812853 0.19134167
v -0.43791696 -0.18927728 3.774895E-08
v -0.38702548 -0.25860247 0.19134167
v -0.39722064 -0.2654147 3.774895E-08
v -0.329138 -0.32913846 0.19134167
v -0.33780834 -0.33780873 3.774895E-08
v -0.2654142 -0.397221 3.774895E-08
v -0.25860196 -0.38702583 0.19134167
v -0.18282032 -0.44136825 3.774895E-08
v -0.17812797 -0.43003997 0.19134167
v -0.09320075 -0.46855396 3.774895E-08
v -0.09080863 -0.45652792 0.19134167
v 4.6123074E-07 -0.47773337 3.774895E-08
v 4.492246E-07 -0.46547174 0.19134167
v 0.09080952 -0.45652774 0.19134167
v 0.09320165 -0.46855375 3.774895E-08
v 0.17812881 -0.4300396 0.19134167
v 0.18282117 -0.44136786 3.774895E-08
v 0.25860274 -0.38702533 0.19134167
v 0.26541495 -0.3972205 3.774895E-08
v 0.32913864 -0.32913783 0.19134167
v 0.337809 -0.33780807 3.774895E-08
v 0.39722118 -0.26541394 3.774895E-08
v 0.38702598 -0.25860173 0.19134167
v 0.4413684 -0.18282 3.774895E-08
v 0.4300401 -0.1781277 0.19134167
v -0.41373172 -0.17137352 3.774895E-08
v -0.3996299 -0.17340557 0.19134168
v -0.4030754 -0.16695952 0.19134168
v -0.41020715 -0.17796747 3.774895E-08
v -0.36275822 -0.2423876 0.19134168
v -0.37234864 -0.24879573 3.774895E-08
v -0.30850044 -0.3085008 0.19134168
v -0.31665644 -0.3166568 3.774895E-08
v -0.24879526 -0.37234896 3.774895E-08
v -0.24238712 -0.36275855 0.19134168
v -0.171373 -0.41373193 3.774895E-08
v -0.16695902 -0.40307564 0.19134168
v -0.08736498 -0.4392154 3.774895E-08
v -0.085114755 -0.4279028 0.19134168
v -0.43003973 -0.17812853 0.19134167
v -0.4265152 -0.18472248 0.19134167
v -0.41020715 -0.17796747 5.7220458E-08
v -0.41373172 -0.17137352 5.7220458E-08
v 0.441368 0.18282083 3.774895E-08
v 0.4265152 0.18472244 0.19134167
v 0.43003973 0.17812848 0.19134167
v 0.43791696 0.18927725 3.774895E-08
v 0.3870255 0.25860244 0.19134167
v 0.39722067 0.26541469 3.774895E-08
v 0.32913807 0.3291384 0.19134167
v 0.33780837 0.33780867 3.774895E-08
v 0.26541424 0.39722094 3.774895E-08
v 0.258602 0.38702577 0.19134167
v 0.18282035 0.44136825 3.774895E-08
v 0.178128 0.43003997 0.19134167
v 0.09320079 0.46855396 3.774895E-08
v 0.09080867 0.45652792 0.19134167
v -4.1946592E-07 0.47773337 3.774895E-08
v -4.0853178E-07 0.46547174 0.19134167
v -0.09080948 0.45652774 0.19134167
v -0.093201615 0.46855375 3.774895E-08
v -0.17812878 0.4300396 0.19134167
v -0.18282114 0.44136786 3.774895E-08
v -0.25860268 0.38702536 0.19134167
v -0.26541492 0.39722052 3.774895E-08
v -0.3291386 0.32913786 0.19134167
v -0.33780894 0.3378081 3.774895E-08
v -0.39722115 0.26541397 3.774895E-08
v -0.38702595 0.25860175 0.19134167
v -0.4413684 0.18282005 3.774895E-08
v -0.4300401 0.17812774 0.19134167
v 0.41373172 0.17137347 3.774895E-08
v 0.3996299 0.17340553 0.19134168
v 0.4030754 0.1669595 0.19134168
v 0.41020715 0.17796743 3.774895E-08
v 0.36275825 0.24238756 0.19134168
v 0.37234867 0.24879569 3.774895E-08
v 0.30850047 0.30850077 0.19134168
v 0.31665644 0.31665677 3.774895E-08
v 0.2487953 0.37234893 3.774895E-08
v 0.24238716 0.36275852 0.19134168
v 0.17137304 0.41373193 3.774895E-08
v 0.16695905 0.40307564 0.19134168
v 0.08736502 0.4392154 3.774895E-08
v 0.08511479 0.4279028 0.19134168
v 0.43003973 0.17812848 0.19134167
v 0.4265152 0.18472244 0.19134167
v 0.41020715 0.17796743 5.7220458E-08
v 0.41373172 0.17137347 5.7220458E-08
vt 0.31249997 0.5
vt 0.32812497 0.625
vt 0.31249997 0.625
vt 0.32812497 0.5
vt 0.34374997 0.625
vt 0.34374997 0.5
vt 0.375 0.625
vt 0.375 0.5
vt 0.40625 0.5
vt 0.40625 0.625
vt 0.4375 0.5
vt 0.4375 0.625
vt 0.46875003 0.5
vt 0.46875003 0.625
vt 0.50000006 0.5
vt 0.50000006 0.625
vt 0.53125006 0.625
vt 0.53125006 0.5
vt 0.56250006 0.625
vt 0.56250006 0.5
vt 0.59375006 0.625
vt 0.59375006 0.5
vt 0.62500006 0.625
vt 0.62500006 0.5
vt 0.6562501 0.5
vt 0.6562501 0.625
vt 0.6875001 0.5
vt 0.6875001 0.625
vt 0.31249997 0.5
vt 0.32812497 0.625
vt 0.31249997 0.625
vt 0.32812497 0.5
vt 0.34374997 0.625
vt 0.34374997 0.5
vt 0.375 0.625
vt 0.375 0.5
vt 0.40625 0.5
vt 0.40625 0.625
vt 0.4375 0.5
vt 0.4375 0.625
vt 0.46875003 0.5
vt 0.46875003 0.625
vt 0.31249997 0.625
vt 0.32812497 0.625
vt 0.32812497 0.625
vt 0.31249997 0.625
vt 0.31249997 0.5
vt 0.32812497 0.625
vt 0.31249997 0.625
vt 0.32812497 0.5
vt 0.34374997 0.625
vt 0.34374997 0.5
vt 0.375 0.625
vt 0.375 0.5
vt 0.40625 0.5
vt 0.40625 0.625
vt 0.4375 0.5
vt 0.4375 0.625
vt 0.46875003 0.5
vt 0.46875003 0.625
vt 0.50000006 0.5
vt 0.50000006 0.625
vt 0.53125006 0.625
vt 0.53125006 0.5
vt 0.56250006 0.625
vt 0.56250006 0.5
vt 0.59375006 0.625
vt 0.59375006 0.5
vt 0.62500006 0.625
vt 0.62500006 0.5
vt 0.6562501 0.5
vt 0.6562501 0.625
vt 0.6875001 0.5
vt 0.6875001 0.625
vt 0.31249997 0.5
vt 0.32812497 0.625
vt 0.31249997 0.625
vt 0.32812497 0.5
vt 0.34374997 0.625
vt 0.34374997 0.5
vt 0.375 0.625
vt 0.375 0.5
vt 0.40625 0.5
vt 0.40625 0.625
vt 0.4375 0.5
vt 0.4375 0.625
vt 0.46875003 0.5
vt 0.46875003 0.625
vt 0.31249997 0.625
vt 0.32812497 0.625
vt 0.32812497 0.625
vt 0.31249997 0.625
vn 0.8801325 0.47044253 -0.063644595
vn 0.8801328 0.4704419 -0.06364458
vn 0.8801325 0.47044247 -0.06364459
vn 0.8801328 0.4704419 -0.06364457
vn 0.8297673 0.5544334 -0.063951276
vn 0.8297674 0.5544334 -0.06395128
vn 0.70565885 0.70565987 -0.06395128
vn 0.7056588 0.70565975 -0.063951276
vn 0.5544324 0.82976806 -0.063951276
vn 0.5544324 0.82976806 -0.063951276
vn 0.3818993 0.92198867 -0.06395126
vn 0.38189927 0.92198867 -0.06395126
vn 0.19469005 0.97877777 -0.06395121
vn 0.19469003 0.97877777 -0.06395121
vn -1.0240198E-06 0.99795306 -0.06395119
vn -1.0206267E-06 0.99795306 -0.063951194
vn -0.19469203 0.9787774 -0.063951194
vn -0.19469203 0.9787774 -0.063951194
vn -0.38190094 0.92198795 -0.06395119
vn -0.38190097 0.92198795 -0.063951194
vn -0.55443394 0.82976705 -0.06395124
vn -0.554434 0.829767 -0.06395124
vn -0.7056603 0.70565844 -0.06395131
vn -0.70566034 0.70565826 -0.0639513
vn -0.82976836 0.5544319 -0.063951366
vn -0.82976836 0.55443186 -0.063951366
vn -0.880134 0.47043985 -0.0636447
vn -0.880134 0.47043985 -0.0636447
vn 0.88033736 0.47055295 -0.05988335
vn 0.8803379 0.47055206 -0.05988336
vn 0.88033736 0.47055295 -0.05988335
vn 0.8803379 0.47055206 -0.05988336
vn 0.8299628 0.55456394 -0.060172047
vn 0.8299628 0.55456394 -0.060172047
vn 0.7058252 0.70582587 -0.060172025
vn 0.7058251 0.70582587 -0.06017202
vn 0.554563 0.8299633 -0.06017201
vn 0.554563 0.8299633 -0.06017201
vn 0.38198927 0.9222058 -0.060171902
vn 0.3819893 0.9222058 -0.060171902
vn 0.28976297 0.9552232 -0.059883095
vn 0.28976297 0.9552232 -0.059883103
vn -0.87822735 -0.46942368 -0.09142346
vn -0.87822723 -0.46942365 -0.09142345
vn -0.87822735 -0.46942368 -0.09142346
vn -0.87822723 -0.46942365 -0.09142345
vn -0.8801325 -0.47044253 -0.063644595
vn -0.880133 -0.4704418 -0.06364459
vn -0.8801325 -0.47044247 -0.06364459
vn -0.880133 -0.47044173 -0.06364457
vn -0.82976747 -0.5544333 -0.06395128
vn -0.82976747 -0.5544332 -0.063951276
vn -0.70565885 -0.70565987 -0.06395128
vn -0.7056588 -0.70565975 -0.063951276
vn -0.5544325 -0.8297679 -0.06395127
vn -0.5544325 -0.8297679 -0.063951276
vn -0.38189948 -0.9219886 -0.06395127
vn -0.38189945 -0.92198867 -0.06395127
vn -0.19469005 -0.97877777 -0.06395121
vn -0.19469003 -0.97877777 -0.06395121
vn 1.0240198E-06 -0.99795306 -0.06395119
vn 1.0206267E-06 -0.99795306 -0.063951194
vn 0.19469203 -0.9787774 -0.063951194
vn 0.19469203 -0.9787774 -0.063951194
vn 0.38190076 -0.92198807 -0.06395119
vn 0.3819008 -0.92198807 -0.0639512
vn 0.55443376 -0.8297671 -0.06395125
vn 0.55443376 -0.8297671 -0.06395125
vn 0.7056603 -0.70565844 -0.06395131
vn 0.7056603 -0.7056584 -0.063951306
vn 0.8297682 -0.5544321 -0.06395136
vn 0.8297683 -0.55443203 -0.063951366
vn 0.8801338 -0.47044012 -0.06364469
vn 0.8801338 -0.47044006 -0.06364469
vn -0.88033736 -0.47055295 -0.05988335
vn -0.880338 -0.47055185 -0.05988336
vn -0.88033736 -0.47055295 -0.05988335
vn -0.8803379 -0.47055188 -0.059883352
vn -0.82996285 -0.5545638 -0.06017205
vn -0.82996285 -0.55456376 -0.060172044
vn -0.7058251 -0.70582587 -0.060172025
vn -0.7058251 -0.70582587 -0.06017202
vn -0.5545632 -0.82996327 -0.06017202
vn -0.5545632 -0.82996327 -0.06017202
vn -0.38198942 -0.9222057 -0.060171902
vn -0.38198942 -0.9222057 -0.060171895
vn -0.28976297 -0.9552232 -0.059883095
vn -0.28976297 -0.9552232 -0.059883103
vn 0.87822735 0.46942368 -0.09142346
vn 0.87822723 0.46942365 -0.09142345
vn 0.87822735 0.46942368 -0.09142346
vn 0.87822723 0.46942365 -0.09142345
g FX_MESH_CH0187_Hud_11_0
f 3/3/3 2/2/2 1/1/1
f 4/4/4 1/1/1 2/2/2
f 2/2/2 5/5/5 4/4/4
f 6/6/6 4/4/4 5/5/5
f 6/6/6 5/5/5 7/7/7
f 7/7/7 8/8/8 6/6/6
f 9/9/9 8/8/8 7/7/7
f 9/9/9 7/7/7 10/10/10
f 11/11/11 9/9/9 10/10/10
f 11/11/11 10/10/10 12/12/12
f 13/13/13 11/11/11 12/12/12
f 13/13/13 12/12/12 14/14/14
f 15/15/15 13/13/13 14/14/14
f 15/15/15 14/14/14 16/16/16
f 15/15/15 16/16/16 17/17/17
f 17/17/17 18/18/18 15/15/15
f 18/18/18 17/17/17 19/19/19
f 19/19/19 20/20/20 18/18/18
f 20/20/20 19/19/19 21/21/21
f 21/21/21 22/22/22 20/20/20
f 22/22/22 21/21/21 23/23/23
f 23/23/23 24/24/24 22/22/22
f 25/25/25 24/24/24 23/23/23
f 25/25/25 23/23/23 26/26/26
f 27/27/27 25/25/25 26/26/26
f 27/27/27 26/26/26 28/28/28
f 31/31/31 30/30/30 29/29/29
f 32/32/32 29/29/29 30/30/30
f 30/30/30 33/33/33 32/32/32
f 34/34/34 32/32/32 33/33/33
f 34/34/34 33/33/33 35/35/35
f 35/35/35 36/36/36 34/34/34
f 37/37/37 36/36/36 35/35/35
f 37/37/37 35/35/35 38/38/38
f 39/39/39 37/37/37 38/38/38
f 39/39/39 38/38/38 40/40/40
f 41/41/41 39/39/39 40/40/40
f 41/41/41 40/40/40 42/42/42
f 45/45/45 44/44/44 43/43/43
f 43/43/43 46/46/46 45/45/45
f 49/49/49 48/48/48 47/47/47
f 50/50/50 47/47/47 48/48/48
f 48/48/48 51/51/51 50/50/50
f 52/52/52 50/50/50 51/51/51
f 52/52/52 51/51/51 53/53/53
f 53/53/53 54/54/54 52/52/52
f 55/55/55 54/54/54 53/53/53
f 55/55/55 53/53/53 56/56/56
f 57/57/57 55/55/55 56/56/56
f 57/57/57 56/56/56 58/58/58
f 59/59/59 57/57/57 58/58/58
f 59/59/59 58/58/58 60/60/60
f 61/61/61 59/59/59 60/60/60
f 61/61/61 60/60/60 62/62/62
f 61/61/61 62/62/62 63/63/63
f 63/63/63 64/64/64 61/61/61
f 64/64/64 63/63/63 65/65/65
f 65/65/65 66/66/66 64/64/64
f 66/66/66 65/65/65 67/67/67
f 67/67/67 68/68/68 66/66/66
f 68/68/68 67/67/67 69/69/69
f 69/69/69 70/70/70 68/68/68
f 71/71/71 70/70/70 69/69/69
f 71/71/71 69/69/69 72/72/72
f 73/73/73 71/71/71 72/72/72
f 73/73/73 72/72/72 74/74/74
f 77/77/77 76/76/76 75/75/75
f 78/78/78 75/75/75 76/76/76
f 76/76/76 79/79/79 78/78/78
f 80/80/80 78/78/78 79/79/79
f 80/80/80 79/79/79 81/81/81
f 81/81/81 82/82/82 80/80/80
f 83/83/83 82/82/82 81/81/81
f 83/83/83 81/81/81 84/84/84
f 85/85/85 83/83/83 84/84/84
f 85/85/85 84/84/84 86/86/86
f 87/87/87 85/85/85 86/86/86
f 87/87/87 86/86/86 88/88/88
f 91/91/91 90/90/90 89/89/89
f 89/89/89 92/92/92 91/91/91
