g FX_MESH_CH0187_Hud_Radar_10
v 0.22408222 0.2985865 0
v 0.2131324 0.29066628 0
v 0.13775703 0.4083651 0
v 0.14621867 0.4170336 0
v 0.11963783 0.43665823 0
v 0.14563042 0.4519783 0
v 0.10151863 0.464822 -2.9656475E-09
v 0.105044246 0.50817853 -3.0683878E-09
v -0 0.50817853 -3.0683878E-09
v -0 0.464822 -2.9656473E-09
v -0.0973265 0.464822 -2.9656473E-09
v -0.10353477 0.50817853 -3.0683878E-09
v -0.14143829 0.4519783 -1.2731416E-08
v -0.1154457 0.43665823 -1.0459073E-08
v -0.14202651 0.4170336 -1.2782844E-08
v -0.13356487 0.4083651 -1.2043103E-08
v -0.21989006 0.2985865 -1.9589892E-08
v -0.20894027 0.29066628 -1.8632626E-08
vt 1 1
vt 1 0
vt 1 0
vt 1 1
vt 1 0
vt 1 1
vt 1 0
vt 1 1
vt 0 1
vt 0 0
vt 1 0
vt 1 1
vt 1 1
vt 1 0
vt 1 1
vt 1 0
vt 1 1
vt 1 0
vn -0 0 1
vn -0 0 1
vn -0 0 1
vn -0 0 1
vn -0 0 1
vn -0 0 1
vn -0 0 1
vn -0 0 1
vn -0 0 1
vn -0 0 1
vn -0 0 1
vn -0 0 1
vn -2.0104778E-07 0 1
vn -2.0104778E-07 0 1
vn -0 0 1
vn -0 0 1
vn -0 0 1
vn -0 0 1
g FX_MESH_CH0187_Hud_Radar_10_0
f 3/3/3 2/2/2 1/1/1
f 1/1/1 4/4/4 3/3/3
f 3/3/3 4/4/4 5/5/5
f 5/5/5 4/4/4 6/6/6
f 6/6/6 7/7/7 5/5/5
f 8/8/8 7/7/7 6/6/6
f 7/7/7 8/8/8 9/9/9
f 9/9/9 10/10/10 7/7/7
f 11/11/11 10/10/10 9/9/9
f 9/9/9 12/12/12 11/11/11
f 11/11/11 12/12/12 13/13/13
f 13/13/13 14/14/14 11/11/11
f 15/15/15 14/14/14 13/13/13
f 14/14/14 15/15/15 16/16/16
f 17/17/17 16/16/16 15/15/15
f 16/16/16 17/17/17 18/18/18
