g OL_CH0193_Hotdog
v 4.9645976E-10 0.004059379 -0.027727699
v -0.0038348602 -8.8715435E-09 -0.027727699
v -0 -0.0040593985 -0.027727699
v 0.0038348602 -9.2863655E-09 -0.027727699
v 4.9645976E-10 0.004059379 -0.027727699
v 4.9645976E-10 0.0040593795 0.04930847
v -0.0038348602 -8.8715435E-09 0.04930847
v -0.0038348602 -8.8715435E-09 -0.027727699
v 0.0038348602 -9.2863655E-09 -0.027727699
v 0.0038348602 -9.2863655E-09 0.04930847
v 4.9645976E-10 0.0040593795 0.04930847
v 4.9645976E-10 0.004059379 -0.027727699
v -0 -0.0040593985 -0.027727699
v -0 -0.004059398 0.04930847
v 0.0038348602 -9.2863655E-09 0.04930847
v 0.0038348602 -9.2863655E-09 -0.027727699
v -0.0038348602 -8.8715435E-09 -0.027727699
v -0.0038348602 -8.8715435E-09 0.04930847
v -0 -0.004059398 0.04930847
v -0 -0.0040593985 -0.027727699
v 0.021267014 4.7683715E-09 0.17033611
v 0.018417777 0.010633504 0.1478276
v 0.021267014 3.0994414E-09 0.1478276
v 0.021267014 -4.7683715E-09 0.041716002
v 0.018417777 0.010633507 0.17033611
v 0.019098053 -9.536743E-09 0.17944206
v 0.018417777 0.010633492 0.041716002
v 0.019098053 -4.7683715E-09 0.03260986
v 0.016539421 0.009549026 0.17944206
v 0.01165039 -9.536743E-09 0.18477347
v 0.010633507 0.018417766 0.1478276
v 0.016539421 0.009549026 0.03260986
v 0.01165039 -1.4305114E-08 0.027278442
v 0.010089531 0.0058251857 0.18477347
v -5.905622E-10 -1.0495098E-08 0.1870416
v 0.005825195 0.010089526 0.18477347
v 0.009549026 0.016539402 0.17944206
v 0.010633507 0.018417768 0.17033611
v 0.010089531 0.005825181 0.027278442
v 1.1937412E-09 -1.04256035E-08 0.025010385
v 0.005825195 0.010089521 0.027278442
v 0.009549045 0.016539406 0.03260986
v 0.010633507 0.018417759 0.041716002
v 1.5735626E-08 0.021267 0.1478276
v 1.9073486E-08 0.021267004 0.17033611
v -0 0.019098056 0.17944206
v -0 0.021266997 0.041716002
v -0 0.019098062 0.03260986
v -0 0.011650376 0.027278442
v -0.005825195 0.010089521 0.027278442
v -0 0.011650381 0.18477347
v -0.005825195 0.010089526 0.18477347
v -0.010633491 0.018417759 0.1478276
v -0.009549045 0.016539406 0.03260986
v -0.010089531 0.005825181 0.027278442
v -0.01165039 -1.4305114E-08 0.027278442
v -0.016539421 0.009549026 0.03260986
v -0.019098071 -9.536743E-09 0.03260986
v -0.018417777 0.010633492 0.041716002
v -0.021267014 -9.536743E-09 0.041716002
v -0.021266997 -9.536743E-09 0.1478276
v -0.010633507 0.018417753 0.041716002
v -0.018417763 0.010633492 0.1478276
v -0.018417759 0.010633492 0.17033611
v -0.021266993 -9.536743E-09 0.17033611
v -0.019098071 -4.7683715E-09 0.17944206
v -0.010633487 0.01841776 0.17033611
v -0.009549026 0.016539402 0.17944206
v -0.016539421 0.009549026 0.17944206
v -0.01165039 -9.536743E-09 0.18477347
v -0.010089531 0.0058251857 0.18477347
v -0.021266993 -9.536743E-09 0.17033611
v -0.018417763 -0.010633515 0.1478276
v -0.021266997 -9.536743E-09 0.1478276
v -0.021267014 -9.536743E-09 0.041716002
v -0.018417759 -0.010633516 0.17033611
v -0.019098071 -4.7683715E-09 0.17944206
v -0.018417777 -0.0106335115 0.041716002
v -0.019098071 -9.536743E-09 0.03260986
v -0.016539402 -0.009549045 0.17944206
v -0.01165039 -9.536743E-09 0.18477347
v -0.010633491 -0.018417781 0.1478276
v -0.016539421 -0.009549045 0.03260986
v -0.01165039 -1.4305114E-08 0.027278442
v -0.010089531 -0.005825205 0.18477347
v -5.905622E-10 -1.0495098E-08 0.1870416
v -0.005825195 -0.010089545 0.18477347
v -0.009549026 -0.016539421 0.17944206
v -0.010633487 -0.018417783 0.17033611
v -0.010089531 -0.0058252094 0.027278442
v 1.1937412E-09 -1.04256035E-08 0.025010385
v -0.005825195 -0.01008955 0.027278442
v -0.009549026 -0.016539425 0.03260986
v -0.010633507 -0.018417777 0.041716002
v 1.5735626E-08 -0.021267023 0.1478276
v 1.9073486E-08 -0.021267023 0.17033611
v -0 -0.019098077 0.17944206
v -0 -0.021267017 0.041716002
v -0 -0.01909808 0.03260986
v -0 -0.011650405 0.027278442
v 0.005825195 -0.01008955 0.027278442
v -0 -0.0116504 0.18477347
v 0.005825195 -0.010089545 0.18477347
v 0.010633507 -0.018417787 0.1478276
v 0.009549026 -0.016539425 0.03260986
v 0.010089531 -0.0058252094 0.027278442
v 0.01165039 -1.4305114E-08 0.027278442
v 0.016539421 -0.00954905 0.03260986
v 0.019098053 -4.7683715E-09 0.03260986
v 0.018417777 -0.010633516 0.041716002
v 0.021267014 -4.7683715E-09 0.041716002
v 0.021267014 3.0994414E-09 0.1478276
v 0.010633507 -0.018417777 0.041716002
v 0.018417777 -0.0106335245 0.1478276
v 0.018417777 -0.010633525 0.17033611
v 0.021267014 4.7683715E-09 0.17033611
v 0.019098053 -9.536743E-09 0.17944206
v 0.010633507 -0.018417787 0.17033611
v 0.009549026 -0.016539421 0.17944206
v 0.016539421 -0.00954904 0.17944206
v 0.01165039 -9.536743E-09 0.18477347
v 0.010089531 -0.005825205 0.18477347
vt 0.9967243 0.12969396
vt 0.9967243 0.070515834
vt 0.9334468 0.070515834
vt 0.9334468 0.12969396
vt 0.96516985 0.0058212653
vt 0.96516985 0.06491219
vt 0.9335504 0.06491219
vt 0.9335504 0.0058212653
vt 0.9967894 0.0058212653
vt 0.9967894 0.06491219
vt 0.96516985 0.06491219
vt 0.96516985 0.0058212653
vt 0.96516985 0.0058212653
vt 0.96516985 0.06491219
vt 0.9967894 0.06491219
vt 0.9967894 0.0058212653
vt 0.9335504 0.0058212653
vt 0.9335504 0.06491219
vt 0.96516985 0.06491219
vt 0.96516985 0.0058212653
vt 0.8049459 0.89689875
vt 0.74924994 0.7579842
vt 0.8049459 0.7579842
vt 0.8049459 0.10310137
vt 0.74924994 0.89689875
vt 0.7869508 0.95309794
vt 0.74924994 0.10310137
vt 0.7869508 0.04690212
vt 0.73693514 0.95309794
vt 0.72515947 0.986002
vt 0.693554 0.7579842
vt 0.73693514 0.04690212
vt 0.7251595 0.013998032
vt 0.6946484 0.986002
vt 0.62849957 1
vt 0.66413736 0.986002
vt 0.6869194 0.95309794
vt 0.693554 0.89689875
vt 0.6946485 0.013998032
vt 0.62849957 -5.9604645E-08
vt 0.6641374 0.013998032
vt 0.6869194 0.04690212
vt 0.69355404 0.10310137
vt 0.62849957 0.7579842
vt 0.62849957 0.89689875
vt 0.62849957 0.95309794
vt 0.6284996 0.10310137
vt 0.62849957 0.04690212
vt 0.6284996 0.013998032
vt 0.5928618 0.013998032
vt 0.62849957 0.986002
vt 0.5928618 0.986002
vt 0.56344515 0.7579842
vt 0.57007974 0.04690212
vt 0.56235075 0.013998032
vt 0.53183967 0.013998032
vt 0.52006406 0.04690212
vt 0.47004837 0.04690212
vt 0.5077492 0.10310137
vt 0.45205328 0.10310137
vt 0.45205328 0.7579842
vt 0.56344515 0.10310137
vt 0.5077492 0.7579842
vt 0.5077492 0.89689875
vt 0.45205328 0.89689875
vt 0.47004837 0.95309794
vt 0.56344515 0.89689875
vt 0.57007974 0.95309794
vt 0.52006406 0.95309794
vt 0.53183967 0.986002
vt 0.56235075 0.986002
vt 0.02166686 0.89689875
vt 0.07736279 0.7579842
vt 0.02166686 0.7579842
vt 0.02166686 0.10310137
vt 0.07736279 0.89689875
vt 0.03966194 0.95309794
vt 0.07736279 0.10310137
vt 0.03966194 0.04690212
vt 0.08967763 0.95309794
vt 0.10145324 0.986002
vt 0.13305873 0.7579842
vt 0.08967763 0.04690212
vt 0.10145324 0.013998032
vt 0.1319643 0.986002
vt 0.19811314 1
vt 0.16247535 0.986002
vt 0.13969332 0.95309794
vt 0.13305873 0.89689875
vt 0.1319643 0.013998032
vt 0.19811314 -5.9604645E-08
vt 0.16247535 0.013998032
vt 0.13969332 0.04690212
vt 0.13305873 0.10310137
vt 0.19811314 0.7579842
vt 0.19811314 0.89689875
vt 0.19811311 0.95309794
vt 0.19811314 0.10310137
vt 0.19811311 0.04690212
vt 0.19811314 0.013998032
vt 0.23375094 0.013998032
vt 0.19811314 0.986002
vt 0.23375094 0.986002
vt 0.26316756 0.7579842
vt 0.2565329 0.04690212
vt 0.26426202 0.013998032
vt 0.29477313 0.013998032
vt 0.30654866 0.04690212
vt 0.3565644 0.04690212
vt 0.3188635 0.10310137
vt 0.37455946 0.10310137
vt 0.37455946 0.7579842
vt 0.26316756 0.10310137
vt 0.3188635 0.7579842
vt 0.3188635 0.89689875
vt 0.37455946 0.89689875
vt 0.3565644 0.95309794
vt 0.26316756 0.89689875
vt 0.2565329 0.95309794
vt 0.30654866 0.95309794
vt 0.29477304 0.986002
vt 0.264262 0.986002
vn -0 0 -1
vn -0 0 -1
vn -0 0 -1
vn -0 0 -1
vn -0.7269243 0.6867176 0
vn -0.7269243 0.6867176 0
vn -0.7269243 0.6867176 0
vn -0.7269243 0.6867176 0
vn 0.7269243 0.6867176 0
vn 0.7269243 0.6867176 0
vn 0.7269243 0.6867176 0
vn 0.7269243 0.6867176 0
vn 0.7269244 -0.68671757 0
vn 0.7269244 -0.68671757 0
vn 0.7269244 -0.68671757 0
vn 0.7269244 -0.68671757 0
vn -0.7269244 -0.68671745 0
vn -0.7269244 -0.68671745 0
vn -0.7269244 -0.68671745 0
vn -0.7269244 -0.68671745 0
vn 0.99342513 3.32381E-07 0.11448379
vn 0.8660253 0.5000002 0
vn 1 2.7498842E-07 0
vn 0.99342537 2.1151503E-07 -0.11448142
vn 0.8603313 0.4967127 0.11448383
vn 0.84644485 0 0.5324763
vn 0.8603318 0.49671248 -0.11448106
vn 0.8464462 1.7422906E-07 -0.53247416
vn 0.73304296 0.42322224 0.5324761
vn 0.4246876 0 0.90534
vn 0.4999998 0.8660255 0
vn 0.7330444 0.4232228 -0.53247386
vn 0.42468545 0 -0.90534097
vn 0.36779 0.21234351 0.9053401
vn -0 0 1
vn 0.21234366 0.36779016 0.90534
vn 0.42322212 0.7330431 0.5324762
vn 0.4967123 0.8603315 0.11448373
vn 0.36778817 0.21234223 -0.9053412
vn -0 0 -1
vn 0.21234247 0.36778796 -0.9053412
vn 0.42322335 0.73304427 -0.5324736
vn 0.49671254 0.86033183 -0.11448068
vn -1.3749424E-07 1 0
vn 1.0072152E-07 0.99342513 0.11448348
vn -2.2867559E-07 0.8464452 0.5324759
vn -1.4100999E-07 0.9934255 -0.11448058
vn -0 0.84644663 -0.53247344
vn -0 0.42468494 -0.9053412
vn -0.21234244 0.36778796 -0.9053412
vn -0 0.42468745 0.90534
vn -0.21234366 0.36779016 0.90534
vn -0.4999999 0.86602545 0
vn -0.42322338 0.7330444 -0.5324735
vn -0.36778796 0.21234234 -0.9053412
vn -0.4246851 0 -0.9053411
vn -0.73304427 0.42322317 -0.53247374
vn -0.84644645 0 -0.53247386
vn -0.8603318 0.4967127 -0.114480704
vn -0.9934255 0 -0.11448089
vn -1 0 1.3867788E-07
vn -0.4967126 0.86033183 -0.11448052
vn -0.86602545 0.50000006 1.18573666E-07
vn -0.8603315 0.49671274 0.114482544
vn -0.99342525 -1.762626E-07 0.1144826
vn -0.8464456 -2.6678833E-07 0.5324751
vn -0.49671248 0.8603316 0.11448297
vn -0.4232226 0.7330433 0.53247553
vn -0.73304343 0.42322287 0.5324751
vn -0.4246873 -2.3803533E-07 0.9053401
vn -0.3677898 0.21234371 0.9053402
vn -0.99342525 -1.762626E-07 0.1144826
vn -0.86602545 -0.49999997 1.0950609E-07
vn -1 0 1.3867788E-07
vn -0.9934255 0 -0.11448089
vn -0.8603314 -0.49671277 0.114483036
vn -0.8464456 -2.6678833E-07 0.5324751
vn -0.86033165 -0.49671274 -0.11448093
vn -0.84644645 0 -0.53247386
vn -0.73304313 -0.42322296 0.53247535
vn -0.4246873 -2.3803533E-07 0.9053401
vn -0.4999999 -0.86602545 0
vn -0.73304415 -0.42322344 -0.53247374
vn -0.4246851 0 -0.9053411
vn -0.3677901 -0.21234381 0.90534
vn -0 0 1
vn -0.21234384 -0.36779013 0.90534
vn -0.42322272 -0.73304313 0.5324756
vn -0.49671245 -0.8603315 0.11448324
vn -0.367788 -0.21234263 -0.9053411
vn -0 0 -1
vn -0.21234266 -0.36778829 -0.90534097
vn -0.42322305 -0.73304445 -0.53247356
vn -0.4967127 -0.86033165 -0.114480875
vn -0 -1 0
vn 1.7626267E-07 -0.99342513 0.11448356
vn -1.8511832E-07 -0.84644514 0.53247595
vn -0 -0.9934255 -0.11448085
vn -0 -0.84644663 -0.53247344
vn -0 -0.42468527 -0.9053411
vn 0.21234265 -0.3677884 -0.90534097
vn -0 -0.42468745 0.90534
vn 0.21234374 -0.36779013 0.90534
vn 0.4999998 -0.8660255 0
vn 0.4232229 -0.7330445 -0.5324736
vn 0.36778817 -0.21234246 -0.9053411
vn 0.42468545 0 -0.90534097
vn 0.7330443 -0.42322302 -0.5324737
vn 0.8464462 1.7422906E-07 -0.53247416
vn 0.8603318 -0.49671263 -0.11448126
vn 0.99342537 2.1151503E-07 -0.11448142
vn 1 2.7498842E-07 0
vn 0.4967125 -0.8603318 -0.114480935
vn 0.86602545 -0.4999999 0
vn 0.8603315 -0.4967125 0.11448382
vn 0.99342513 3.32381E-07 0.11448379
vn 0.84644485 0 0.5324763
vn 0.49671236 -0.8603315 0.11448379
vn 0.42322218 -0.73304296 0.5324762
vn 0.73304313 -0.42322204 0.53247607
vn 0.4246876 0 0.90534
vn 0.36779 -0.21234359 0.9053401
g OL_CH0193_Hotdog_0
f 3/3/3 2/2/2 1/1/1
f 4/4/4 3/3/3 1/1/1
f 7/7/7 6/6/6 5/5/5
f 8/8/8 7/7/7 5/5/5
f 11/11/11 10/10/10 9/9/9
f 12/12/12 11/11/11 9/9/9
f 15/15/15 14/14/14 13/13/13
f 16/16/16 15/15/15 13/13/13
f 19/19/19 18/18/18 17/17/17
f 20/20/20 19/19/19 17/17/17
f 23/23/23 22/22/22 21/21/21
f 22/22/22 23/23/23 24/24/24
f 22/22/22 25/25/25 21/21/21
f 26/26/26 21/21/21 25/25/25
f 27/27/27 22/22/22 24/24/24
f 24/24/24 28/28/28 27/27/27
f 29/29/29 26/26/26 25/25/25
f 26/26/26 29/29/29 30/30/30
f 22/22/22 31/31/31 25/25/25
f 31/31/31 22/22/22 27/27/27
f 28/28/28 32/32/32 27/27/27
f 32/32/32 28/28/28 33/33/33
f 29/29/29 34/34/34 30/30/30
f 30/30/30 34/34/34 35/35/35
f 34/34/34 29/29/29 36/36/36
f 35/35/35 34/34/34 36/36/36
f 37/37/37 29/29/29 25/25/25
f 29/29/29 37/37/37 36/36/36
f 31/31/31 38/38/38 25/25/25
f 38/38/38 37/37/37 25/25/25
f 39/39/39 32/32/32 33/33/33
f 40/40/40 39/39/39 33/33/33
f 32/32/32 39/39/39 41/41/41
f 41/41/41 39/39/39 40/40/40
f 32/32/32 42/42/42 27/27/27
f 42/42/42 32/32/32 41/41/41
f 43/43/43 31/31/31 27/27/27
f 42/42/42 43/43/43 27/27/27
f 31/31/31 44/44/44 38/38/38
f 44/44/44 31/31/31 43/43/43
f 37/37/37 38/38/38 45/45/45
f 44/44/44 45/45/45 38/38/38
f 37/37/37 46/46/46 36/36/36
f 46/46/46 37/37/37 45/45/45
f 43/43/43 42/42/42 47/47/47
f 47/47/47 44/44/44 43/43/43
f 48/48/48 42/42/42 41/41/41
f 42/42/42 48/48/48 47/47/47
f 40/40/40 49/49/49 41/41/41
f 49/49/49 48/48/48 41/41/41
f 50/50/50 49/49/49 40/40/40
f 48/48/48 49/49/49 50/50/50
f 46/46/46 51/51/51 36/36/36
f 36/36/36 51/51/51 35/35/35
f 51/51/51 46/46/46 52/52/52
f 35/35/35 51/51/51 52/52/52
f 44/44/44 53/53/53 45/45/45
f 53/53/53 44/44/44 47/47/47
f 48/48/48 54/54/54 47/47/47
f 54/54/54 48/48/48 50/50/50
f 40/40/40 55/55/55 50/50/50
f 56/56/56 55/55/55 40/40/40
f 55/55/55 57/57/57 50/50/50
f 57/57/57 55/55/55 56/56/56
f 57/57/57 54/54/54 50/50/50
f 58/58/58 57/57/57 56/56/56
f 57/57/57 58/58/58 59/59/59
f 54/54/54 57/57/57 59/59/59
f 58/58/58 60/60/60 59/59/59
f 60/60/60 61/61/61 59/59/59
f 54/54/54 62/62/62 47/47/47
f 62/62/62 54/54/54 59/59/59
f 62/62/62 53/53/53 47/47/47
f 59/59/59 63/63/63 62/62/62
f 61/61/61 63/63/63 59/59/59
f 63/63/63 53/53/53 62/62/62
f 63/63/63 61/61/61 64/64/64
f 61/61/61 65/65/65 64/64/64
f 65/65/65 66/66/66 64/64/64
f 53/53/53 63/63/63 67/67/67
f 63/63/63 64/64/64 67/67/67
f 53/53/53 67/67/67 45/45/45
f 67/67/67 68/68/68 45/45/45
f 68/68/68 67/67/67 64/64/64
f 68/68/68 46/46/46 45/45/45
f 46/46/46 68/68/68 52/52/52
f 66/66/66 69/69/69 64/64/64
f 69/69/69 68/68/68 64/64/64
f 68/68/68 69/69/69 52/52/52
f 69/69/69 66/66/66 70/70/70
f 69/69/69 71/71/71 52/52/52
f 71/71/71 69/69/69 70/70/70
f 52/52/52 71/71/71 35/35/35
f 35/35/35 71/71/71 70/70/70
f 74/74/74 73/73/73 72/72/72
f 73/73/73 74/74/74 75/75/75
f 73/73/73 76/76/76 72/72/72
f 77/77/77 72/72/72 76/76/76
f 78/78/78 73/73/73 75/75/75
f 75/75/75 79/79/79 78/78/78
f 80/80/80 77/77/77 76/76/76
f 77/77/77 80/80/80 81/81/81
f 73/73/73 82/82/82 76/76/76
f 82/82/82 73/73/73 78/78/78
f 79/79/79 83/83/83 78/78/78
f 83/83/83 79/79/79 84/84/84
f 80/80/80 85/85/85 81/81/81
f 81/81/81 85/85/85 86/86/86
f 85/85/85 80/80/80 87/87/87
f 86/86/86 85/85/85 87/87/87
f 88/88/88 80/80/80 76/76/76
f 80/80/80 88/88/88 87/87/87
f 82/82/82 89/89/89 76/76/76
f 89/89/89 88/88/88 76/76/76
f 90/90/90 83/83/83 84/84/84
f 91/91/91 90/90/90 84/84/84
f 83/83/83 90/90/90 92/92/92
f 92/92/92 90/90/90 91/91/91
f 83/83/83 93/93/93 78/78/78
f 93/93/93 83/83/83 92/92/92
f 94/94/94 82/82/82 78/78/78
f 93/93/93 94/94/94 78/78/78
f 82/82/82 95/95/95 89/89/89
f 95/95/95 82/82/82 94/94/94
f 88/88/88 89/89/89 96/96/96
f 95/95/95 96/96/96 89/89/89
f 88/88/88 97/97/97 87/87/87
f 97/97/97 88/88/88 96/96/96
f 94/94/94 93/93/93 98/98/98
f 98/98/98 95/95/95 94/94/94
f 99/99/99 93/93/93 92/92/92
f 93/93/93 99/99/99 98/98/98
f 91/91/91 100/100/100 92/92/92
f 100/100/100 99/99/99 92/92/92
f 101/101/101 100/100/100 91/91/91
f 99/99/99 100/100/100 101/101/101
f 97/97/97 102/102/102 87/87/87
f 87/87/87 102/102/102 86/86/86
f 102/102/102 97/97/97 103/103/103
f 86/86/86 102/102/102 103/103/103
f 95/95/95 104/104/104 96/96/96
f 104/104/104 95/95/95 98/98/98
f 99/99/99 105/105/105 98/98/98
f 105/105/105 99/99/99 101/101/101
f 91/91/91 106/106/106 101/101/101
f 107/107/107 106/106/106 91/91/91
f 106/106/106 108/108/108 101/101/101
f 108/108/108 106/106/106 107/107/107
f 108/108/108 105/105/105 101/101/101
f 109/109/109 108/108/108 107/107/107
f 108/108/108 109/109/109 110/110/110
f 105/105/105 108/108/108 110/110/110
f 109/109/109 111/111/111 110/110/110
f 111/111/111 112/112/112 110/110/110
f 105/105/105 113/113/113 98/98/98
f 113/113/113 105/105/105 110/110/110
f 113/113/113 104/104/104 98/98/98
f 110/110/110 114/114/114 113/113/113
f 112/112/112 114/114/114 110/110/110
f 114/114/114 104/104/104 113/113/113
f 114/114/114 112/112/112 115/115/115
f 112/112/112 116/116/116 115/115/115
f 116/116/116 117/117/117 115/115/115
f 104/104/104 114/114/114 118/118/118
f 114/114/114 115/115/115 118/118/118
f 104/104/104 118/118/118 96/96/96
f 118/118/118 119/119/119 96/96/96
f 119/119/119 118/118/118 115/115/115
f 119/119/119 97/97/97 96/96/96
f 97/97/97 119/119/119 103/103/103
f 117/117/117 120/120/120 115/115/115
f 120/120/120 119/119/119 115/115/115
f 119/119/119 120/120/120 103/103/103
f 120/120/120 117/117/117 121/121/121
f 120/120/120 122/122/122 103/103/103
f 122/122/122 120/120/120 121/121/121
f 103/103/103 122/122/122 86/86/86
f 86/86/86 122/122/122 121/121/121
