g 
v 1.3113022E-07 -4.577637E-07 -2.0027153E-07
v 1.0518687 -5.4797744E-07 0.38284954
v 0.8574917 -4.931266E-07 0.71952134
v 0.55968666 -4.52415E-07 0.9694076
v 1.1193751 -6.1035155E-07 -1.2874592E-07
v 0.19437605 -4.307527E-07 1.10237
v 1.0518687 -6.7272555E-07 -0.3828492
v -0.19437762 -4.3075283E-07 1.1023692
v 0.8574917 -7.275764E-07 -0.7195207
v -0.55968755 -4.5241504E-07 0.9694073
v 0.55968755 -7.6828815E-07 -0.96940774
v -0.85749125 -4.931268E-07 0.71952045
v 0.19437762 -7.899503E-07 -1.1023695
v -1.0518693 -5.4797755E-07 0.38284868
v -0.19437762 -7.899503E-07 -1.1023695
v -1.1193749 -6.1035155E-07 -1.2874592E-07
v -0.55968755 -7.682881E-07 -0.9694075
v -1.0518693 -6.7272555E-07 -0.3828492
v -0.85749125 -7.275764E-07 -0.7195207
vt 0.50000006 0.50000024
vt 0.9581001 0.3332649
vt 0.8734469 0.18664066
vt 0.7437496 0.07781247
vt 0.9875 0.5000001
vt 0.5846528 0.019905929
vt 0.9581001 0.66673505
vt 0.4153463 0.019906249
vt 0.8734469 0.81335926
vt 0.25624985 0.07781261
vt 0.74375 0.92218775
vt 0.12655309 0.18664102
vt 0.58465344 0.9800941
vt 0.041899346 0.33326527
vt 0.4153463 0.9800941
vt 0.012500017 0.5000001
vt 0.25624985 0.9221877
vt 0.041899346 0.66673505
vt 0.12655309 0.81335926
vn 1.3631525E-07 1 -1.869566E-07
vn 1.1987366E-07 1 0
vn -0 1 0
vn -0 1 0
vn 1.3631525E-07 1 -1.8695658E-07
vn -0 1 0
vn 1.3631524E-07 1 -1.8695658E-07
vn -0 1 0
vn 1.1987358E-07 1 -2.3212986E-07
vn -0 1 0
vn -0 1 -2.6895515E-07
vn -1.1987345E-07 1 0
vn -0 1 -2.9299116E-07
vn -1.3631525E-07 1 -1.3888497E-07
vn -0 1 -3.0133876E-07
vn -1.3631524E-07 1 -1.8695633E-07
vn -0 1 -2.9299113E-07
vn -1.1987336E-07 1 -2.3213005E-07
vn -0 1 -2.6895503E-07
g _0
f 3/3/3 2/2/2 1/1/1
f 4/4/4 3/3/3 1/1/1
f 2/2/2 5/5/5 1/1/1
f 6/6/6 4/4/4 1/1/1
f 5/5/5 7/7/7 1/1/1
f 8/8/8 6/6/6 1/1/1
f 7/7/7 9/9/9 1/1/1
f 10/10/10 8/8/8 1/1/1
f 9/9/9 11/11/11 1/1/1
f 12/12/12 10/10/10 1/1/1
f 11/11/11 13/13/13 1/1/1
f 14/14/14 12/12/12 1/1/1
f 13/13/13 15/15/15 1/1/1
f 16/16/16 14/14/14 1/1/1
f 15/15/15 17/17/17 1/1/1
f 18/18/18 16/16/16 1/1/1
f 17/17/17 19/19/19 1/1/1
f 19/19/19 18/18/18 1/1/1
