g FX_MESH_Flag_01
v -0.95114607 -0.046379775 -0.022155384
v -1.0499923 0.12744483 -4.7138974E-07
v -0.9747254 0.21362686 -0.00970633
v -0.8901907 0.060924415 -0.029448032
v -0.81892174 -0.18971458 -0.04058377
v -0.806775 0.16146594 -0.03775319
v -0.87843305 0.29230255 -0.019355834
v -0.7554398 0.35388914 -0.027260793
v -0.7762594 -0.06597107 -0.04877028
v -0.6586181 -0.30160514 -0.046627697
v -0.70971113 0.051545944 -0.056638878
v -0.69472647 0.24617569 -0.04575771
v -0.63749164 -0.16566712 -0.06120319
v -0.47570464 -0.38273436 -0.040769618
v -0.5911876 -0.035671234 -0.071806125
v -0.478909 -0.2376445 -0.065418266
v -0.27786583 -0.43329123 -0.030842815
v -0.5754434 0.30477804 -0.049771328
v -0.62774956 0.38879082 -0.030994697
v -0.47879043 0.40520585 -0.031242747
v -0.61292595 0.15395382 -0.063875414
v -0.45563513 -0.09929443 -0.08157254
v -0.3067852 -0.28191033 -0.06488679
v -0.07483574 -0.45268402 -0.026128678
v -0.5065042 0.23153442 -0.066975325
v -0.43438742 0.34426475 -0.049595308
v -0.5130947 0.07951164 -0.079360954
v -0.30824584 -0.13915123 -0.086994484
v -0.1286547 -0.2986473 -0.064759746
v 0.12323662 -0.44032997 -0.031071452
v -0.2789605 0.37544876 -0.039726727
v -0.31333274 0.4164169 -0.022712931
v -0.23571418 0.33820555 -0.05377923
v -0.37746087 0.29025894 -0.06537862
v -0.18494919 0.30627844 -0.06484925
v -0.3100277 0.24510384 -0.0783304
v -0.12829895 0.2807688 -0.07290201
v -0.42323974 0.17145194 -0.08162299
v -0.23428817 0.21010321 -0.08819871
v -0.066630095 0.26201424 -0.07799213
v -0.3285784 0.12593746 -0.093042836
v -0.15279044 0.18590546 -0.09486552
v 0.0021580504 0.24927352 -0.08024083
v -0.39891973 0.024109649 -0.09097815
v -0.22593413 0.09557445 -0.10107876
v -0.06829948 0.17258713 -0.09829368
v 0.07594551 0.24233711 -0.07945368
v -0.27468148 -0.01182785 -0.098818205
v -0.11904945 0.08022041 -0.105889164
v 0.01845787 0.16918297 -0.098472394
v 0.1511531 0.24094604 -0.075500585
v -0.15495491 -0.15566535 -0.09042604
v -0.011777343 0.07907108 -0.107565954
v -0.14514075 -0.02861969 -0.10371958
v 0.111751325 0.17279471 -0.09522249
v 0.221091 0.24379417 -0.06907936
v -0.002018814 -0.15000221 -0.093514316
v 0.09370315 0.09027618 -0.105851345
v -0.01524971 -0.027338104 -0.10631716
v 0.20309402 0.18057506 -0.08866685
v 0.2830963 0.25215414 -0.060036544
v 0.047486342 -0.28858948 -0.06810741
v 0.30785292 -0.39799377 -0.042454045
v 0.20158294 0.10667629 -0.100207895
v 0.14467362 -0.12438751 -0.09589688
v 0.21438354 -0.25400504 -0.0738205
v 0.4735382 -0.33133385 -0.05160499
v 0.11025978 -0.009838257 -0.10636679
v 0.28488404 0.19272186 -0.07923218
v 0.33640152 0.26718178 -0.04791929
v 0.36661452 -0.19934501 -0.0773364
v 0.6223173 -0.25143096 -0.049362436
v 0.28070265 -0.08305496 -0.09524523
v 0.29971144 0.12459873 -0.09111051
v 0.22953354 0.018109435 -0.10262498
v 0.35507828 0.21302468 -0.066359065
v 0.3775209 0.28967956 -0.032238077
v 0.41193435 0.24388008 -0.04909976
v 0.4545581 0.1906226 -0.060920108
v 0.38444945 0.15067443 -0.078400224
v 0.4031244 -0.041140135 -0.08861029
v 0.33995956 0.045145415 -0.094356515
v 0.43706343 0.07907604 -0.08196728
v 0.51778454 0.12958263 -0.06492012
v 0.6069864 0.07072136 -0.05805932
v 0.513219 0.0056999205 -0.07603988
v 0.5024197 -0.14038306 -0.07277437
v 0.7746371 -0.1638436 -0.0287151
v 0.6325305 -0.075282745 -0.05787875
v 0.7474778 0.012267075 -0.03528912
v 0.9048953 -0.061861724 -4.3324277E-07
vt 0.08324751 1
vt 0 1
vt 0 0.8333333
vt 0.08324751 0.8333333
vt 0.16649503 1
vt 0.08324751 0.6666666
vt 0 0.6666666
vt 0 0.49999997
vt 0.16649503 0.8333333
vt 0.24974255 1
vt 0.16649503 0.6666666
vt 0.08324751 0.49999997
vt 0.24974255 0.8333333
vt 0.33298996 1
vt 0.24974255 0.6666666
vt 0.33298996 0.8333333
vt 0.4162374 1
vt 0.08324751 0.3333333
vt 0 0.3333333
vt 0 0.16666666
vt 0.16649503 0.49999997
vt 0.33298996 0.6666666
vt 0.4162374 0.8333333
vt 0.49948493 1
vt 0.16649503 0.3333333
vt 0.08324751 0.16666666
vt 0.24974255 0.49999997
vt 0.4162374 0.6666666
vt 0.49948493 0.8333333
vt 0.58273244 1
vt 0.08324751 0
vt 0 0
vt 0.16649503 0
vt 0.16649503 0.16666666
vt 0.24974255 0
vt 0.24974255 0.16666666
vt 0.33298996 0
vt 0.24974255 0.3333333
vt 0.33298996 0.16666666
vt 0.4162374 0
vt 0.33298996 0.3333333
vt 0.4162374 0.16666666
vt 0.49948493 0
vt 0.33298996 0.49999997
vt 0.4162374 0.3333333
vt 0.49948493 0.16666666
vt 0.58273244 0
vt 0.4162374 0.49999997
vt 0.49948493 0.3333333
vt 0.58273244 0.16666666
vt 0.66597974 0
vt 0.49948493 0.6666666
vt 0.58273244 0.3333333
vt 0.49948493 0.49999997
vt 0.66597974 0.16666666
vt 0.7492273 0
vt 0.58273244 0.6666666
vt 0.66597974 0.3333333
vt 0.58273244 0.49999997
vt 0.7492273 0.16666666
vt 0.8324748 0
vt 0.58273244 0.8333333
vt 0.66597974 1
vt 0.7492273 0.3333333
vt 0.66597974 0.6666666
vt 0.66597974 0.8333333
vt 0.7492273 1
vt 0.66597974 0.49999997
vt 0.8324748 0.16666666
vt 0.91572213 0
vt 0.7492273 0.8333333
vt 0.8324748 1
vt 0.7492273 0.6666666
vt 0.8324748 0.3333333
vt 0.7492273 0.49999997
vt 0.91572213 0.16666666
vt 1 0
vt 1 0.16666666
vt 1 0.3333333
vt 0.91572213 0.3333333
vt 0.8324748 0.6666666
vt 0.8324748 0.49999997
vt 0.91572213 0.49999997
vt 1 0.49999997
vt 1 0.6666666
vt 0.91572213 0.6666666
vt 0.8324748 0.8333333
vt 0.91572213 1
vt 0.91572213 0.8333333
vt 1 0.8333333
vt 1 1
vn 0.15677749 -0.012197091 0.9875587
vn 0.16826878 -0.031912453 0.9852245
vn 0.15712544 -0.04286888 0.98664784
vn 0.15537576 -0.028334223 0.98744905
vn 0.121689394 0.03815849 0.9918345
vn 0.13793746 -0.057118375 0.9887926
vn 0.13425207 -0.06916443 0.9885306
vn 0.10449036 -0.11114211 0.9882961
vn 0.13252313 0.011654336 0.99111134
vn 0.07426709 0.10685049 0.99149746
vn 0.13068382 -0.025922 0.9910851
vn 0.110179886 -0.10171934 0.9886929
vn 0.09211677 0.07214036 0.9931316
vn 0.03518502 0.17306113 0.98428243
vn 0.10525429 0.021107595 0.9942213
vn 0.052978076 0.13460408 0.98948216
vn 0.014698489 0.2198268 0.97542816
vn 0.07390271 -0.16682994 0.9832122
vn 0.06889941 -0.1719395 0.98269516
vn 0.02528806 -0.25944158 0.9654277
vn 0.11389112 -0.07323723 0.9907901
vn 0.07399319 0.0715118 0.99469143
vn 0.026718456 0.18290953 0.9827666
vn 0.008052272 0.23952271 0.9708574
vn 0.08428996 -0.13756514 0.9868997
vn 0.02815476 -0.25984952 0.96523863
vn 0.100548245 -0.03514334 0.99431133
vn 0.046148587 0.113033794 0.9925188
vn 0.012910303 0.20799203 0.9780452
vn 0.0017336778 0.23182732 0.97275543
vn 0.0039257393 -0.31168503 0.9501773
vn -0.00982044 -0.3346071 0.9423066
vn 0.016904615 -0.2795781 0.9599741
vn 0.041527666 -0.22840668 0.97267973
vn 0.019362874 -0.25300398 0.9672714
vn 0.04288665 -0.1995172 0.9789554
vn 0.013885425 -0.23368458 0.97221327
vn 0.079850346 -0.10526991 0.9912327
vn 0.03545864 -0.17582925 0.9837818
vn 0.0026173107 -0.22359349 0.974679
vn 0.065818496 -0.07469558 0.99503195
vn 0.02212188 -0.16051896 0.98678476
vn -0.012918322 -0.22415566 0.97446775
vn 0.07828362 0.0044632535 0.9969212
vn 0.04669155 -0.0514 0.99758613
vn 0.00491616 -0.15635683 0.9876885
vn -0.03202266 -0.23525073 0.97140706
vn 0.053762004 0.03691443 0.9978713
vn 0.025076857 -0.04008006 0.99888176
vn -0.015347795 -0.1649771 0.9861779
vn -0.052948367 -0.25453588 0.9656127
vn 0.024160195 0.13733317 0.99023026
vn 0.0015296462 -0.04395827 0.99903214
vn 0.029946147 0.055558946 0.9980063
vn -0.03901207 -0.18473668 0.9820134
vn -0.07310279 -0.27976477 0.9572814
vn 0.0041348943 0.14032207 0.9900973
vn -0.02457982 -0.063878275 0.9976549
vn 0.005941502 0.056394767 0.9983909
vn -0.06398406 -0.21210685 0.9751496
vn -0.08959708 -0.3122679 0.94575953
vn 0.0019730052 0.20700212 0.97833854
vn -0.018348303 0.1993473 0.97975713
vn -0.054304928 -0.09512359 0.9939831
vn -0.0205391 0.12104419 0.9924346
vn -0.018384978 0.1808201 0.9833444
vn -0.060892276 0.14736885 0.9872055
vn -0.02096736 0.037862178 0.99906296
vn -0.08655086 -0.24653375 0.96526164
vn -0.09966427 -0.3560548 0.9291351
vn -0.056020312 0.1339152 0.98940814
vn -0.12652175 0.082796454 0.9885024
vn -0.054105476 0.08222606 0.995144
vn -0.08416317 -0.1335084 0.9874676
vn -0.05244791 0.00344634 0.99861777
vn -0.102436684 -0.29216117 0.95086724
vn -0.102634184 -0.3792763 0.9195737
vn -0.10808958 -0.32073435 0.94098145
vn -0.11968359 -0.21063492 0.97021073
vn -0.10874484 -0.18239272 0.9771937
vn -0.095452756 0.033101216 0.99488336
vn -0.08717291 -0.03881132 0.99543685
vn -0.11937336 -0.09017036 0.98874635
vn -0.13582091 -0.1161039 0.98390675
vn -0.16078122 -0.048027873 0.9858209
vn -0.13719156 -0.022552485 0.9902878
vn -0.10958156 0.07598675 0.9910691
vn -0.1892668 0.022980433 0.98165685
vn -0.1653351 0.016667446 0.98609656
vn -0.19563113 -0.0065747695 0.98065555
vn -0.20806801 0.0044239326 0.9781043
g FX_MESH_Flag_01_0
f 3/3/3 2/2/2 1/1/1
f 4/4/4 3/3/3 1/1/1
f 4/4/4 1/1/1 5/5/5
f 3/3/3 4/4/4 6/6/6
f 7/7/7 3/3/3 6/6/6
f 8/8/8 7/7/7 6/6/6
f 9/9/9 4/4/4 5/5/5
f 9/9/9 5/5/5 10/10/10
f 6/6/6 4/4/4 11/11/11
f 4/4/4 9/9/9 11/11/11
f 12/12/12 8/8/8 6/6/6
f 12/12/12 6/6/6 11/11/11
f 13/13/13 9/9/9 10/10/10
f 13/13/13 10/10/10 14/14/14
f 11/11/11 9/9/9 15/15/15
f 9/9/9 13/13/13 15/15/15
f 16/16/16 13/13/13 14/14/14
f 16/16/16 14/14/14 17/17/17
f 8/8/8 12/12/12 18/18/18
f 19/19/19 8/8/8 18/18/18
f 20/20/20 19/19/19 18/18/18
f 21/21/21 12/12/12 11/11/11
f 21/21/21 11/11/11 15/15/15
f 15/15/15 13/13/13 22/22/22
f 13/13/13 16/16/16 22/22/22
f 23/23/23 16/16/16 17/17/17
f 23/23/23 17/17/17 24/24/24
f 18/18/18 12/12/12 25/25/25
f 12/12/12 21/21/21 25/25/25
f 26/26/26 20/20/20 18/18/18
f 26/26/26 18/18/18 25/25/25
f 27/27/27 21/21/21 15/15/15
f 27/27/27 15/15/15 22/22/22
f 22/22/22 16/16/16 28/28/28
f 16/16/16 23/23/23 28/28/28
f 29/29/29 23/23/23 24/24/24
f 29/29/29 24/24/24 30/30/30
f 20/20/20 26/26/26 31/31/31
f 32/32/32 20/20/20 31/31/31
f 31/31/31 26/26/26 33/33/33
f 26/26/26 34/34/34 33/33/33
f 33/33/33 34/34/34 35/35/35
f 34/34/34 26/26/26 25/25/25
f 34/34/34 36/36/36 35/35/35
f 35/35/35 36/36/36 37/37/37
f 34/34/34 25/25/25 38/38/38
f 36/36/36 34/34/34 38/38/38
f 25/25/25 21/21/21 38/38/38
f 21/21/21 27/27/27 38/38/38
f 36/36/36 39/39/39 37/37/37
f 37/37/37 39/39/39 40/40/40
f 36/36/36 38/38/38 41/41/41
f 38/38/38 27/27/27 41/41/41
f 39/39/39 36/36/36 41/41/41
f 39/39/39 42/42/42 40/40/40
f 40/40/40 42/42/42 43/43/43
f 27/27/27 44/44/44 41/41/41
f 44/44/44 27/27/27 22/22/22
f 44/44/44 22/22/22 28/28/28
f 39/39/39 41/41/41 45/45/45
f 41/41/41 44/44/44 45/45/45
f 42/42/42 39/39/39 45/45/45
f 42/42/42 46/46/46 43/43/43
f 43/43/43 46/46/46 47/47/47
f 48/48/48 44/44/44 28/28/28
f 44/44/44 48/48/48 45/45/45
f 42/42/42 45/45/45 49/49/49
f 46/46/46 42/42/42 49/49/49
f 45/45/45 48/48/48 49/49/49
f 46/46/46 50/50/50 47/47/47
f 47/47/47 50/50/50 51/51/51
f 48/48/48 28/28/28 52/52/52
f 28/28/28 23/23/23 52/52/52
f 23/23/23 29/29/29 52/52/52
f 46/46/46 49/49/49 53/53/53
f 50/50/50 46/46/46 53/53/53
f 48/48/48 54/54/54 49/49/49
f 54/54/54 48/48/48 52/52/52
f 49/49/49 54/54/54 53/53/53
f 50/50/50 55/55/55 51/51/51
f 51/51/51 55/55/55 56/56/56
f 52/52/52 29/29/29 57/57/57
f 54/54/54 52/52/52 57/57/57
f 50/50/50 53/53/53 58/58/58
f 55/55/55 50/50/50 58/58/58
f 54/54/54 59/59/59 53/53/53
f 59/59/59 54/54/54 57/57/57
f 53/53/53 59/59/59 58/58/58
f 55/55/55 60/60/60 56/56/56
f 56/56/56 60/60/60 61/61/61
f 29/29/29 62/62/62 57/57/57
f 62/62/62 29/29/29 30/30/30
f 62/62/62 30/30/30 63/63/63
f 55/55/55 58/58/58 64/64/64
f 60/60/60 55/55/55 64/64/64
f 59/59/59 57/57/57 65/65/65
f 57/57/57 62/62/62 65/65/65
f 66/66/66 62/62/62 63/63/63
f 62/62/62 66/66/66 65/65/65
f 66/66/66 63/63/63 67/67/67
f 59/59/59 68/68/68 58/58/58
f 68/68/68 59/59/59 65/65/65
f 58/58/58 68/68/68 64/64/64
f 60/60/60 69/69/69 61/61/61
f 61/61/61 69/69/69 70/70/70
f 71/71/71 66/66/66 67/67/67
f 71/71/71 67/67/67 72/72/72
f 65/65/65 66/66/66 73/73/73
f 68/68/68 65/65/65 73/73/73
f 66/66/66 71/71/71 73/73/73
f 60/60/60 64/64/64 74/74/74
f 69/69/69 60/60/60 74/74/74
f 68/68/68 75/75/75 64/64/64
f 75/75/75 68/68/68 73/73/73
f 64/64/64 75/75/75 74/74/74
f 69/69/69 76/76/76 70/70/70
f 70/70/70 76/76/76 77/77/77
f 76/76/76 78/78/78 77/77/77
f 78/78/78 76/76/76 79/79/79
f 76/76/76 69/69/69 80/80/80
f 69/69/69 74/74/74 80/80/80
f 76/76/76 80/80/80 79/79/79
f 73/73/73 71/71/71 81/81/81
f 75/75/75 73/73/73 81/81/81
f 75/75/75 82/82/82 74/74/74
f 74/74/74 82/82/82 80/80/80
f 82/82/82 75/75/75 81/81/81
f 80/80/80 83/83/83 79/79/79
f 82/82/82 83/83/83 80/80/80
f 83/83/83 84/84/84 79/79/79
f 84/84/84 83/83/83 85/85/85
f 83/83/83 82/82/82 86/86/86
f 82/82/82 81/81/81 86/86/86
f 83/83/83 86/86/86 85/85/85
f 71/71/71 87/87/87 81/81/81
f 81/81/81 87/87/87 86/86/86
f 87/87/87 71/71/71 72/72/72
f 87/87/87 72/72/72 88/88/88
f 86/86/86 89/89/89 85/85/85
f 87/87/87 89/89/89 86/86/86
f 89/89/89 87/87/87 88/88/88
f 89/89/89 90/90/90 85/85/85
f 89/89/89 88/88/88 91/91/91
f 90/90/90 89/89/89 91/91/91
