g FX_MESH_Flag_02
v 0.4651108 0.087508775 0.06892778
v 0.62892026 0.14644645 0.31591612
v 0.5116404 0.14644638 0.039790306
v 0.57171696 0.08750885 0.34712398
v 0.41506413 0.034401167 0.097189814
v 0.7852931 0.14644638 0.68408394
v 0.5101715 0.034401167 0.3773875
v 0.36188564 -0.012472153 0.12371988
v 0.7138582 0.087508775 0.7180522
v 0.90257293 0.14644638 0.9602098
v 0.820464 0.087508775 0.99624836
v 0.6369811 0.034401167 0.7509845
v 0.7320886 0.034401167 1.0311822
v 0.4447542 -0.012472076 0.40578806
v 0.30598438 -0.052754514 0.14771433
v 0.5552455 -0.012472153 0.781879
v 0.6381141 -0.012472153 1.0639473
v 0.3759646 -0.052754514 0.4314638
v 0.24778973 -0.0861393 0.1684466
v 0.46927166 -0.052754514 0.80979645
v 0.53925174 -0.052754514 1.0935459
v 0.30432796 -0.0861393 0.45363542
v 0.18774776 -0.11237251 0.18528944
v 0.37971202 -0.0861393 0.8338874
v 0.43625033 -0.0861393 1.1190763
v 0.23039058 -0.11237251 0.47163054
v 0.12631825 -0.13125442 0.19773376
v 0.2872475 -0.11237251 0.85341847
v 0.32989016 -0.11237251 1.1397595
v 0.15471622 -0.13125442 0.4849032
v 0.06397037 -0.14264129 0.2054043
v 0.19258015 -0.13125442 0.86779577
v 0.22097813 -0.13125442 1.1549652
v 0.07788158 -0.14264129 0.49305132
v 0.0011802291 -0.1464466 0.20807073
v 0.09642963 -0.14264129 0.8765808
v 0.11034107 -0.14264129 1.1642281
v 0.0004720688 -0.1464466 0.49582857
v -0.061574135 -0.14264129 0.205655
v -0.0004720688 -0.1464466 0.8795057
v -0.0011803055 -0.1464466 1.1672635
v -0.07692303 -0.14264129 0.4931516
v -0.123815306 -0.13125435 0.19823326
v -0.09738849 -0.14264129 0.8764805
v -0.112737425 -0.14264129 1.1639771
v -0.15371494 -0.13125435 0.485103
v -0.18507107 -0.112372436 0.18603389
v -0.19358131 -0.13125435 0.86759603
v -0.2234811 -0.13125435 1.1544658
v -0.22931987 -0.112372436 0.47192836
v -0.24487704 -0.08613922 0.16943045
v -0.28831834 -0.112372436 0.8531207
v -0.3325671 -0.112372436 1.1390152
v -0.30316284 -0.08613922 0.45402902
v -0.30278084 -0.05275436 0.14892997
v -0.3808774 -0.08613922 0.83349377
v -0.43916324 -0.08613922 1.1180923
v -0.37468317 -0.05275436 0.43195006
v -0.35834497 -0.012472 0.1251581
v -0.47055316 -0.05275436 0.8093102
v -0.5424557 -0.05275436 1.0923303
v -0.44333792 -0.012472 0.40636343
v -0.41115043 0.0344014 0.09883972
v -0.556662 -0.012472 0.781304
v -0.64165497 -0.012472 1.0625092
v -0.50860596 0.0344014 0.3780476
v -0.46079975 0.087508924 0.07077677
v -0.6385467 0.0344014 0.7503246
v -0.7360022 0.0344014 1.0295323
v -0.5699924 0.087509 0.34786364
v -0.50691944 0.1464466 0.04182428
v -0.6270318 0.1464466 0.3167298
v -0.7155827 0.087508924 0.71731275
v -0.8247754 0.087508924 0.99439955
v -0.7871817 0.1464466 0.6832704
v -0.907294 0.1464466 0.95817596
vt 0.944389 0
vt 0.99994135 0.29999998
vt 0.99994135 0
vt 0.944389 0.29999998
vt 0.8888369 0
vt 0.99994135 0.7
vt 0.8888369 0.29999998
vt 0.83328456 0
vt 0.944389 0.7
vt 0.99994135 1
vt 0.944389 1
vt 0.8888369 0.7
vt 0.8888369 1
vt 0.83328456 0.29999998
vt 0.7777322 0
vt 0.83328456 0.7
vt 0.83328456 1
vt 0.7777322 0.29999998
vt 0.7221799 0
vt 0.7777322 0.7
vt 0.7777322 1
vt 0.7221799 0.29999998
vt 0.6666275 0
vt 0.7221799 0.7
vt 0.7221799 1
vt 0.6666275 0.29999998
vt 0.61107516 0
vt 0.6666275 0.7
vt 0.6666275 1
vt 0.61107516 0.29999998
vt 0.5555231 0
vt 0.61107516 0.7
vt 0.61107516 1
vt 0.5555231 0.29999998
vt 0.49997061 0
vt 0.5555231 0.7
vt 0.5555231 1
vt 0.49997061 0.29999998
vt 0.4444184 0
vt 0.49997061 0.7
vt 0.49997061 1
vt 0.4444184 0.29999998
vt 0.38886604 0
vt 0.4444184 0.7
vt 0.4444184 1
vt 0.38886604 0.29999998
vt 0.3333137 0
vt 0.38886604 0.7
vt 0.38886604 1
vt 0.3333137 0.29999998
vt 0.2777615 0
vt 0.3333137 0.7
vt 0.3333137 1
vt 0.2777615 0.29999998
vt 0.22220914 0
vt 0.2777615 0.7
vt 0.2777615 1
vt 0.22220914 0.29999998
vt 0.16665679 0
vt 0.22220914 0.7
vt 0.22220914 1
vt 0.16665679 0.29999998
vt 0.11110457 0
vt 0.16665679 0.7
vt 0.16665679 1
vt 0.11110457 0.29999998
vt 0.05555222 0
vt 0.11110457 0.7
vt 0.11110457 1
vt 0.05555222 0.29999998
vt 0 0
vt 0 0.29999998
vt 0.05555222 0.7
vt 0.05555222 1
vt 0 0.7
vt 0 1
vn 0.49717698 -0.8156302 -0.2959097
vn 0.59497106 -0.7282747 -0.34003726
vn 0.52079785 -0.7824117 -0.34146985
vn 0.5718833 -0.7645417 -0.2973641
vn 0.43930444 -0.86730325 -0.23408708
vn 0.67285085 -0.65920275 -0.335743
vn 0.51405007 -0.8240146 -0.23822768
vn 0.37931886 -0.90828454 -0.17645527
vn 0.6521938 -0.69808376 -0.2955036
vn 0.7177992 -0.6125389 -0.33099926
vn 0.70117384 -0.65062714 -0.29161572
vn 0.59603494 -0.7657196 -0.2416936
vn 0.64665055 -0.7234403 -0.24182035
vn 0.44962838 -0.8746196 -0.18131419
vn 0.31732085 -0.9400926 -0.1246335
vn 0.5303483 -0.8268479 -0.1872246
vn 0.5830781 -0.78972983 -0.19064844
vn 0.38002384 -0.9157571 -0.13027185
vn 0.25351143 -0.96396935 -0.080591604
vn 0.45544 -0.8797768 -0.13626172
vn 0.50750935 -0.8503824 -0.13886715
vn 0.30700254 -0.9479377 -0.08463729
vn 0.18905063 -0.98089373 -0.04590676
vn 0.37448108 -0.9227214 -0.091373384
vn 0.42106375 -0.9021749 -0.09373245
vn 0.23103389 -0.97172403 -0.048739713
vn 0.12523776 -0.9919138 -0.020552823
vn 0.28501406 -0.9571029 -0.05216438
vn 0.3238048 -0.944555 -0.05446486
vn 0.15455022 -0.9877443 -0.021805355
vn 0.06342397 -0.9979723 -0.005349009
vn 0.19079281 -0.98132885 -0.024324184
vn 0.21909818 -0.9753646 -0.025687372
vn 0.07786269 -0.9969477 -0.005725198
vn -0.00076277636 -0.99999976 -0.00019069409
vn 0.09980402 -0.9949928 -0.005333039
vn 0.11034596 -0.9938746 -0.006088053
vn -0.00076277624 -0.99999964 -0.00038138812
vn -0.062662855 -0.9980204 -0.005349267
vn -0.00076277606 -0.9999994 -0.00076277606
vn -0 -1 0
vn -0.07786284 -0.99694973 -0.0053435285
vn -0.12552121 -0.99188626 -0.020152487
vn -0.09640807 -0.9953276 -0.0053348336
vn -0.110722266 -0.99383706 -0.0053268443
vn -0.15480533 -0.98769623 -0.022169653
vn -0.18831 -0.98107177 -0.045140147
vn -0.19247954 -0.9810002 -0.024297217
vn -0.21965544 -0.97523993 -0.025664207
vn -0.23103389 -0.97172403 -0.048739713
vn -0.25206208 -0.96441144 -0.07984574
vn -0.28467783 -0.9572434 -0.05141592
vn -0.32415172 -0.9444789 -0.053714443
vn -0.30631536 -0.9481923 -0.08427521
vn -0.31428584 -0.9412743 -0.12339877
vn -0.37356535 -0.92323476 -0.08992547
vn -0.42106375 -0.9021749 -0.09373245
vn -0.37912843 -0.91638774 -0.12843312
vn -0.37670594 -0.90970486 -0.17472745
vn -0.45665863 -0.8792713 -0.13544331
vn -0.50757945 -0.85001683 -0.1408354
vn -0.4483932 -0.8751956 -0.18159346
vn -0.43687776 -0.8689013 -0.2326981
vn -0.5310605 -0.8262559 -0.18781853
vn -0.5839954 -0.789089 -0.19049375
vn -0.5123536 -0.8249892 -0.23850943
vn -0.49323413 -0.81852406 -0.2945138
vn -0.5967239 -0.76523155 -0.24153958
vn -0.648393 -0.7216311 -0.24255943
vn -0.57026815 -0.76620257 -0.29618874
vn -0.5171716 -0.7855155 -0.3398513
vn -0.59394026 -0.72920144 -0.33985323
vn -0.65205973 -0.6979402 -0.296138
vn -0.7005786 -0.65067613 -0.2929339
vn -0.67315876 -0.65950435 -0.33453122
vn -0.71918046 -0.61101884 -0.33081034
g FX_MESH_Flag_02_0
f 3/3/3 2/2/2 1/1/1
f 2/2/2 4/4/4 1/1/1
f 1/1/1 4/4/4 5/5/5
f 2/2/2 6/6/6 4/4/4
f 4/4/4 7/7/7 5/5/5
f 5/5/5 7/7/7 8/8/8
f 6/6/6 9/9/9 4/4/4
f 4/4/4 9/9/9 7/7/7
f 6/6/6 10/10/10 9/9/9
f 10/10/10 11/11/11 9/9/9
f 9/9/9 11/11/11 12/12/12
f 9/9/9 12/12/12 7/7/7
f 11/11/11 13/13/13 12/12/12
f 7/7/7 14/14/14 8/8/8
f 7/7/7 12/12/12 14/14/14
f 8/8/8 14/14/14 15/15/15
f 12/12/12 13/13/13 16/16/16
f 12/12/12 16/16/16 14/14/14
f 13/13/13 17/17/17 16/16/16
f 14/14/14 18/18/18 15/15/15
f 14/14/14 16/16/16 18/18/18
f 15/15/15 18/18/18 19/19/19
f 16/16/16 17/17/17 20/20/20
f 16/16/16 20/20/20 18/18/18
f 17/17/17 21/21/21 20/20/20
f 18/18/18 22/22/22 19/19/19
f 18/18/18 20/20/20 22/22/22
f 19/19/19 22/22/22 23/23/23
f 20/20/20 21/21/21 24/24/24
f 20/20/20 24/24/24 22/22/22
f 21/21/21 25/25/25 24/24/24
f 22/22/22 26/26/26 23/23/23
f 22/22/22 24/24/24 26/26/26
f 23/23/23 26/26/26 27/27/27
f 24/24/24 25/25/25 28/28/28
f 24/24/24 28/28/28 26/26/26
f 25/25/25 29/29/29 28/28/28
f 26/26/26 30/30/30 27/27/27
f 26/26/26 28/28/28 30/30/30
f 27/27/27 30/30/30 31/31/31
f 28/28/28 29/29/29 32/32/32
f 28/28/28 32/32/32 30/30/30
f 29/29/29 33/33/33 32/32/32
f 30/30/30 34/34/34 31/31/31
f 30/30/30 32/32/32 34/34/34
f 31/31/31 34/34/34 35/35/35
f 32/32/32 33/33/33 36/36/36
f 32/32/32 36/36/36 34/34/34
f 33/33/33 37/37/37 36/36/36
f 34/34/34 38/38/38 35/35/35
f 34/34/34 36/36/36 38/38/38
f 35/35/35 38/38/38 39/39/39
f 36/36/36 37/37/37 40/40/40
f 36/36/36 40/40/40 38/38/38
f 37/37/37 41/41/41 40/40/40
f 38/38/38 42/42/42 39/39/39
f 38/38/38 40/40/40 42/42/42
f 39/39/39 42/42/42 43/43/43
f 40/40/40 41/41/41 44/44/44
f 40/40/40 44/44/44 42/42/42
f 41/41/41 45/45/45 44/44/44
f 42/42/42 46/46/46 43/43/43
f 42/42/42 44/44/44 46/46/46
f 43/43/43 46/46/46 47/47/47
f 44/44/44 45/45/45 48/48/48
f 44/44/44 48/48/48 46/46/46
f 45/45/45 49/49/49 48/48/48
f 46/46/46 50/50/50 47/47/47
f 46/46/46 48/48/48 50/50/50
f 47/47/47 50/50/50 51/51/51
f 48/48/48 49/49/49 52/52/52
f 48/48/48 52/52/52 50/50/50
f 49/49/49 53/53/53 52/52/52
f 50/50/50 54/54/54 51/51/51
f 50/50/50 52/52/52 54/54/54
f 51/51/51 54/54/54 55/55/55
f 52/52/52 53/53/53 56/56/56
f 52/52/52 56/56/56 54/54/54
f 53/53/53 57/57/57 56/56/56
f 54/54/54 58/58/58 55/55/55
f 54/54/54 56/56/56 58/58/58
f 55/55/55 58/58/58 59/59/59
f 56/56/56 57/57/57 60/60/60
f 56/56/56 60/60/60 58/58/58
f 57/57/57 61/61/61 60/60/60
f 58/58/58 62/62/62 59/59/59
f 58/58/58 60/60/60 62/62/62
f 59/59/59 62/62/62 63/63/63
f 60/60/60 61/61/61 64/64/64
f 60/60/60 64/64/64 62/62/62
f 61/61/61 65/65/65 64/64/64
f 62/62/62 66/66/66 63/63/63
f 62/62/62 64/64/64 66/66/66
f 63/63/63 66/66/66 67/67/67
f 64/64/64 65/65/65 68/68/68
f 64/64/64 68/68/68 66/66/66
f 65/65/65 69/69/69 68/68/68
f 66/66/66 70/70/70 67/67/67
f 66/66/66 68/68/68 70/70/70
f 67/67/67 70/70/70 71/71/71
f 70/70/70 72/72/72 71/71/71
f 68/68/68 69/69/69 73/73/73
f 68/68/68 73/73/73 70/70/70
f 70/70/70 73/73/73 72/72/72
f 69/69/69 74/74/74 73/73/73
f 73/73/73 75/75/75 72/72/72
f 73/73/73 74/74/74 75/75/75
f 74/74/74 76/76/76 75/75/75
