g FX_MESH_trapezoid_01
v 0.72098064 0 1.3950972E-06
v 0.66089886 0 1.3950972E-06
v 0.8879915 0.40000007 5.6004177E-07
v 0.81399244 0.36976835 5.6004177E-07
v 0.60081726 0 1.3950972E-06
v 1.0497093 0.80000013 -2.485455E-07
v 0.7399931 0.34216553 5.6004166E-07
v 0.5407355 0 1.3950972E-06
v 0.9622337 0.7393988 -2.4854552E-07
v 1.2061331 1.2000002 -1.0306649E-06
v 0.6659938 0.31719154 5.600416E-07
v 0.48065367 0 1.3950972E-06
v 0.8747578 0.684067 -2.4854563E-07
v 1.1056222 1.1088911 -1.030665E-06
v 1.3572633 1.5999999 -1.7863164E-06
v 0.59199446 0.29484633 5.600416E-07
v 0.42057204 0 1.3950972E-06
v 0.7872821 0.63400495 -2.4854566E-07
v 1.0051109 1.0257043 -1.0306652E-06
v 1.2441583 1.4782454 -1.7863164E-06
v 1.5031 2.0000002 -2.5155002E-06
v 1.377842 1.8474617 -2.5155002E-06
v 1.131053 1.3670776 -1.7863165E-06
v 1.2525834 1.7081871 -2.5155005E-06
v 0.5179951 0.27513 5.6004154E-07
v 0.36049026 0 1.3950972E-06
v 0.6998062 0.5892126 -2.4854575E-07
v 0.9046002 0.95044035 -1.0306652E-06
v 1.0179477 1.2664976 -1.7863165E-06
v 1.1273253 1.5821769 -2.5155002E-06
v 0.4439958 0.2580425 5.6004154E-07
v 0.30040863 0 1.3950972E-06
v 0.61233044 0.5496899 -2.485458E-07
v 0.8040889 0.8830987 -1.0306653E-06
v 0.9048425 1.1765047 -1.7863167E-06
v 1.0020671 1.4694308 -2.5155002E-06
v 0.36999664 0.2435839 5.6004154E-07
v 0.24032684 0 1.3950972E-06
v 0.5248547 0.515437 -2.485458E-07
v 0.7035777 0.8236796 -1.0306653E-06
v 0.791737 1.0970993 -1.7863167E-06
v 0.8768086 1.369949 -2.5155005E-06
v 0.29599732 0.23175414 5.6004154E-07
v 0.18024528 0 1.3950972E-06
v 0.43737915 0.48645368 -2.4854586E-07
v 0.60306686 0.7721833 -1.0306653E-06
v 0.678632 1.0282815 -1.7863167E-06
v 0.75155044 1.2837315 -2.5155002E-06
v 0.22199798 0.22255318 5.600415E-07
v 0.12016342 0 1.3950972E-06
v 0.34990326 0.46274003 -2.4854592E-07
v 0.50255567 0.7286093 -1.0306654E-06
v 0.5655267 0.9700508 -1.7863167E-06
v 0.6262921 1.2107784 -2.5155005E-06
v 0.14799881 0.21598107 5.600415E-07
v 0.06008171 0 1.3950972E-06
v 0.2624276 0.4442962 -2.4854592E-07
v 0.4020445 0.6929579 -1.0306654E-06
v 0.4524214 0.9224075 -1.7863168E-06
v 0.5010338 1.1510892 -2.5155005E-06
v 0.073999405 0.2120378 5.600415E-07
v 1.5258789E-07 0 1.3950972E-06
v 0.17495193 0.43112198 -2.4854592E-07
v 0.3015335 0.6652291 -1.0306654E-06
v 0.33931625 0.8853518 -1.7863168E-06
v 0.3757756 1.1046644 -2.5155005E-06
v 1.5258789E-07 0.21072334 5.600415E-07
v -0.060081635 0 1.395097E-06
v 0.08747612 0.42321742 -2.4854597E-07
v 0.20102249 0.64542264 -1.0306655E-06
v 0.22621086 0.85888326 -1.7863167E-06
v 0.2505171 1.0715039 -2.5155002E-06
v -0.07399925 0.2120378 5.600415E-07
v -0.120163344 0 1.3950972E-06
v 3.814697E-07 0.42058256 -2.4854597E-07
v 0.100511394 0.63353896 -1.0306655E-06
v 0.11310562 0.84300214 -1.7863168E-06
v 0.12525894 1.0516075 -2.5155005E-06
v -0.14799842 0.21598107 5.600415E-07
v -0.1802449 0 1.3950972E-06
v -0.087475434 0.42321742 -2.4854594E-07
v 2.2888183E-07 0.62957764 -1.0306655E-06
v 4.5776366E-07 0.8377085 -1.786317E-06
v 4.5776366E-07 1.0449754 -2.5155005E-06
v -0.22199768 0.22255318 5.600415E-07
v -0.24032669 0 1.3950972E-06
v -0.17495117 0.431122 -2.4854592E-07
v -0.10051071 0.6335389 -1.0306654E-06
v -0.11310493 0.84300214 -1.7863168E-06
v -0.12525779 1.0516074 -2.5155005E-06
v -0.29599693 0.23175414 5.600415E-07
v -0.3004084 0 1.3950972E-06
v -0.26242682 0.4442962 -2.4854597E-07
v -0.2010218 0.64542264 -1.0306655E-06
v -0.22621001 0.85888326 -1.7863168E-06
v -0.25051606 1.0715039 -2.5155005E-06
v -0.36999637 0.2435839 5.600415E-07
v -0.36049005 0 1.3950972E-06
v -0.34990263 0.4627401 -2.4854592E-07
v -0.3015328 0.6652291 -1.0306657E-06
v -0.33931527 0.88535184 -1.786317E-06
v -0.37577438 1.1046646 -2.5155007E-06
v -0.44399554 0.2580425 5.600416E-07
v -0.42057186 0 1.3950972E-06
v -0.43737853 0.48645365 -2.4854586E-07
v -0.40204394 0.6929579 -1.0306654E-06
v -0.45242056 0.92240757 -1.7863167E-06
v -0.50103277 1.1510892 -2.5155005E-06
v -0.5179949 0.27513 5.600415E-07
v -0.48065355 0 1.395097E-06
v -0.5248542 0.51543695 -2.4854586E-07
v -0.5025551 0.7286094 -1.0306654E-06
v -0.56552595 0.9700508 -1.7863167E-06
v -0.62629116 1.2107784 -2.5155005E-06
v -0.5919942 0.29484627 5.600415E-07
v -0.54073524 0 1.3950972E-06
v -0.61232996 0.54968995 -2.485458E-07
v -0.603066 0.77218324 -1.0306654E-06
v -0.6786311 1.0282815 -1.7863168E-06
v -0.75154936 1.2837315 -2.5155005E-06
v -0.6659935 0.31719145 5.6004166E-07
v -0.60081697 0 1.3950972E-06
v -0.69980574 0.5892125 -2.4854575E-07
v -0.70357716 0.8236796 -1.0306653E-06
v -0.7917364 1.0970994 -1.7863167E-06
v -0.87680787 1.369949 -2.5155002E-06
v -0.7399928 0.34216553 5.600417E-07
v -0.66089875 0 1.3950972E-06
v -0.78728145 0.63400483 -2.4854566E-07
v -0.8040883 0.8830986 -1.0306651E-06
v -0.90484166 1.1765045 -1.7863163E-06
v -1.0020661 1.4694306 -2.5155002E-06
v -0.81399214 0.36976832 5.6004177E-07
v -0.72098047 0 1.3950972E-06
v -0.88799155 0.40000007 5.6004177E-07
v -0.8747573 0.684067 -2.4854563E-07
v -0.90459937 0.95044017 -1.0306651E-06
v -1.017947 1.2664973 -1.7863164E-06
v -1.1273245 1.5821767 -2.5155002E-06
v -0.9622331 0.7393987 -2.4854552E-07
v -1.049709 0.80000013 -2.485455E-07
v -1.0051105 1.0257043 -1.0306652E-06
v -1.1310524 1.3670776 -1.7863167E-06
v -1.252583 1.7081871 -2.5155002E-06
v -1.1056217 1.1088911 -1.0306651E-06
v -1.2061329 1.2000002 -1.0306649E-06
v -1.2441578 1.4782449 -1.7863165E-06
v -1.3778415 1.8474613 -2.5155002E-06
v -1.3572632 1.5999999 -1.7863164E-06
v -1.5030999 2.0000002 -2.5155002E-06
vt 1.0000001 0
vt 0.9583335 0
vt 1.0000001 0.2
vt 0.9583335 0.2
vt 0.9166668 0
vt 1.0000001 0.4
vt 0.9166668 0.2
vt 0.8750001 0
vt 0.9583335 0.4
vt 1.0000001 0.6
vt 0.8750001 0.2
vt 0.83333343 0
vt 0.9166668 0.4
vt 0.9583335 0.6
vt 1.0000001 0.8
vt 0.83333343 0.2
vt 0.79166675 0
vt 0.8750001 0.4
vt 0.9166668 0.6
vt 0.9583335 0.8
vt 1.0000001 1
vt 0.9583335 1
vt 0.9166668 0.8
vt 0.9166668 1
vt 0.79166675 0.2
vt 0.75000006 0
vt 0.83333343 0.4
vt 0.8750001 0.6
vt 0.8750001 0.8
vt 0.8750001 1
vt 0.75000006 0.2
vt 0.7083334 0
vt 0.79166675 0.4
vt 0.83333343 0.6
vt 0.83333343 0.8
vt 0.83333343 1
vt 0.7083334 0.2
vt 0.6666667 0
vt 0.75000006 0.4
vt 0.79166675 0.6
vt 0.79166675 0.8
vt 0.79166675 1
vt 0.6666667 0.2
vt 0.625 0
vt 0.7083334 0.4
vt 0.75000006 0.6
vt 0.75000006 0.8
vt 0.75000006 1
vt 0.625 0.2
vt 0.5833333 0
vt 0.6666667 0.4
vt 0.7083334 0.6
vt 0.7083334 0.8
vt 0.7083334 1
vt 0.5833333 0.2
vt 0.5416666 0
vt 0.625 0.4
vt 0.6666667 0.6
vt 0.6666667 0.8
vt 0.6666667 1
vt 0.5416666 0.2
vt 0.49999994 0
vt 0.5833333 0.4
vt 0.625 0.6
vt 0.625 0.8
vt 0.625 1
vt 0.49999994 0.2
vt 0.45833328 0
vt 0.5416666 0.4
vt 0.5833333 0.6
vt 0.5833333 0.8
vt 0.5833333 1
vt 0.45833328 0.2
vt 0.41666663 0
vt 0.49999994 0.4
vt 0.5416666 0.6
vt 0.5416666 0.8
vt 0.5416666 1
vt 0.41666663 0.2
vt 0.37499997 0
vt 0.45833328 0.4
vt 0.49999994 0.6
vt 0.49999994 0.8
vt 0.49999994 1
vt 0.37499997 0.2
vt 0.3333333 0
vt 0.41666663 0.4
vt 0.45833328 0.6
vt 0.45833328 0.8
vt 0.45833328 1
vt 0.3333333 0.2
vt 0.29166666 0
vt 0.37499997 0.4
vt 0.41666663 0.6
vt 0.41666663 0.8
vt 0.41666663 1
vt 0.29166666 0.2
vt 0.25 0
vt 0.3333333 0.4
vt 0.37499997 0.6
vt 0.37499997 0.8
vt 0.37499997 1
vt 0.25 0.2
vt 0.20833334 0
vt 0.29166666 0.4
vt 0.3333333 0.6
vt 0.3333333 0.8
vt 0.3333333 1
vt 0.20833334 0.2
vt 0.16666667 0
vt 0.25 0.4
vt 0.29166666 0.6
vt 0.29166666 0.8
vt 0.29166666 1
vt 0.16666667 0.2
vt 0.125 0
vt 0.20833334 0.4
vt 0.25 0.6
vt 0.25 0.8
vt 0.25 1
vt 0.125 0.2
vt 0.083333336 0
vt 0.16666667 0.4
vt 0.20833334 0.6
vt 0.20833334 0.8
vt 0.20833334 1
vt 0.083333336 0.2
vt 0.041666668 0
vt 0.125 0.4
vt 0.16666667 0.6
vt 0.16666667 0.8
vt 0.16666667 1
vt 0.041666668 0.2
vt 0 0
vt 0 0.2
vt 0.083333336 0.4
vt 0.125 0.6
vt 0.125 0.8
vt 0.125 1
vt 0.041666668 0.4
vt 0 0.4
vt 0.083333336 0.6
vt 0.083333336 0.8
vt 0.083333336 1
vt 0.041666668 0.6
vt 0 0.6
vt 0.041666668 0.8
vt 0.041666668 1
vt 0 0.8
vt 0 1
vn -0 2.0876378E-06 1
vn -0 2.2191523E-06 1
vn -9.768738E-07 2.4717056E-06 1
vn -1.0335249E-06 2.646203E-06 1
vn -0 2.3987259E-06 1
vn -1.8611162E-06 2.723583E-06 1
vn -9.954125E-07 2.8033596E-06 1
vn -0 2.5883194E-06 1
vn -1.9353895E-06 2.9181601E-06 1
vn -2.616609E-06 2.9096932E-06 1
vn -9.4683804E-07 2.9625066E-06 1
vn -0 2.7854599E-06 1
vn -1.8332642E-06 3.0405367E-06 1
vn -2.706828E-06 3.116917E-06 1
vn -3.2483936E-06 3.0339E-06 1
vn -8.868552E-07 3.1209804E-06 1
vn -0 2.9864243E-06 1
vn -1.715058E-06 3.1604075E-06 1
vn -2.5287386E-06 3.2030125E-06 1
vn -3.352898E-06 3.2493788E-06 1
vn -3.94964E-06 3.3577278E-06 1
vn -4.22092E-06 3.5145601E-06 1
vn -3.0971114E-06 3.3016734E-06 1
vn -3.849394E-06 3.521793E-06 1
vn -8.147443E-07 3.2755004E-06 1
vn -0 3.1861043E-06 1
vn -1.5803458E-06 3.2759042E-06 1
vn -2.334217E-06 3.285081E-06 1
vn -2.8285813E-06 3.3504627E-06 1
vn -3.473862E-06 3.5274961E-06 1
vn -7.3014127E-07 3.4222237E-06 1
vn -0 3.3780148E-06 1
vn -1.4290738E-06 3.3849765E-06 1
vn -2.123601E-06 3.3621195E-06 1
vn -2.5480147E-06 3.3953515E-06 1
vn -3.0947838E-06 3.5317007E-06 1
vn -6.331393E-07 3.5568592E-06 1
vn -0 3.554557E-06 1
vn -1.2616407E-06 3.4854418E-06 1
vn -1.8975356E-06 3.4330958E-06 1
vn -2.256248E-06 3.4359316E-06 1
vn -2.7126305E-06 3.5344526E-06 1
vn -5.243962E-07 3.6748786E-06 1
vn -0 3.707567E-06 1
vn -1.0789589E-06 3.5750675E-06 1
vn -1.6569928E-06 3.4969846E-06 1
vn -1.9543209E-06 3.4718296E-06 1
vn -2.327943E-06 3.5358028E-06 1
vn -4.051804E-07 3.7718253E-06 1
vn -0 3.8291346E-06 1
vn -8.8247225E-07 3.6516637E-06 1
vn -1.4032834E-06 3.5527933E-06 1
vn -1.6433984E-06 3.5026894E-06 1
vn -1.941288E-06 3.5357946E-06 1
vn -2.7737403E-07 3.8436847E-06 1
vn -0 3.912549E-06 1
vn -6.741768E-07 3.713211E-06 1
vn -1.138052E-06 3.5996013E-06 1
vn -1.3247961E-06 3.5281853E-06 1
vn -1.5533019E-06 3.5344458E-06 1
vn -1.4340023E-07 3.8872936E-06 1
vn -0 3.9531483E-06 1
vn -4.5654866E-07 3.7579766E-06 1
vn -8.632493E-07 3.6365848E-06 1
vn -9.999595E-07 3.5480264E-06 1
vn -1.1646961E-06 3.5317269E-06 1
vn -0 3.9007036E-06 1
vn -0 3.9488527E-06 1
vn -2.32453E-07 3.7846448E-06 1
vn -5.810712E-07 3.6630588E-06 1
vn -6.704351E-07 3.5619814E-06 1
vn -7.7628755E-07 3.5275496E-06 1
vn 1.3152827E-07 3.883428E-06 1
vn -0 3.900297E-06 1
vn -0 3.7924387E-06 1
vn -2.9391973E-07 3.678517E-06 1
vn -3.378326E-07 3.5698756E-06 1
vn -3.8895558E-07 3.5217454E-06 1
vn 2.6632082E-07 3.8364797E-06 1
vn -0 3.8106161E-06 1
vn 2.2242322E-07 3.7811958E-06 1
vn -0 3.682668E-06 1
vn -0 3.5716046E-06 1
vn -0 3.5140602E-06 1
vn 3.9535198E-07 3.7622071E-06 1
vn -0 3.6850092E-06 1
vn 4.4665228E-07 3.7513878E-06 1
vn 2.851823E-07 3.6754636E-06 1
vn 3.3004116E-07 3.567162E-06 1
vn 3.7883268E-07 3.5041924E-06 1
vn 5.1602467E-07 3.6639592E-06 1
vn -0 3.5301666E-06 1
vn 6.6450986E-07 3.7040618E-06 1
vn 5.720318E-07 3.657121E-06 1
vn 6.6205735E-07 3.5566388E-06 1
vn 7.575494E-07 3.491841E-06 1
vn 6.262815E-07 3.5457085E-06 1
vn -0 3.3535941E-06 1
vn 8.731101E-07 3.640716E-06 1
vn 8.537692E-07 3.6281012E-06 1
vn 9.906815E-07 3.5402325E-06 1
vn 1.1318176E-06 3.4767907E-06 1
vn 7.247059E-07 3.4116972E-06 1
vn -0 3.1629045E-06 1
vn 1.0699434E-06 3.5631483E-06 1
vn 1.1280542E-06 3.5890655E-06 1
vn 1.3143998E-06 3.5182281E-06 1
vn 1.5010697E-06 3.458967E-06 1
vn 8.105562E-07 3.2661594E-06 1
vn -0 2.9651765E-06 1
vn 1.2529752E-06 3.4733184E-06 1
vn 1.3927227E-06 3.5407984E-06 1
vn 1.6317447E-06 3.4909588E-06 1
vn 1.8648356E-06 3.43848E-06 1
vn 8.8371337E-07 3.1131026E-06 1
vn -0 2.766488E-06 1
vn 1.4207187E-06 3.3732579E-06 1
vn 1.6458382E-06 3.4841435E-06 1
vn 1.9413062E-06 3.4587713E-06 1
vn 2.2227284E-06 3.415607E-06 1
vn 9.44542E-07 2.9561459E-06 1
vn -0 2.571674E-06 1
vn 1.5722576E-06 3.2650062E-06 1
vn 1.8857529E-06 3.41996E-06 1
vn 2.2417646E-06 3.4219877E-06 1
vn 2.5743968E-06 3.3907286E-06 1
vn 9.937743E-07 2.7984124E-06 1
vn -0 2.3842967E-06 1
vn 1.7071962E-06 3.150556E-06 1
vn 2.1111493E-06 3.349116E-06 1
vn 2.531928E-06 3.3808944E-06 1
vn 2.919515E-06 3.3642575E-06 1
vn 1.0323901E-06 2.6424866E-06 1
vn -0 2.2779336E-06 1
vn 1.1059062E-06 2.6015905E-06 1
vn 1.8255901E-06 3.0318076E-06 1
vn 2.3210537E-06 3.2724915E-06 1
vn 2.8107547E-06 3.3357567E-06 1
vn 3.2577293E-06 3.3365511E-06 1
vn 1.9278814E-06 2.910522E-06 1
vn 2.0402392E-06 2.8871918E-06 1
vn 2.5148356E-06 3.190978E-06 1
vn 3.077357E-06 3.2868454E-06 1
vn 3.5887133E-06 3.3078832E-06 1
vn 2.6921684E-06 3.1054797E-06 1
vn 2.8448508E-06 3.0954157E-06 1
vn 3.3310387E-06 3.2344594E-06 1
vn 3.9122233E-06 3.2784553E-06 1
vn 3.5202743E-06 3.2335188E-06 1
vn 3.99276E-06 3.278685E-06 1
g FX_MESH_trapezoid_01_0
f 3/3/3 2/2/2 1/1/1
f 2/2/2 3/3/3 4/4/4
f 4/4/4 5/5/5 2/2/2
f 6/6/6 4/4/4 3/3/3
f 5/5/5 4/4/4 7/7/7
f 7/7/7 8/8/8 5/5/5
f 4/4/4 6/6/6 9/9/9
f 9/9/9 7/7/7 4/4/4
f 10/10/10 9/9/9 6/6/6
f 8/8/8 7/7/7 11/11/11
f 11/11/11 12/12/12 8/8/8
f 7/7/7 9/9/9 13/13/13
f 13/13/13 11/11/11 7/7/7
f 9/9/9 10/10/10 14/14/14
f 14/14/14 13/13/13 9/9/9
f 15/15/15 14/14/14 10/10/10
f 12/12/12 11/11/11 16/16/16
f 16/16/16 17/17/17 12/12/12
f 11/11/11 13/13/13 18/18/18
f 18/18/18 16/16/16 11/11/11
f 13/13/13 14/14/14 19/19/19
f 19/19/19 18/18/18 13/13/13
f 14/14/14 15/15/15 20/20/20
f 20/20/20 19/19/19 14/14/14
f 21/21/21 20/20/20 15/15/15
f 20/20/20 21/21/21 22/22/22
f 22/22/22 23/23/23 20/20/20
f 19/19/19 20/20/20 23/23/23
f 23/23/23 22/22/22 24/24/24
f 17/17/17 16/16/16 25/25/25
f 25/25/25 26/26/26 17/17/17
f 16/16/16 18/18/18 27/27/27
f 27/27/27 25/25/25 16/16/16
f 18/18/18 19/19/19 28/28/28
f 23/23/23 28/28/28 19/19/19
f 28/28/28 27/27/27 18/18/18
f 24/24/24 29/29/29 23/23/23
f 28/28/28 23/23/23 29/29/29
f 29/29/29 24/24/24 30/30/30
f 26/26/26 25/25/25 31/31/31
f 31/31/31 32/32/32 26/26/26
f 25/25/25 27/27/27 33/33/33
f 33/33/33 31/31/31 25/25/25
f 27/27/27 28/28/28 34/34/34
f 29/29/29 34/34/34 28/28/28
f 34/34/34 33/33/33 27/27/27
f 30/30/30 35/35/35 29/29/29
f 34/34/34 29/29/29 35/35/35
f 35/35/35 30/30/30 36/36/36
f 32/32/32 31/31/31 37/37/37
f 37/37/37 38/38/38 32/32/32
f 31/31/31 33/33/33 39/39/39
f 39/39/39 37/37/37 31/31/31
f 33/33/33 34/34/34 40/40/40
f 35/35/35 40/40/40 34/34/34
f 40/40/40 39/39/39 33/33/33
f 36/36/36 41/41/41 35/35/35
f 40/40/40 35/35/35 41/41/41
f 41/41/41 36/36/36 42/42/42
f 38/38/38 37/37/37 43/43/43
f 43/43/43 44/44/44 38/38/38
f 37/37/37 39/39/39 45/45/45
f 45/45/45 43/43/43 37/37/37
f 39/39/39 40/40/40 46/46/46
f 41/41/41 46/46/46 40/40/40
f 46/46/46 45/45/45 39/39/39
f 42/42/42 47/47/47 41/41/41
f 46/46/46 41/41/41 47/47/47
f 47/47/47 42/42/42 48/48/48
f 44/44/44 43/43/43 49/49/49
f 49/49/49 50/50/50 44/44/44
f 43/43/43 45/45/45 51/51/51
f 51/51/51 49/49/49 43/43/43
f 45/45/45 46/46/46 52/52/52
f 47/47/47 52/52/52 46/46/46
f 52/52/52 51/51/51 45/45/45
f 48/48/48 53/53/53 47/47/47
f 52/52/52 47/47/47 53/53/53
f 53/53/53 48/48/48 54/54/54
f 50/50/50 49/49/49 55/55/55
f 55/55/55 56/56/56 50/50/50
f 49/49/49 51/51/51 57/57/57
f 57/57/57 55/55/55 49/49/49
f 51/51/51 52/52/52 58/58/58
f 53/53/53 58/58/58 52/52/52
f 58/58/58 57/57/57 51/51/51
f 54/54/54 59/59/59 53/53/53
f 58/58/58 53/53/53 59/59/59
f 59/59/59 54/54/54 60/60/60
f 56/56/56 55/55/55 61/61/61
f 61/61/61 62/62/62 56/56/56
f 55/55/55 57/57/57 63/63/63
f 63/63/63 61/61/61 55/55/55
f 57/57/57 58/58/58 64/64/64
f 59/59/59 64/64/64 58/58/58
f 64/64/64 63/63/63 57/57/57
f 60/60/60 65/65/65 59/59/59
f 64/64/64 59/59/59 65/65/65
f 65/65/65 60/60/60 66/66/66
f 62/62/62 61/61/61 67/67/67
f 67/67/67 68/68/68 62/62/62
f 61/61/61 63/63/63 69/69/69
f 69/69/69 67/67/67 61/61/61
f 63/63/63 64/64/64 70/70/70
f 65/65/65 70/70/70 64/64/64
f 70/70/70 69/69/69 63/63/63
f 66/66/66 71/71/71 65/65/65
f 70/70/70 65/65/65 71/71/71
f 71/71/71 66/66/66 72/72/72
f 68/68/68 67/67/67 73/73/73
f 73/73/73 74/74/74 68/68/68
f 67/67/67 69/69/69 75/75/75
f 75/75/75 73/73/73 67/67/67
f 69/69/69 70/70/70 76/76/76
f 71/71/71 76/76/76 70/70/70
f 76/76/76 75/75/75 69/69/69
f 72/72/72 77/77/77 71/71/71
f 76/76/76 71/71/71 77/77/77
f 77/77/77 72/72/72 78/78/78
f 74/74/74 73/73/73 79/79/79
f 79/79/79 80/80/80 74/74/74
f 73/73/73 75/75/75 81/81/81
f 81/81/81 79/79/79 73/73/73
f 75/75/75 76/76/76 82/82/82
f 77/77/77 82/82/82 76/76/76
f 82/82/82 81/81/81 75/75/75
f 78/78/78 83/83/83 77/77/77
f 82/82/82 77/77/77 83/83/83
f 83/83/83 78/78/78 84/84/84
f 80/80/80 79/79/79 85/85/85
f 85/85/85 86/86/86 80/80/80
f 79/79/79 81/81/81 87/87/87
f 87/87/87 85/85/85 79/79/79
f 81/81/81 82/82/82 88/88/88
f 83/83/83 88/88/88 82/82/82
f 88/88/88 87/87/87 81/81/81
f 84/84/84 89/89/89 83/83/83
f 88/88/88 83/83/83 89/89/89
f 89/89/89 84/84/84 90/90/90
f 86/86/86 85/85/85 91/91/91
f 91/91/91 92/92/92 86/86/86
f 85/85/85 87/87/87 93/93/93
f 93/93/93 91/91/91 85/85/85
f 87/87/87 88/88/88 94/94/94
f 89/89/89 94/94/94 88/88/88
f 94/94/94 93/93/93 87/87/87
f 90/90/90 95/95/95 89/89/89
f 94/94/94 89/89/89 95/95/95
f 95/95/95 90/90/90 96/96/96
f 92/92/92 91/91/91 97/97/97
f 97/97/97 98/98/98 92/92/92
f 91/91/91 93/93/93 99/99/99
f 99/99/99 97/97/97 91/91/91
f 93/93/93 94/94/94 100/100/100
f 95/95/95 100/100/100 94/94/94
f 100/100/100 99/99/99 93/93/93
f 96/96/96 101/101/101 95/95/95
f 100/100/100 95/95/95 101/101/101
f 101/101/101 96/96/96 102/102/102
f 98/98/98 97/97/97 103/103/103
f 103/103/103 104/104/104 98/98/98
f 97/97/97 99/99/99 105/105/105
f 105/105/105 103/103/103 97/97/97
f 99/99/99 100/100/100 106/106/106
f 101/101/101 106/106/106 100/100/100
f 106/106/106 105/105/105 99/99/99
f 102/102/102 107/107/107 101/101/101
f 106/106/106 101/101/101 107/107/107
f 107/107/107 102/102/102 108/108/108
f 104/104/104 103/103/103 109/109/109
f 109/109/109 110/110/110 104/104/104
f 103/103/103 105/105/105 111/111/111
f 111/111/111 109/109/109 103/103/103
f 105/105/105 106/106/106 112/112/112
f 107/107/107 112/112/112 106/106/106
f 112/112/112 111/111/111 105/105/105
f 108/108/108 113/113/113 107/107/107
f 112/112/112 107/107/107 113/113/113
f 113/113/113 108/108/108 114/114/114
f 110/110/110 109/109/109 115/115/115
f 115/115/115 116/116/116 110/110/110
f 109/109/109 111/111/111 117/117/117
f 117/117/117 115/115/115 109/109/109
f 111/111/111 112/112/112 118/118/118
f 113/113/113 118/118/118 112/112/112
f 118/118/118 117/117/117 111/111/111
f 114/114/114 119/119/119 113/113/113
f 118/118/118 113/113/113 119/119/119
f 119/119/119 114/114/114 120/120/120
f 116/116/116 115/115/115 121/121/121
f 121/121/121 122/122/122 116/116/116
f 115/115/115 117/117/117 123/123/123
f 123/123/123 121/121/121 115/115/115
f 117/117/117 118/118/118 124/124/124
f 119/119/119 124/124/124 118/118/118
f 124/124/124 123/123/123 117/117/117
f 120/120/120 125/125/125 119/119/119
f 124/124/124 119/119/119 125/125/125
f 125/125/125 120/120/120 126/126/126
f 122/122/122 121/121/121 127/127/127
f 127/127/127 128/128/128 122/122/122
f 121/121/121 123/123/123 129/129/129
f 129/129/129 127/127/127 121/121/121
f 123/123/123 124/124/124 130/130/130
f 125/125/125 130/130/130 124/124/124
f 130/130/130 129/129/129 123/123/123
f 126/126/126 131/131/131 125/125/125
f 130/130/130 125/125/125 131/131/131
f 131/131/131 126/126/126 132/132/132
f 128/128/128 127/127/127 133/133/133
f 133/133/133 134/134/134 128/128/128
f 134/134/134 133/133/133 135/135/135
f 127/127/127 129/129/129 136/136/136
f 136/136/136 133/133/133 127/127/127
f 129/129/129 130/130/130 137/137/137
f 131/131/131 137/137/137 130/130/130
f 137/137/137 136/136/136 129/129/129
f 132/132/132 138/138/138 131/131/131
f 137/137/137 131/131/131 138/138/138
f 138/138/138 132/132/132 139/139/139
f 140/140/140 135/135/135 133/133/133
f 133/133/133 136/136/136 140/140/140
f 135/135/135 140/140/140 141/141/141
f 136/136/136 137/137/137 142/142/142
f 138/138/138 142/142/142 137/137/137
f 142/142/142 140/140/140 136/136/136
f 139/139/139 143/143/143 138/138/138
f 142/142/142 138/138/138 143/143/143
f 143/143/143 139/139/139 144/144/144
f 145/145/145 141/141/141 140/140/140
f 140/140/140 142/142/142 145/145/145
f 143/143/143 145/145/145 142/142/142
f 141/141/141 145/145/145 146/146/146
f 144/144/144 147/147/147 143/143/143
f 145/145/145 143/143/143 147/147/147
f 147/147/147 146/146/146 145/145/145
f 147/147/147 144/144/144 148/148/148
f 146/146/146 147/147/147 149/149/149
f 148/148/148 149/149/149 147/147/147
f 149/149/149 148/148/148 150/150/150
