g OL_Marina_Original_Halo
v -0.011622101 0.10465048 -0.087812215
v 0.027607694 0.0862921 -0.07240777
v -0.02760771 0.0862921 -0.07240777
v 1.4901161E-07 0.08053537 -0.07926809
v 1.4901161E-07 0.09889375 -0.09467254
v 0.011622086 0.10465048 -0.087812215
v 0.008130938 0.11741261 -0.098520845
v -0.008130968 0.11741261 -0.098520845
v 1.4901161E-07 0.111655876 -0.10538117
v 0.096576795 0.07971385 -0.06688786
v 0.10403786 0.03926687 -0.03294885
v 0.0685463 0.071668416 -0.06013696
v 0.08629208 0.04971075 -0.053403392
v 0.107912794 0.06360823 -0.065064795
v 0.11924881 0.059016064 -0.049520113
v 0.16824697 0.09812166 -0.08233403
v 0.15535875 0.109888 -0.09220702
v 0.16180286 0.09824811 -0.09413085
v -0.096576825 0.07971385 -0.06688786
v -0.068546325 0.071668416 -0.06013696
v -0.104037896 0.03926687 -0.03294885
v -0.0862921 0.04971075 -0.053403392
v -0.10791282 0.06360823 -0.065064795
v -0.11924882 0.059016064 -0.049520113
v -0.168247 0.09812166 -0.08233403
v -0.15535878 0.109888 -0.09220702
v -0.16180287 0.09824811 -0.09413085
v -0.017635554 -0.107912794 0.09054957
v -0.02760771 -0.08629208 0.07240778
v 0.027607694 -0.08629208 0.07240778
v -1.7881393E-07 -0.09204882 0.06554714
v -1.7881393E-07 -0.11366953 0.08368923
v 0.01763554 -0.107912794 0.09054957
v 0.010025248 -0.16180286 0.13576876
v -0.010025278 -0.16180286 0.13576876
v -1.7881393E-07 -0.16755927 0.12890808
v 1.4901161E-07 0.03113383 -0.0685309
v 1.4901161E-07 0.03926526 -0.07535368
v 0.039257854 0.031206995 -0.06859219
v -0.039257884 0.031206995 -0.06859219
v 1.4901161E-07 0.030692905 -0.07731345
v 0.03395039 0.024165347 -0.06268335
v 0.036604285 0.023179531 -0.071008936
v 0.06799659 0.009191886 -0.050119244
v -0.036604315 0.023179531 -0.071008936
v 0.06340025 0.0026524663 -0.05378463
v -0.03395042 0.024165347 -0.06268335
v 0.058803916 0.0051263273 -0.04670801
v -0.06799662 0.009191886 -0.050119244
v 0.07851557 -0.020881176 -0.024884805
v -0.06340028 0.0026524663 -0.05378463
v 0.0732081 -0.025387987 -0.03025581
v -0.058803946 0.0051263273 -0.04670801
v 0.06790096 -0.020881176 -0.024884805
v -0.07851559 -0.020881176 -0.024884805
v 0.06799659 -0.050954238 0.00034964085
v -0.07320845 -0.025387987 -0.03025581
v 0.06340025 -0.053428426 -0.006727293
v -0.067900985 -0.020881176 -0.024884805
v 0.058803916 -0.04688868 -0.0030619055
v -0.06799662 -0.050954238 0.00034964085
v 0.039257854 -0.07296935 0.018822268
v -0.06340028 -0.053428426 -0.006727293
v 0.036603972 -0.07395549 0.010497004
v -1.7881393E-07 -0.08102762 0.025584072
v 0.03395039 -0.06592771 0.012913421
v -0.058803946 -0.04688868 -0.0030619055
v -1.7881393E-07 -0.081468865 0.016801521
v -0.039257884 -0.07296935 0.018822268
v -0.036604315 -0.07395549 0.010497004
v -0.03395042 -0.06592771 0.012913421
v -1.7881393E-07 -0.07289618 0.01876098
v 0.10854627 -0.036046878 0.018503934
v 0.113846034 -0.031742245 0.02663505
v 0.121152416 -1.4901161E-07 1.7881393E-07
v 0.11551249 -0.0057822317 -0.0068909675
v 0.10324682 -0.028787017 0.02415508
v 0.10987289 -1.4901161E-07 1.7881393E-07
v 0.08416768 -0.054102004 0.04539682
v 0.113845706 0.03174226 -0.026634708
v 0.08848772 -0.06266121 0.040836096
v 0.10854627 0.024482414 -0.032286182
v 0.092808075 -0.059655927 0.050057337
v 0.10324682 0.028787047 -0.024155065
v 0.054936357 -0.07289137 0.06116292
v 0.092808075 0.05965595 -0.050057307
v 0.057756163 -0.082414895 0.057411537
v 0.08848772 0.051096424 -0.054618023
v 0.060575962 -0.080374256 0.06744209
v 0.08416736 0.054101706 -0.04539679
v 0.019079298 -0.08288887 0.06955205
v 0.060575962 0.08037396 -0.06744175
v 0.020058379 -0.09292585 0.06623098
v 0.057756163 0.07085043 -0.07119346
v 0.021037787 -0.091398016 0.07669221
v 0.054936357 0.07289107 -0.061162896
v -0.019079313 -0.08288887 0.06955205
v 0.021037787 0.091398045 -0.07669218
v -0.020058721 -0.09292585 0.06623098
v 0.020058379 0.08136107 -0.08001292
v -0.021037802 -0.091398016 0.07669221
v 0.019079298 0.08288889 -0.06955202
v -0.05493638 -0.07289137 0.06116292
v -0.021037802 0.091398045 -0.07669218
v -0.057756186 -0.082414895 0.057411537
v -0.020058721 0.08136107 -0.08001292
v -0.060576305 -0.080374256 0.06744209
v -0.019079313 0.08288889 -0.06955202
v -0.084167704 -0.054102004 0.04539682
v -0.060576305 0.08037396 -0.06744175
v -0.08848773 -0.06266121 0.040836096
v -0.057756186 0.07085043 -0.07119346
v -0.09280811 -0.059655927 0.050057337
v -0.05493638 0.07289107 -0.061162896
v -0.10324685 -0.028787017 0.02415508
v -0.09280811 0.05965595 -0.050056987
v -0.1085463 -0.036046878 0.018503934
v -0.08848773 0.051096424 -0.054618023
v -0.11384605 -0.031742245 0.02663505
v -0.084167704 0.054101706 -0.04539679
v -0.10987292 -1.4901161E-07 1.7881393E-07
v -0.11384605 0.03174226 -0.026634708
v -0.115512505 -0.0057822317 -0.0068909675
v -0.1085463 0.024482414 -0.032285854
v -0.12115212 -1.4901161E-07 1.7881393E-07
v -0.10324685 0.028787047 -0.024155065
vt 0.47025138 0.07612394
vt 0.5706661 0.13747188
vt 0.42933375 0.13747188
vt 0.50000703 0.13747188
vt 0.50000703 0.07612394
vt 0.5297485 0.07612394
vt 0.52080756 0.033483632
vt 0.47919232 0.033483632
vt 0.50000703 0.033483632
vt 0.7472212 0.15945408
vt 0.7663132 0.2946217
vt 0.6754659 0.18634808
vt 0.72089666 0.24047777
vt 0.77623653 0.19403613
vt 0.80525184 0.2286182
vt 0.9306813 0.09794951
vt 0.89769375 0.058626465
vt 0.91419464 0.07828799
vt 0.25277868 0.15945408
vt 0.324534 0.18634808
vt 0.23368666 0.2946217
vt 0.2791032 0.24047777
vt 0.22376335 0.19403613
vt 0.19474798 0.2286182
vt 0.06931858 0.09794951
vt 0.10230609 0.058626465
vt 0.08580521 0.07828799
vt 0.454861 0.7864303
vt 0.42933375 0.71419096
vt 0.5706661 0.71419096
vt 0.50000703 0.71419096
vt 0.50000703 0.7864303
vt 0.54513884 0.7864303
vt 0.5256624 0.96651626
vt 0.47433743 0.96651626
vt 0.50000703 0.96651626
vt 0.50000703 0.2520241
vt 0.50000703 0.22484538
vt 0.60049295 0.25176784
vt 0.3995069 0.25176784
vt 0.50000703 0.23842761
vt 0.5869107 0.27530187
vt 0.59370184 0.26354197
vt 0.6740564 0.32534552
vt 0.406298 0.26354197
vt 0.6622965 0.33213663
vt 0.41308916 0.27530187
vt 0.65052235 0.33892775
vt 0.32594347 0.32534552
vt 0.7009931 0.4258314
vt 0.33770338 0.33213663
vt 0.6873966 0.4258314
vt 0.3494775 0.33892775
vt 0.67381436 0.4258314
vt 0.29900676 0.4258314
vt 0.6740564 0.5263316
vt 0.31260324 0.4258314
vt 0.6622965 0.5195262
vt 0.3261855 0.4258314
vt 0.65052235 0.51273507
vt 0.32594347 0.5263316
vt 0.60049295 0.599895
vt 0.33770338 0.5195262
vt 0.59370184 0.5881209
vt 0.50000703 0.62681746
vt 0.5869107 0.57636094
vt 0.3494775 0.51273507
vt 0.50000703 0.61323524
vt 0.3995069 0.599895
vt 0.406298 0.5881209
vt 0.41308916 0.57636094
vt 0.50000703 0.59965295
vt 0.77785957 0.52697223
vt 0.79142755 0.5318983
vt 0.8101352 0.4258314
vt 0.7956987 0.4258314
vt 0.7642915 0.52203196
vt 0.7812622 0.4258314
vt 0.71545804 0.60661495
vt 0.79142755 0.31976452
vt 0.72652036 0.6158976
vt 0.77785957 0.32470483
vt 0.7375684 0.6251802
vt 0.7642915 0.32963088
vt 0.6406275 0.6694008
vt 0.7375684 0.22648263
vt 0.64784575 0.6819153
vt 0.72652036 0.23576528
vt 0.655064 0.6944155
vt 0.71545804 0.2450479
vt 0.5488405 0.7028155
vt 0.655064 0.1572473
vt 0.55134624 0.7170384
vt 0.64784575 0.16976178
vt 0.553852 0.73124707
vt 0.6406275 0.182262
vt 0.45115933 0.7028155
vt 0.553852 0.12041576
vt 0.44865358 0.7170384
vt 0.55134624 0.1346387
vt 0.44614786 0.73124707
vt 0.5488405 0.14884737
vt 0.35937232 0.6694008
vt 0.44614786 0.12041576
vt 0.35215408 0.6819153
vt 0.44865358 0.1346387
vt 0.34493583 0.6944155
vt 0.45115933 0.14884737
vt 0.2845418 0.60661495
vt 0.34493583 0.1572473
vt 0.27347952 0.6158976
vt 0.35215408 0.16976178
vt 0.26243147 0.6251802
vt 0.35937232 0.182262
vt 0.23570833 0.52203196
vt 0.26243147 0.22648263
vt 0.22214031 0.52697223
vt 0.27347952 0.23576528
vt 0.2085723 0.5318983
vt 0.2845418 0.2450479
vt 0.21873763 0.4258314
vt 0.2085723 0.31976452
vt 0.20430115 0.4258314
vt 0.22214031 0.32470483
vt 0.18986467 0.4258314
vt 0.23570833 0.32963088
vn -0.919018 0.36921924 0.13814175
vn 0.91236717 -0.19590479 0.3594544
vn -0.9132709 -0.19590479 0.35715207
vn 0.00050598383 -0.97175306 -0.23599952
vn 0.00050598383 -0.54072624 -0.8411985
vn 0.9200298 0.36921924 0.1312337
vn 0.7265467 0.6738116 -0.13456523
vn -0.72553474 0.6738116 -0.13991888
vn 0.00050598383 -0.06755459 -0.9977155
vn -0.535883 0.78108937 -0.3205134
vn 0.2246399 -0.64800406 0.72775525
vn -0.9113552 0.38837606 -0.13636614
vn -0.4764971 -0.80892074 -0.34438023
vn 0.040735126 -0.61543757 -0.7871323
vn 0.69972724 -0.34532744 0.6254045
vn 0.9583433 0.03589183 0.28335464
vn 0.015831351 0.89794546 -0.4398219
vn 0.4277014 -0.25720638 -0.8665543
vn 0.5349792 0.78108937 -0.32201964
vn 0.9104515 0.38837606 -0.14227504
vn -0.22362798 -0.64800406 0.7280668
vn 0.4755933 -0.80892074 -0.34562725
vn -0.04163891 -0.61543757 -0.787085
vn -0.6987154 -0.34532744 0.62653476
vn -0.95924705 0.03589183 0.28027996
vn -0.014819443 0.89794546 -0.43985713
vn -0.42860514 -0.25720638 -0.8661077
vn -0.96116275 0.083783686 0.26295713
vn -0.88262016 0.43435222 -0.17977713
vn 0.883632 0.43435222 -0.17473589
vn 0.00050598383 -0.027325392 -0.99962646
vn 0.00050598383 -0.6824862 -0.7308983
vn 0.960259 0.083783686 0.26623845
vn 0.7342094 -0.33383334 0.59117836
vn -0.7331975 -0.33383334 0.59243286
vn 0.00050598383 -0.960259 -0.27910998
vn 0.00050598383 -0.324255 0.9459696
vn 0.00050598383 0.9573315 -0.28899166
vn 0.4583522 0.86346334 -0.21058087
vn -0.459256 0.86346334 -0.20860256
vn 0.00050598383 -0.5368949 -0.84364897
vn -0.42860514 -0.23613393 0.87208855
vn 0.0656389 -0.55030465 -0.83237994
vn 0.7951139 0.6064601 -0
vn -0.06462699 -0.55030465 -0.8324591
vn 0.113530755 -0.58670247 -0.80180484
vn 0.4277014 -0.23613393 0.87253207
vn -0.74086016 0.0033254027 0.67165107
vn -0.7944991 0.60676295 -0.02469685
vn 0.9181142 0.25427884 0.30398786
vn -0.11251885 -0.58670247 -0.8019474
vn 0.13077182 -0.63651 -0.76010114
vn 0.7418721 0.0033254027 0.67053324
vn -0.8558007 0.33282143 0.39602408
vn -0.919018 0.25427884 0.30124453
vn 0.795511 -0.09820539 0.59792805
vn -0.13167566 -0.63651 -0.7599451
vn 0.113530755 -0.6882332 -0.71655136
vn 0.8568126 0.33282143 0.39383
vn -0.74086016 0.6604019 0.122456424
vn -0.7964148 -0.09820539 0.59672374
vn 0.4583522 -0.35490578 0.8148344
vn -0.11251885 -0.6882332 -0.7167109
vn 0.0656389 -0.724631 -0.686004
vn 0.00050598383 -0.44877386 0.8936452
vn -0.42860514 0.89986116 -0.08091706
vn 0.7418721 0.6604019 0.11616887
vn 0.00050598383 -0.73804075 -0.674756
vn -0.459256 -0.35490578 0.8143254
vn -0.06462699 -0.724631 -0.6861
vn 0.4277014 0.89986116 -0.085565284
vn 0.00050598383 0.9879822 -0.15456685
vn 0.08862698 -0.66524506 -0.74134624
vn 0.8395715 0.05313295 0.54064465
vn 0.89512604 0.28684527 0.34127578
vn 0.09245837 -0.6403413 -0.7625054
vn -0.7964148 0.5627025 0.22156128
vn -0.8481379 0.3404842 0.4058726
vn -0.64890784 0.7581013 0.06481508
vn 0.8395715 0.5224733 0.14879996
vn 0.07138592 -0.68631756 -0.7237902
vn 0.08862698 -0.61543757 -0.783187
vn 0.68440187 -0.15375996 0.71270746
vn -0.7964148 0.11826593 0.5930739
vn -0.42477387 0.90369254 -0.053915847
vn 0.68440187 0.72745043 -0.04909109
vn 0.046482146 -0.70164293 -0.71101093
vn 0.07138592 -0.5943651 -0.8010207
vn 0.44685817 -0.30509824 0.84097135
vn -0.64890784 -0.07713294 0.7569472
vn -0.14700097 0.98031956 -0.13177353
vn 0.44685817 0.88070446 -0.15709041
vn 0.015831351 -0.71122134 -0.70278984
vn 0.046482146 -0.57712406 -0.8153326
vn 0.15567559 -0.38747227 0.90864205
vn -0.42477387 -0.22080857 0.8779583
vn 0.14801294 0.98031956 -0.13063599
vn 0.15567559 0.96307844 -0.21964747
vn -0.016735137 -0.71122134 -0.7027689
vn 0.015831351 -0.56946135 -0.8218656
vn -0.15466374 -0.38747227 0.9088148
vn -0.14700097 -0.29935122 0.94275105
vn 0.4238701 0.90369254 -0.060612798
vn -0.15466374 0.96307844 -0.22036108
vn -0.04738587 -0.70164293 -0.7109513
vn -0.016735137 -0.56946135 -0.82184774
vn -0.44776195 -0.30509824 0.8404905
vn 0.14801294 -0.29935122 0.94259274
vn 0.6499197 0.7581013 0.053729244
vn -0.44776195 0.88070446 -0.1544955
vn -0.072289646 -0.68631756 -0.7237005
vn -0.04738587 -0.57712406 -0.81528056
vn -0.68530566 -0.15375996 0.7118385
vn 0.4238701 -0.22080857 0.87839496
vn 0.79742664 0.5627025 0.21789144
vn -0.68530566 0.72745043 -0.034235444
vn -0.08761507 -0.66524506 -0.7414665
vn -0.072289646 -0.5943651 -0.8009396
vn -0.84047526 0.05313295 0.5392386
vn 0.6499197 -0.07713294 0.75607866
vn 0.8472342 0.3404842 0.40775576
vn -0.84047526 0.5224733 0.1436071
vn -0.09336215 -0.6403413 -0.7623953
vn -0.08761507 -0.61543757 -0.7833008
vn -0.8941142 0.28684527 0.343918
vn 0.79742664 0.11826593 0.5917127
g OL_Marina_Original_Halo_0
f 3/3/3 2/2/2 1/1/1
f 3/3/3 1/1/1 4/4/4
f 3/3/3 4/4/4 2/2/2
f 2/2/2 4/4/4 5/5/5
f 1/1/1 5/5/5 4/4/4
f 2/2/2 6/6/6 1/1/1
f 6/6/6 2/2/2 5/5/5
f 6/6/6 7/7/7 1/1/1
f 1/1/1 8/8/8 5/5/5
f 7/7/7 8/8/8 1/1/1
f 6/6/6 5/5/5 9/9/9
f 8/8/8 9/9/9 5/5/5
f 8/8/8 7/7/7 9/9/9
f 7/7/7 6/6/6 9/9/9
f 12/12/12 11/11/11 10/10/10
f 12/12/12 10/10/10 13/13/13
f 12/12/12 13/13/13 11/11/11
f 11/11/11 13/13/13 14/14/14
f 10/10/10 14/14/14 13/13/13
f 11/11/11 15/15/15 10/10/10
f 15/15/15 11/11/11 14/14/14
f 15/15/15 16/16/16 10/10/10
f 10/10/10 17/17/17 14/14/14
f 16/16/16 17/17/17 10/10/10
f 15/15/15 14/14/14 18/18/18
f 17/17/17 18/18/18 14/14/14
f 17/17/17 16/16/16 18/18/18
f 16/16/16 15/15/15 18/18/18
f 21/21/21 20/20/20 19/19/19
f 19/19/19 20/20/20 22/22/22
f 22/22/22 20/20/20 21/21/21
f 22/22/22 21/21/21 23/23/23
f 23/23/23 19/19/19 22/22/22
f 24/24/24 21/21/21 19/19/19
f 21/21/21 24/24/24 23/23/23
f 25/25/25 24/24/24 19/19/19
f 26/26/26 19/19/19 23/23/23
f 26/26/26 25/25/25 19/19/19
f 24/24/24 25/25/25 27/27/27
f 23/23/23 24/24/24 27/27/27
f 25/25/25 26/26/26 27/27/27
f 27/27/27 26/26/26 23/23/23
f 30/30/30 29/29/29 28/28/28
f 28/28/28 29/29/29 31/31/31
f 31/31/31 29/29/29 30/30/30
f 31/31/31 30/30/30 32/32/32
f 32/32/32 28/28/28 31/31/31
f 33/33/33 30/30/30 28/28/28
f 30/30/30 33/33/33 32/32/32
f 34/34/34 33/33/33 28/28/28
f 35/35/35 28/28/28 32/32/32
f 35/35/35 34/34/34 28/28/28
f 33/33/33 34/34/34 36/36/36
f 32/32/32 33/33/33 36/36/36
f 34/34/34 35/35/35 36/36/36
f 36/36/36 35/35/35 32/32/32
f 39/39/39 38/38/38 37/37/37
f 38/38/38 40/40/40 37/37/37
f 38/38/38 39/39/39 41/41/41
f 40/40/40 38/38/38 41/41/41
f 42/42/42 39/39/39 37/37/37
f 39/39/39 43/43/43 41/41/41
f 37/37/37 41/41/41 43/43/43
f 42/42/42 37/37/37 43/43/43
f 39/39/39 44/44/44 43/43/43
f 44/44/44 39/39/39 42/42/42
f 41/41/41 37/37/37 45/45/45
f 45/45/45 40/40/40 41/41/41
f 42/42/42 43/43/43 46/46/46
f 44/44/44 46/46/46 43/43/43
f 40/40/40 47/47/47 37/37/37
f 37/37/37 47/47/47 45/45/45
f 48/48/48 44/44/44 42/42/42
f 48/48/48 42/42/42 46/46/46
f 49/49/49 40/40/40 45/45/45
f 40/40/40 49/49/49 47/47/47
f 44/44/44 50/50/50 46/46/46
f 50/50/50 44/44/44 48/48/48
f 45/45/45 47/47/47 51/51/51
f 51/51/51 49/49/49 45/45/45
f 48/48/48 46/46/46 52/52/52
f 50/50/50 52/52/52 46/46/46
f 49/49/49 53/53/53 47/47/47
f 47/47/47 53/53/53 51/51/51
f 54/54/54 50/50/50 48/48/48
f 54/54/54 48/48/48 52/52/52
f 55/55/55 49/49/49 51/51/51
f 49/49/49 55/55/55 53/53/53
f 50/50/50 56/56/56 52/52/52
f 56/56/56 50/50/50 54/54/54
f 51/51/51 53/53/53 57/57/57
f 57/57/57 55/55/55 51/51/51
f 54/54/54 52/52/52 58/58/58
f 56/56/56 58/58/58 52/52/52
f 55/55/55 59/59/59 53/53/53
f 53/53/53 59/59/59 57/57/57
f 60/60/60 56/56/56 54/54/54
f 60/60/60 54/54/54 58/58/58
f 61/61/61 55/55/55 57/57/57
f 55/55/55 61/61/61 59/59/59
f 56/56/56 62/62/62 58/58/58
f 62/62/62 56/56/56 60/60/60
f 57/57/57 59/59/59 63/63/63
f 63/63/63 61/61/61 57/57/57
f 60/60/60 58/58/58 64/64/64
f 62/62/62 64/64/64 58/58/58
f 62/62/62 65/65/65 64/64/64
f 66/66/66 62/62/62 60/60/60
f 66/66/66 60/60/60 64/64/64
f 65/65/65 62/62/62 66/66/66
f 61/61/61 67/67/67 59/59/59
f 59/59/59 67/67/67 63/63/63
f 66/66/66 64/64/64 68/68/68
f 65/65/65 68/68/68 64/64/64
f 69/69/69 61/61/61 63/63/63
f 61/61/61 69/69/69 67/67/67
f 63/63/63 67/67/67 70/70/70
f 70/70/70 69/69/69 63/63/63
f 65/65/65 69/69/69 70/70/70
f 68/68/68 65/65/65 70/70/70
f 69/69/69 71/71/71 67/67/67
f 67/67/67 71/71/71 70/70/70
f 69/69/69 65/65/65 71/71/71
f 70/70/70 71/71/71 68/68/68
f 72/72/72 65/65/65 66/66/66
f 72/72/72 66/66/66 68/68/68
f 65/65/65 72/72/72 71/71/71
f 71/71/71 72/72/72 68/68/68
f 75/75/75 74/74/74 73/73/73
f 76/76/76 75/75/75 73/73/73
f 74/74/74 75/75/75 77/77/77
f 73/73/73 77/77/77 76/76/76
f 75/75/75 78/78/78 77/77/77
f 77/77/77 78/78/78 76/76/76
f 79/79/79 77/77/77 73/73/73
f 74/74/74 77/77/77 79/79/79
f 80/80/80 75/75/75 76/76/76
f 75/75/75 80/80/80 78/78/78
f 73/73/73 74/74/74 81/81/81
f 81/81/81 79/79/79 73/73/73
f 76/76/76 78/78/78 82/82/82
f 82/82/82 80/80/80 76/76/76
f 83/83/83 74/74/74 79/79/79
f 74/74/74 83/83/83 81/81/81
f 80/80/80 84/84/84 78/78/78
f 78/78/78 84/84/84 82/82/82
f 85/85/85 79/79/79 81/81/81
f 83/83/83 79/79/79 85/85/85
f 86/86/86 80/80/80 82/82/82
f 80/80/80 86/86/86 84/84/84
f 81/81/81 83/83/83 87/87/87
f 87/87/87 85/85/85 81/81/81
f 82/82/82 84/84/84 88/88/88
f 88/88/88 86/86/86 82/82/82
f 89/89/89 83/83/83 85/85/85
f 83/83/83 89/89/89 87/87/87
f 86/86/86 90/90/90 84/84/84
f 84/84/84 90/90/90 88/88/88
f 91/91/91 85/85/85 87/87/87
f 89/89/89 85/85/85 91/91/91
f 92/92/92 86/86/86 88/88/88
f 86/86/86 92/92/92 90/90/90
f 87/87/87 89/89/89 93/93/93
f 93/93/93 91/91/91 87/87/87
f 88/88/88 90/90/90 94/94/94
f 94/94/94 92/92/92 88/88/88
f 95/95/95 89/89/89 91/91/91
f 89/89/89 95/95/95 93/93/93
f 92/92/92 96/96/96 90/90/90
f 90/90/90 96/96/96 94/94/94
f 97/97/97 91/91/91 93/93/93
f 95/95/95 91/91/91 97/97/97
f 98/98/98 92/92/92 94/94/94
f 92/92/92 98/98/98 96/96/96
f 93/93/93 95/95/95 99/99/99
f 99/99/99 97/97/97 93/93/93
f 94/94/94 96/96/96 100/100/100
f 100/100/100 98/98/98 94/94/94
f 101/101/101 95/95/95 97/97/97
f 95/95/95 101/101/101 99/99/99
f 98/98/98 102/102/102 96/96/96
f 96/96/96 102/102/102 100/100/100
f 103/103/103 97/97/97 99/99/99
f 101/101/101 97/97/97 103/103/103
f 104/104/104 98/98/98 100/100/100
f 98/98/98 104/104/104 102/102/102
f 99/99/99 101/101/101 105/105/105
f 105/105/105 103/103/103 99/99/99
f 100/100/100 102/102/102 106/106/106
f 106/106/106 104/104/104 100/100/100
f 107/107/107 101/101/101 103/103/103
f 101/101/101 107/107/107 105/105/105
f 104/104/104 108/108/108 102/102/102
f 102/102/102 108/108/108 106/106/106
f 109/109/109 103/103/103 105/105/105
f 107/107/107 103/103/103 109/109/109
f 110/110/110 104/104/104 106/106/106
f 104/104/104 110/110/110 108/108/108
f 105/105/105 107/107/107 111/111/111
f 111/111/111 109/109/109 105/105/105
f 106/106/106 108/108/108 112/112/112
f 112/112/112 110/110/110 106/106/106
f 113/113/113 107/107/107 109/109/109
f 107/107/107 113/113/113 111/111/111
f 110/110/110 114/114/114 108/108/108
f 108/108/108 114/114/114 112/112/112
f 115/115/115 109/109/109 111/111/111
f 113/113/113 109/109/109 115/115/115
f 116/116/116 110/110/110 112/112/112
f 110/110/110 116/116/116 114/114/114
f 111/111/111 113/113/113 117/117/117
f 117/117/117 115/115/115 111/111/111
f 112/112/112 114/114/114 118/118/118
f 118/118/118 116/116/116 112/112/112
f 119/119/119 113/113/113 115/115/115
f 113/113/113 119/119/119 117/117/117
f 116/116/116 120/120/120 114/114/114
f 114/114/114 120/120/120 118/118/118
f 121/121/121 115/115/115 117/117/117
f 119/119/119 115/115/115 121/121/121
f 122/122/122 116/116/116 118/118/118
f 116/116/116 122/122/122 120/120/120
f 117/117/117 119/119/119 123/123/123
f 123/123/123 121/121/121 117/117/117
f 118/118/118 120/120/120 124/124/124
f 124/124/124 122/122/122 118/118/118
f 125/125/125 119/119/119 121/121/121
f 119/119/119 125/125/125 123/123/123
f 125/125/125 122/122/122 124/124/124
f 123/123/123 125/125/125 124/124/124
f 122/122/122 126/126/126 120/120/120
f 120/120/120 126/126/126 124/124/124
f 122/122/122 125/125/125 126/126/126
f 125/125/125 121/121/121 126/126/126
f 126/126/126 121/121/121 123/123/123
f 124/124/124 126/126/126 123/123/123
